<?xml version="1.0" encoding="UTF-8" standalone="no"?>
<!-- Created with Inkscape (http://www.inkscape.org/) -->

<svg
   width="49.238438mm"
   height="42.409302mm"
   viewBox="0 0 49.238438 42.409302"
   version="1.1"
   id="svg1"
   xml:space="preserve"
   sodipodi:docname="fireflyrobotics.svg"
   inkscape:version="1.4.4 (dcaf3e7d9e, 2026-05-05)"
   xmlns:inkscape="http://www.inkscape.org/namespaces/inkscape"
   xmlns:sodipodi="http://sodipodi.sourceforge.net/DTD/sodipodi-0.dtd"
   xmlns="http://www.w3.org/2000/svg"
   xmlns:svg="http://www.w3.org/2000/svg"><sodipodi:namedview
     id="namedview1"
     pagecolor="#ffffff"
     bordercolor="#000000"
     borderopacity="0.25"
     inkscape:showpageshadow="2"
     inkscape:pageopacity="0.0"
     inkscape:pagecheckerboard="0"
     inkscape:deskcolor="#d1d1d1"
     inkscape:document-units="mm"
     inkscape:zoom="0.60578002"
     inkscape:cx="291.35989"
     inkscape:cy="6.603057"
     inkscape:window-width="1503"
     inkscape:window-height="933"
     inkscape:window-x="0"
     inkscape:window-y="0"
     inkscape:window-maximized="1"
     inkscape:current-layer="svg1" /><defs
     id="defs1" /><g
     id="layer1"
     transform="translate(-28.047505,-146.68787)"><g
       id="g1"
       transform="translate(-52.348259,19.456875)"><path
         style="fill:#b6d0e8"
         d="m 91.18071,169.58241 c 0.06112,-0.0245 0.134143,-0.0215 0.162278,0.007 0.02813,0.0281 -0.02187,0.0481 -0.111125,0.0445 -0.09863,-0.004 -0.118695,-0.0241 -0.05115,-0.0511 z m 14.224,0 c 0.0611,-0.0245 0.13414,-0.0215 0.16228,0.007 0.0281,0.0281 -0.0219,0.0481 -0.11113,0.0445 -0.0986,-0.004 -0.11869,-0.0241 -0.0512,-0.0511 z m -25.007812,-2.60916 c -3.6e-5,-1.44357 0.01151,-2.04602 0.02565,-1.33879 0.01415,0.70724 0.01418,1.88834 6.5e-5,2.62467 -0.01411,0.73633 -0.02568,0.15768 -0.02572,-1.28588 z m 13.800533,-0.0847 c -3.8e-5,-1.397 0.01156,-1.98038 0.02578,-1.2964 0.01421,0.68398 0.01425,1.82698 6.9e-5,2.54 -0.01418,0.71302 -0.02581,0.1534 -0.02585,-1.2436 z m -8.170071,1.8415 -0.291775,-0.3175 0.3175,0.29178 c 0.174625,0.16047 0.3175,0.30335 0.3175,0.3175 0,0.0647 -0.07165,0.004 -0.343225,-0.29178 z m 6.904891,0.14817 c 0.08429,-0.0931 0.172295,-0.16934 0.195578,-0.16934 0.02328,0 -0.02663,0.0762 -0.110911,0.16934 -0.08428,0.0931 -0.172294,0.16933 -0.195578,0.16933 -0.02328,0 0.02663,-0.0762 0.110911,-0.16933 z m -3.450166,-0.64874 c 0.05821,-0.0235 0.153458,-0.0235 0.211666,0 0.05821,0.0235 0.01058,0.0427 -0.105833,0.0427 -0.116417,0 -0.164042,-0.0192 -0.105833,-0.0427 z m 1.27,0 c 0.05821,-0.0235 0.153458,-0.0235 0.211666,0 0.05821,0.0235 0.01058,0.0427 -0.105833,0.0427 -0.116417,0 -0.164042,-0.0192 -0.105833,-0.0427 z m 12.954005,0 c 0.0582,-0.0235 0.15345,-0.0235 0.21166,0 0.0582,0.0235 0.0106,0.0427 -0.10583,0.0427 -0.11642,0 -0.16404,-0.0192 -0.10583,-0.0427 z m 1.27,0 c 0.0582,-0.0235 0.15345,-0.0235 0.21166,0 0.0582,0.0235 0.0106,0.0427 -0.10583,0.0427 -0.11642,0 -0.16404,-0.0192 -0.10583,-0.0427 z m 14.90662,-0.002 c 0.0611,-0.0245 0.13414,-0.0215 0.16228,0.007 0.0281,0.0281 -0.0219,0.0481 -0.11113,0.0445 -0.0986,-0.004 -0.11869,-0.0241 -0.0511,-0.0512 z m -36.740258,-0.51366 c -0.105315,-0.13428 -0.10232,-0.13728 0.03197,-0.032 0.141033,0.1106 0.185884,0.18013 0.1162,0.18013 -0.01758,0 -0.08426,-0.0667 -0.148166,-0.14817 z m 5.012817,-0.83255 c 0.0041,-0.0986 0.02412,-0.1187 0.05115,-0.0512 0.02446,0.0611 0.02145,0.13415 -0.0067,0.16228 -0.02813,0.0281 -0.04814,-0.0219 -0.04447,-0.11112 z m 35.572961,-0.96662 c 0,-0.16298 0.0174,-0.22965 0.0387,-0.14816 0.0213,0.0815 0.0213,0.21484 0,0.29633 -0.0213,0.0815 -0.0387,0.0148 -0.0387,-0.14817 z m -37.34114,-0.0423 c 0.0017,-0.1397 0.0207,-0.1866 0.04217,-0.10422 0.02147,0.0824 0.02005,0.19668 -0.0031,0.254 -0.02319,0.0573 -0.04076,-0.0101 -0.03903,-0.14978 z m 3.433661,-0.35833 c 0.197909,-0.0178 0.521759,-0.0178 0.719667,0 0.197908,0.0178 0.03598,0.0324 -0.359833,0.0324 -0.395817,0 -0.557742,-0.0146 -0.359834,-0.0324 z m 14.223999,0 c 0.19791,-0.0178 0.52176,-0.0178 0.71967,0 0.19791,0.0178 0.036,0.0324 -0.35983,0.0324 -0.39582,0 -0.55775,-0.0146 -0.35984,-0.0324 z m 4.6953,-7e-4 c 0.31229,-0.0163 0.84569,-0.0164 1.18533,-2.4e-4 0.33965,0.0161 0.0841,0.0294 -0.56779,0.0295 -0.65194,1.3e-4 -0.92983,-0.0131 -0.61754,-0.0293 z m 3.60204,7e-4 c 0.1979,-0.0178 0.52175,-0.0178 0.71966,0 0.19791,0.0178 0.036,0.0324 -0.35983,0.0324 -0.39582,0 -0.55774,-0.0146 -0.35983,-0.0324 z m 8.255,-5.7e-4 c 0.26775,-0.0168 0.7059,-0.0168 0.97366,0 0.26776,0.0168 0.0487,0.0306 -0.48683,0.0306 -0.53552,0 -0.75459,-0.0137 -0.48683,-0.0306 z m -38.857077,-1.3554 c 0.596436,-0.0146 1.548936,-0.0145 2.116667,9e-5 0.567731,0.0146 0.07974,0.0266 -1.084429,0.0265 -1.164167,-5e-5 -1.628674,-0.012 -1.032238,-0.0266 z m 7.996072,8.8e-4 c 0.244475,-0.0171 0.644525,-0.0171 0.889,0 0.244475,0.0171 0.04445,0.0311 -0.4445,0.0311 -0.48895,0 -0.688975,-0.014 -0.4445,-0.0311 z m 5.799667,-8.4e-4 c 0.593725,-0.0146 1.565275,-0.0146 2.159,0 0.593725,0.0145 0.10795,0.0265 -1.0795,0.0265 -1.18745,0 -1.673225,-0.0119 -1.0795,-0.0265 z m 8.424338,8.4e-4 c 0.24447,-0.0171 0.64452,-0.0171 0.889,0 0.24447,0.0171 0.0444,0.0311 -0.4445,0.0311 -0.48895,0 -0.68898,-0.014 -0.4445,-0.0311 z m 6.6939,-9.4e-4 c 0.71301,-0.0142 1.85602,-0.0141 2.54,7e-5 0.68398,0.0142 0.1006,0.0258 -1.2964,0.0258 -1.397,-4e-5 -1.95662,-0.0117 -1.2436,-0.0258 z m 10.10815,3.8e-4 c 0.4051,-0.0155 1.0909,-0.0156 1.524,-1.6e-4 0.43309,0.0154 0.10165,0.0281 -0.73655,0.0282 -0.8382,9e-5 -1.19256,-0.0125 -0.78745,-0.028 z m 5.59228,-2.8e-4 c 0.59372,-0.0146 1.56527,-0.0146 2.159,0 0.59372,0.0145 0.10795,0.0265 -1.0795,0.0265 -1.18745,0 -1.67323,-0.0119 -1.0795,-0.0265 z m -22.22098,-2.87846 c 0.38638,-0.0157 0.99598,-0.0156 1.35467,1.9e-4 0.35868,0.0158 0.0425,0.0287 -0.70252,0.0286 -0.74507,-1e-4 -1.03854,-0.0131 -0.65215,-0.0288 z m 4.31927,0.005 c 0.0611,-0.0245 0.13414,-0.0214 0.16228,0.007 0.0281,0.0281 -0.0219,0.0481 -0.11113,0.0445 -0.0986,-0.004 -0.11869,-0.0241 -0.0512,-0.0512 z m 16.17133,0 c 0.0611,-0.0245 0.13415,-0.0214 0.16228,0.007 0.0281,0.0281 -0.0219,0.0481 -0.11112,0.0445 -0.0986,-0.004 -0.1187,-0.0241 -0.0512,-0.0512 z m -0.20314,-1.5085 c 9e-5,-0.8382 0.0128,-1.16965 0.0282,-0.73655 0.0154,0.4331 0.0153,1.1189 -1.6e-4,1.524 -0.0155,0.4051 -0.0281,0.0507 -0.028,-0.78745 z m -44.025136,-0.59267 c 5.5e-5,-1.1176 0.0121,-1.56309 0.02677,-0.98997 0.01467,0.57311 0.01462,1.48751 -1.01e-4,2.032 -0.01472,0.54448 -0.02673,0.0756 -0.02667,-1.04203 z m 8.214047,-0.762 c -3.2e-5,-1.5367 0.01141,-2.17729 0.02543,-1.42354 0.01402,0.75375 0.01405,2.01105 5.9e-5,2.794 -0.01399,0.78295 -0.02546,0.16624 -0.02549,-1.37046 z m 2.879399,-0.635 c 0,-1.88595 0.01115,-2.65747 0.02477,-1.7145 0.01363,0.94298 0.01363,2.48603 0,3.429 -0.01363,0.94298 -0.02477,0.17145 -0.02477,-1.7145 z m 25.23063,-0.21166 c 2e-5,-1.86267 0.0112,-2.61261 0.0248,-1.66653 0.0136,0.94608 0.0136,2.47008 -4e-5,3.38667 -0.0137,0.91659 -0.0248,0.14252 -0.0248,-1.72014 z m -18.244814,2.01083 -0.462774,-0.48683 0.486833,0.46277 c 0.267758,0.25453 0.486833,0.4736 0.486833,0.48684 0,0.0628 -0.08096,-0.0105 -0.510892,-0.46278 z m 25.246924,0.23283 c 0,-0.11641 0.0192,-0.16404 0.0427,-0.10583 0.0235,0.0582 0.0235,0.15346 0,0.21167 -0.0235,0.0582 -0.0427,0.0106 -0.0427,-0.10584 z m -28.59641,-1.12183 -0.161288,-0.1905 0.1905,0.16129 c 0.179023,0.15157 0.229043,0.21971 0.161288,0.21971 -0.01607,0 -0.101791,-0.0857 -0.1905,-0.1905 z m -7.908289,-0.5188 c 0,-0.0176 0.06667,-0.0842 0.148167,-0.14817 0.134286,-0.10531 0.137281,-0.10231 0.03197,0.032 -0.110606,0.14103 -0.180133,0.18589 -0.180133,0.1162 z m 12.554883,-0.51837 c 6.36e-4,-0.23283 0.01708,-0.31803 0.03654,-0.18933 0.01946,0.1287 0.01894,0.3192 -0.0012,0.42333 -0.0201,0.10414 -0.03602,-0.001 -0.03538,-0.234 z m 23.214516,-0.8255 -0.5904,-0.61383 0.61384,0.5904 c 0.57012,0.54836 0.6525,0.63727 0.59039,0.63727 -0.0129,0 -0.28911,-0.27623 -0.61383,-0.61384 z m -11.40656,-0.0422 c 0.71014,-0.0142 1.87219,-0.0142 2.58233,0 0.71014,0.0142 0.12912,0.0258 -1.29117,0.0258 -1.42028,0 -2.00131,-0.0116 -1.29116,-0.0258 z m 13.99116,-0.31767 c 0.10937,-0.11642 0.2179,-0.21167 0.24119,-0.21167 0.0233,0 -0.0472,0.0952 -0.15652,0.21167 -0.10937,0.11642 -0.2179,0.21167 -0.24118,0.21167 -0.0233,0 0.0471,-0.0952 0.15651,-0.21167 z m -23.53733,0.0104 c 0,-0.0176 0.0667,-0.0843 0.14817,-0.14817 0.13428,-0.10531 0.13728,-0.10232 0.032,0.032 -0.1106,0.14103 -0.18013,0.18588 -0.18013,0.1162 z m 26.797,-0.8147 c 0.27648,-0.2794 0.52175,-0.508 0.54503,-0.508 0.0233,0 -0.18388,0.2286 -0.46036,0.508 -0.27649,0.2794 -0.52175,0.508 -0.54504,0.508 -0.0233,0 0.18388,-0.2286 0.46037,-0.508 z m -25.28888,0.19616 c 0.0611,-0.0245 0.13415,-0.0215 0.16228,0.007 0.0281,0.0281 -0.0219,0.0481 -0.11112,0.0445 -0.0986,-0.004 -0.1187,-0.0241 -0.0512,-0.0512 z m 8.382,0 c 0.0611,-0.0245 0.13415,-0.0215 0.16228,0.007 0.0281,0.0281 -0.0219,0.0481 -0.11112,0.0445 -0.0986,-0.004 -0.1187,-0.0241 -0.0512,-0.0512 z m -17.531289,-0.09 c 0.523876,-0.0149 1.381126,-0.0149 1.905001,0 0.523875,0.0149 0.09525,0.027 -0.9525,0.027 -1.047751,0 -1.476376,-0.0122 -0.952501,-0.027 z m 6.328829,-0.6988 c 0.0843,-0.0931 0.1723,-0.16933 0.19558,-0.16933 0.0233,0 -0.0266,0.0762 -0.11091,0.16933 -0.0843,0.0931 -0.17229,0.16933 -0.19558,0.16933 -0.0233,0 0.0266,-0.0762 0.11091,-0.16933 z m 22.72221,-0.3175 c -0.10532,-0.13428 -0.10232,-0.13728 0.032,-0.032 0.0815,0.0639 0.14817,0.13059 0.14817,0.14817 0,0.0697 -0.0695,0.0248 -0.18013,-0.1162 z m -20.2457,-0.66991 c 0.0582,-0.0235 0.15345,-0.0235 0.21166,0 0.0582,0.0235 0.0106,0.0427 -0.10583,0.0427 -0.11642,0 -0.16404,-0.0192 -0.10583,-0.0427 z m 8.30262,-0.002 c 0.0611,-0.0245 0.13414,-0.0215 0.16228,0.007 0.0281,0.0281 -0.0219,0.0481 -0.11113,0.0445 -0.0986,-0.004 -0.11869,-0.0241 -0.0512,-0.0511 z m 10.57804,0.002 c 0.0582,-0.0235 0.15346,-0.0235 0.21167,0 0.0582,0.0235 0.0106,0.0427 -0.10583,0.0427 -0.11642,0 -0.16405,-0.0192 -0.10584,-0.0427 z m 6.39395,-0.003 c 0.0824,-0.0215 0.19668,-0.02 0.254,0.003 0.0573,0.0232 -0.0101,0.0408 -0.14978,0.039 -0.1397,-0.002 -0.1866,-0.0207 -0.10422,-0.0422 z m -21.54399,-2.96249 c 0.0611,-0.0245 0.13414,-0.0214 0.16228,0.007 0.0281,0.0281 -0.0219,0.0481 -0.11113,0.0445 -0.0986,-0.004 -0.11869,-0.0241 -0.0512,-0.0512 z m -6.41879,-5.40317 c 0.15797,-0.16298 0.30627,-0.29633 0.32955,-0.29633 0.0233,0 -0.0869,0.13335 -0.24489,0.29633 -0.15796,0.16299 -0.30626,0.29634 -0.32955,0.29634 -0.0233,0 0.0869,-0.13335 0.24489,-0.29634 z m 11.26735,-0.76905 c 0.004,-0.0986 0.0241,-0.1187 0.0511,-0.0511 0.0245,0.0611 0.0215,0.13414 -0.007,0.16227 -0.0281,0.0281 -0.0482,-0.0219 -0.0445,-0.11112 z m 1.00932,-0.57525 c 0,-0.0176 0.0667,-0.0842 0.14816,-0.14816 0.13429,-0.10532 0.13728,-0.10232 0.032,0.032 -0.11061,0.14104 -0.18013,0.18589 -0.18013,0.1162 z m -1.08103,-0.89936 c 0,-0.16299 0.0174,-0.22966 0.0387,-0.14817 0.0213,0.0815 0.0213,0.21484 0,0.29633 -0.0213,0.0815 -0.0387,0.0148 -0.0387,-0.14816 z m 1.92769,-0.032 c 0,-0.0176 0.0667,-0.0843 0.14817,-0.14817 0.13428,-0.10531 0.13728,-0.10232 0.032,0.032 -0.11061,0.14103 -0.18014,0.18588 -0.18014,0.1162 z m 1.60867,-1.778 c 0,-0.0176 0.0667,-0.0843 0.14817,-0.14817 0.13428,-0.10531 0.13728,-0.10232 0.032,0.032 -0.1106,0.14103 -0.18013,0.18588 -0.18013,0.1162 z m -3.53636,-0.89937 c 0,-0.16298 0.0174,-0.22965 0.0387,-0.14816 0.0213,0.0815 0.0213,0.21484 0,0.29633 -0.0213,0.0815 -0.0387,0.0148 -0.0387,-0.14817 z m 5.14503,-0.87863 c 0,-0.0176 0.0667,-0.0843 0.14816,-0.14817 0.13429,-0.10531 0.13728,-0.10232 0.032,0.032 -0.11061,0.14103 -0.18013,0.18588 -0.18013,0.1162 z m -5.07332,-0.61009 c 0.004,-0.0986 0.0241,-0.11869 0.0511,-0.0512 0.0245,0.0611 0.0215,0.13414 -0.007,0.16228 -0.0281,0.0281 -0.0482,-0.0219 -0.0445,-0.11113 z m 5.91998,-0.32124 c 0,-0.0176 0.0667,-0.0843 0.14817,-0.14817 0.13428,-0.10531 0.13728,-0.10232 0.032,0.032 -0.11061,0.14103 -0.18014,0.18588 -0.18014,0.1162 z m 1.60867,-1.778 c 0,-0.0176 0.0667,-0.0843 0.14817,-0.14817 0.13428,-0.10531 0.13728,-0.10232 0.032,0.032 -0.1106,0.14103 -0.18013,0.18588 -0.18013,0.1162 z m 1.60867,-1.778 c 0,-0.0176 0.0667,-0.0843 0.14816,-0.14817 0.13429,-0.10531 0.13728,-0.10232 0.032,0.032 -0.11061,0.14103 -0.18013,0.18588 -0.18013,0.1162 z m 0.84666,-0.93134 c 0,-0.0176 0.0667,-0.0842 0.14817,-0.14816 0.13428,-0.10532 0.13728,-0.10232 0.032,0.032 -0.11061,0.14104 -0.18014,0.18589 -0.18014,0.1162 z m 0.762,-0.84666 c 0,-0.0176 0.0667,-0.0843 0.14817,-0.14817 0.13428,-0.10531 0.13728,-0.10232 0.032,0.032 -0.11061,0.14103 -0.18014,0.18588 -0.18014,0.1162 z m 0.84667,-0.93134 c 0,-0.0176 0.0667,-0.0842 0.14817,-0.14816 0.13428,-0.10532 0.13728,-0.10232 0.032,0.032 -0.1106,0.14104 -0.18013,0.18589 -0.18013,0.1162 z m 1.60867,-1.778 c 0,-0.0176 0.0667,-0.0842 0.14816,-0.14816 0.13429,-0.10532 0.13728,-0.10232 0.032,0.032 -0.11061,0.14104 -0.18013,0.18589 -0.18013,0.1162 z m 1.60866,-1.778 c 0,-0.0176 0.0667,-0.0842 0.14817,-0.14816 0.13429,-0.10532 0.13728,-0.10232 0.032,0.032 -0.11061,0.14104 -0.18014,0.18589 -0.18014,0.1162 z m 0.84667,-0.93133 c 0,-0.0176 0.0667,-0.0843 0.14817,-0.14817 0.13428,-0.10531 0.13728,-0.10232 0.032,0.032 -0.1106,0.14103 -0.18013,0.18588 -0.18013,0.1162 z m -1.96321,-0.87254 c 0.0611,-0.0245 0.13414,-0.0215 0.16228,0.007 0.0281,0.0281 -0.0219,0.0481 -0.11113,0.0445 -0.0986,-0.004 -0.11869,-0.0241 -0.0512,-0.0512 z m 1.30821,-0.0876 c 0.1287,-0.0195 0.3192,-0.0189 0.42333,0.001 0.10413,0.0201 -0.001,0.036 -0.234,0.0354 -0.23283,-6.4e-4 -0.31803,-0.0171 -0.18933,-0.0365 z m 0.93178,0.002 c 0.0824,-0.0215 0.19668,-0.02 0.254,0.003 0.0573,0.0232 -0.0101,0.0408 -0.14978,0.039 -0.1397,-0.002 -0.1866,-0.0207 -0.10422,-0.0422 z"
         id="path7" /><path
         style="fill:#8db6dc"
         d="m 85.309068,168.01041 -0.42015,-0.4445 0.4445,0.42016 c 0.244475,0.23108 0.4445,0.4311 0.4445,0.4445 0,0.0632 -0.07844,-0.007 -0.46885,-0.42016 z m -1.780143,0.0847 -0.248674,-0.27517 0.275167,0.24868 c 0.151342,0.13677 0.275167,0.26059 0.275167,0.27517 0,0.0654 -0.06986,0.008 -0.30166,-0.24868 z m 16.208194,-3.429 c -0.105315,-0.13428 -0.10232,-0.13728 0.03197,-0.032 0.08149,0.0639 0.148167,0.13058 0.148167,0.14816 0,0.0697 -0.06953,0.0248 -0.180133,-0.1162 z m 24.394801,0.1162 c 0,-0.0176 0.0667,-0.0842 0.14817,-0.14816 0.13428,-0.10532 0.13728,-0.10232 0.032,0.032 -0.1106,0.14103 -0.18013,0.18589 -0.18013,0.1162 z m -28.580328,-5.66187 -0.248674,-0.27516 0.275167,0.24867 c 0.256494,0.2318 0.314084,0.30166 0.248674,0.30166 -0.01457,0 -0.138397,-0.12382 -0.275167,-0.27517 z m 2.159768,-0.29633 -0.291775,-0.3175 0.3175,0.29178 c 0.295522,0.27158 0.356429,0.34322 0.291775,0.34322 -0.01415,0 -0.157023,-0.14287 -0.3175,-0.3175 z m 26.29038,-0.97367 -0.42015,-0.4445 0.4445,0.42016 c 0.41303,0.39041 0.48332,0.46884 0.42015,0.46884 -0.0134,0 -0.21342,-0.20002 -0.4445,-0.4445 z m -25.227488,0.0212 c 0.08428,-0.0931 0.172294,-0.16933 0.195578,-0.16933 0.02328,0 -0.02663,0.0762 -0.110912,0.16933 -0.08428,0.0931 -0.172294,0.16933 -0.195578,0.16933 -0.02328,0 0.02663,-0.0762 0.110912,-0.16933 z m 29.125338,-1.27 c 0.22933,-0.23283 0.43601,-0.42333 0.4593,-0.42333 0.0233,0 -0.14531,0.1905 -0.37464,0.42333 -0.22933,0.23283 -0.43602,0.42333 -0.4593,0.42333 -0.0233,0 0.1453,-0.1905 0.37464,-0.42333 z m -3.05333,-0.35983 -0.24867,-0.27517 0.27516,0.24867 c 0.15134,0.13678 0.27517,0.2606 0.27517,0.27517 0,0.0654 -0.0699,0.008 -0.30166,-0.24867 z m 1.23299,-0.27517 c 0.15797,-0.16298 0.30627,-0.29633 0.32955,-0.29633 0.0233,0 -0.0869,0.13335 -0.24488,0.29633 -0.15797,0.16298 -0.30627,0.29633 -0.32955,0.29633 -0.0233,0 0.0869,-0.13335 0.24488,-0.29633 z m -44.788666,-0.8363 c 0,-0.0176 0.06668,-0.0842 0.148167,-0.14817 0.134286,-0.10531 0.137281,-0.10231 0.03197,0.032 -0.110605,0.14103 -0.180133,0.18589 -0.180133,0.1162 z m 32.935336,-12.36133 c 0,-0.0176 0.0667,-0.0843 0.14817,-0.14817 0.13428,-0.10531 0.13728,-0.10232 0.032,0.032 -0.1106,0.14103 -0.18013,0.18588 -0.18013,0.1162 z m 4.064,-4.48734 c 0,-0.0176 0.0667,-0.0842 0.14817,-0.14816 0.13428,-0.10532 0.13728,-0.10232 0.032,0.032 -0.1106,0.14104 -0.18013,0.18589 -0.18013,0.1162 z"
         id="path6" /><path
         style="fill:#fde736"
         d="m 93.772176,145.4981 c -3.04421,-1.79294 -6.454576,-4.00659 -9.800049,-6.36116 -1.822901,-1.28297 -2.157946,-1.54414 -2.080531,-1.62178 0.0866,-0.0868 16.703136,4.95713 16.822933,5.10663 0.24186,0.30183 -0.125056,1.3018 -0.752759,2.05152 -0.427401,0.51049 -1.218499,1.10901 -1.958197,1.48151 -0.313185,0.15772 -0.582938,0.28676 -0.59945,0.28676 -0.01651,0 -0.750888,-0.42456 -1.631947,-0.94348 z"
         id="path5" /><path
         style="fill:#70a4d4"
         d="m 85.418085,169.58418 c 0.05821,-0.0235 0.153458,-0.0235 0.211666,0 0.05821,0.0235 0.01058,0.0427 -0.105833,0.0427 -0.116417,0 -0.164042,-0.0192 -0.105833,-0.0427 z m 4.363424,-0.007 c 0.269459,-0.0168 0.688559,-0.0167 0.931334,3.5e-4 0.242775,0.017 0.02231,0.0308 -0.489925,0.0306 -0.512233,-1.9e-4 -0.710867,-0.0141 -0.441409,-0.031 z m 14.224001,0 c 0.26946,-0.0168 0.68856,-0.0167 0.93133,3.5e-4 0.24278,0.017 0.0223,0.0308 -0.48992,0.0306 -0.51223,-1.9e-4 -0.71087,-0.0141 -0.44141,-0.031 z m 15.70258,0.007 c 0.0582,-0.0235 0.15345,-0.0235 0.21166,0 0.0582,0.0235 0.0106,0.0427 -0.10583,0.0427 -0.11642,0 -0.16404,-0.0192 -0.10583,-0.0427 z m 9.29216,-0.45193 c 0.0843,-0.0931 0.1723,-0.16934 0.19558,-0.16934 0.0233,0 -0.0266,0.0762 -0.11091,0.16934 -0.0843,0.0931 -0.1723,0.16933 -0.19558,0.16933 -0.0233,0 0.0266,-0.0762 0.11091,-0.16933 z m -41.579376,-0.27517 -0.161289,-0.1905 0.1905,0.16129 c 0.104775,0.0887 0.1905,0.17443 0.1905,0.1905 0,0.0678 -0.06814,0.0177 -0.219711,-0.16129 z m 14.223996,0 -0.16128,-0.1905 0.1905,0.16129 c 0.17902,0.15157 0.22904,0.21971 0.16128,0.21971 -0.0161,0 -0.10179,-0.0857 -0.1905,-0.1905 z m -17.564843,-0.21167 -0.291776,-0.3175 0.3175,0.29178 c 0.174625,0.16048 0.3175,0.30335 0.3175,0.3175 0,0.0647 -0.07165,0.004 -0.343224,-0.29178 z m 32.299363,-2.30716 c 0,-1.18745 0.0119,-1.67323 0.0265,-1.0795 0.0145,0.59372 0.0145,1.56527 0,2.159 -0.0146,0.59372 -0.0265,0.10795 -0.0265,-1.0795 z m -19.954638,1.96892 c 0.430741,-0.0154 1.135591,-0.0154 1.566333,0 0.430742,0.0154 0.07832,0.0279 -0.783167,0.0279 -0.861483,0 -1.213908,-0.0126 -0.783166,-0.0279 z m 15.549988,-1.37626 c 0,-0.81491 0.0127,-1.14829 0.0282,-0.74083 0.0155,0.40746 0.0155,1.07421 0,1.48167 -0.0155,0.40746 -0.0282,0.0741 -0.0282,-0.74084 z m 13.66001,1.37626 c 0.43074,-0.0154 1.13559,-0.0154 1.56634,0 0.43074,0.0154 0.0783,0.0279 -0.78317,0.0279 -0.86148,0 -1.21391,-0.0126 -0.78317,-0.0279 z m -43.476332,-0.7606 c 0.174625,-0.0183 0.460375,-0.0183 0.635,0 0.174625,0.0183 0.03175,0.0332 -0.3175,0.0332 -0.34925,0 -0.492125,-0.0149 -0.3175,-0.0332 z m 14.266334,-0.001 c 0.430741,-0.0154 1.135591,-0.0154 1.566333,0 0.430742,0.0154 0.07832,0.0279 -0.783167,0.0279 -0.861483,0 -1.213908,-0.0126 -0.783166,-0.0279 z m 29.552688,2e-5 c 0.38639,-0.0157 0.99599,-0.0156 1.35467,2e-4 0.35868,0.0158 0.0425,0.0287 -0.70252,0.0286 -0.74507,-1.1e-4 -1.03854,-0.0131 -0.65215,-0.0288 z m -32.301306,-0.65661 c 6.36e-4,-0.23283 0.01708,-0.31803 0.03654,-0.18933 0.01946,0.12869 0.01894,0.31919 -0.0012,0.42333 -0.0201,0.10413 -0.03602,-0.001 -0.03538,-0.234 z m 8.703136,0.24695 c 0.004,-0.0986 0.0241,-0.1187 0.0511,-0.0512 0.0245,0.0611 0.0215,0.13415 -0.007,0.16228 -0.0281,0.0281 -0.0481,-0.0219 -0.0445,-0.11112 z m 5.50333,0 c 0.004,-0.0986 0.0241,-0.1187 0.0512,-0.0512 0.0244,0.0611 0.0214,0.13415 -0.007,0.16228 -0.0281,0.0281 -0.0481,-0.0219 -0.0445,-0.11112 z m -22.104682,0.0174 c 0,-0.0176 0.06668,-0.0843 0.148167,-0.14817 0.134286,-0.10531 0.13728,-0.10232 0.03197,0.032 -0.110606,0.14103 -0.180133,0.18588 -0.180133,0.1162 z m 32.872022,-0.26437 c 9.4e-4,-0.18627 0.0183,-0.2525 0.0385,-0.14718 0.0203,0.10532 0.0195,0.25772 -0.002,0.33867 -0.0212,0.081 -0.0378,-0.005 -0.0368,-0.19149 z m -16.27067,-0.26105 c 0.004,-0.0986 0.0241,-0.1187 0.0511,-0.0512 0.0245,0.0611 0.0215,0.13415 -0.007,0.16228 -0.0281,0.0281 -0.0481,-0.0219 -0.0445,-0.11112 z m 5.50333,0 c 0.004,-0.0986 0.0241,-0.1187 0.0512,-0.0512 0.0244,0.0611 0.0214,0.13415 -0.007,0.16228 -0.0281,0.0281 -0.0481,-0.0219 -0.0445,-0.11112 z m -7.62,-0.762 c 0.004,-0.0986 0.0241,-0.1187 0.0512,-0.0512 0.0245,0.0611 0.0215,0.13415 -0.007,0.16228 -0.0281,0.0281 -0.0481,-0.0219 -0.0445,-0.11112 z m 19.70478,-0.34712 c 0.0611,-0.0245 0.13414,-0.0214 0.16227,0.007 0.0281,0.0281 -0.0219,0.0481 -0.11112,0.0445 -0.0986,-0.004 -0.11869,-0.0241 -0.0511,-0.0512 z m 9.15987,-0.22813 c 0,-0.0176 0.0667,-0.0842 0.14817,-0.14816 0.13429,-0.10532 0.13728,-0.10232 0.032,0.032 -0.11061,0.14103 -0.18014,0.18589 -0.18014,0.1162 z m -22.01333,-4.318 c 0,-0.0176 0.0667,-0.0843 0.14817,-0.14816 0.13428,-0.10532 0.13728,-0.10232 0.032,0.032 -0.1106,0.14103 -0.18013,0.18589 -0.18013,0.1162 z m 18.71133,-0.0847 c 0,-0.0176 0.0667,-0.0843 0.14817,-0.14817 0.13429,-0.10532 0.13728,-0.10232 0.032,0.032 -0.11061,0.14104 -0.18014,0.18589 -0.18014,0.11621 z m 1.29306,-0.30671 c 0,-0.20955 0.0165,-0.29527 0.0367,-0.1905 0.0202,0.10478 0.0202,0.27623 0,0.381 -0.0202,0.10478 -0.0367,0.019 -0.0367,-0.1905 z m -0.0432,-0.48321 c 0.10532,-0.0203 0.25772,-0.0195 0.33867,0.002 0.081,0.0212 -0.005,0.0378 -0.19149,0.0368 -0.18626,-9.4e-4 -0.2525,-0.0183 -0.14718,-0.0385 z m -31.015478,-0.46929 -0.248674,-0.27516 0.275167,0.24867 c 0.151342,0.13677 0.275167,0.2606 0.275167,0.27517 0,0.0654 -0.06986,0.008 -0.30166,-0.24868 z m -2.65499,0.0564 c 0.0041,-0.0986 0.02412,-0.1187 0.05115,-0.0511 0.02446,0.0611 0.02145,0.13414 -0.0067,0.16227 -0.02813,0.0281 -0.04815,-0.0219 -0.04447,-0.11112 z m 32.935338,0 c 0.004,-0.0986 0.0241,-0.1187 0.0512,-0.0511 0.0245,0.0611 0.0215,0.13414 -0.007,0.16227 -0.0281,0.0281 -0.0482,-0.0219 -0.0445,-0.11112 z m -44.00489,-0.54328 c 0,-0.34925 0.01495,-0.49212 0.03321,-0.3175 0.01827,0.17463 0.01827,0.46038 0,0.635 -0.01827,0.17463 -0.03321,0.0317 -0.03321,-0.3175 z m 22.22256,0.36005 c 0.57311,-0.0147 1.48751,-0.0146 2.032,10e-5 0.54449,0.0147 0.0756,0.0267 -1.04202,0.0267 -1.1176,-5e-5 -1.56309,-0.0121 -0.98998,-0.0268 z m 22.41064,-1.96872 c 0.27649,-0.2794 0.52175,-0.508 0.54503,-0.508 0.0233,0 -0.18388,0.2286 -0.46036,0.508 -0.27649,0.2794 -0.52175,0.508 -0.54503,0.508 -0.0233,0 0.18388,-0.2286 0.46036,-0.508 z m -43.243499,-0.74066 c 0.710142,-0.0142 1.872192,-0.0142 2.582334,0 0.710141,0.0142 0.129116,0.0258 -1.291167,0.0258 -1.420283,0 -2.001308,-0.0116 -1.291167,-0.0258 z m 10.668,1.3e-4 c 0.523876,-0.0149 1.381126,-0.0149 1.905001,0 0.523875,0.0148 0.09525,0.027 -0.9525,0.027 -1.047751,0 -1.476376,-0.0122 -0.952501,-0.027 z m 5.033006,-0.48713 c 0.0017,-0.1397 0.0207,-0.1866 0.04217,-0.10422 0.02147,0.0824 0.02005,0.19667 -0.0031,0.254 -0.02319,0.0573 -0.04076,-0.0101 -0.03903,-0.14978 z m 24.912503,-0.5715 -0.24867,-0.27517 0.27516,0.24867 c 0.15134,0.13678 0.27517,0.2606 0.27517,0.27517 0,0.0654 -0.0699,0.008 -0.30166,-0.24867 z m 2.37599,-0.40217 c 0.18189,-0.18627 0.34975,-0.33867 0.37303,-0.33867 0.0233,0 -0.10648,0.1524 -0.28836,0.33867 -0.18189,0.18627 -0.34975,0.33867 -0.37303,0.33867 -0.0233,0 0.10648,-0.1524 0.28836,-0.33867 z m -5.59604,-0.4445 -0.16129,-0.1905 0.1905,0.16129 c 0.17902,0.15157 0.22904,0.21971 0.16129,0.21971 -0.0161,0 -0.10179,-0.0857 -0.1905,-0.1905 z m -32.878274,-0.62089 c 0.0041,-0.0986 0.02412,-0.11869 0.05115,-0.0512 0.02446,0.0611 0.02145,0.13414 -0.0067,0.16228 -0.02813,0.0281 -0.04814,-0.0219 -0.04447,-0.11113 z M 83.81475,154.0887 c 0.06112,-0.0245 0.134143,-0.0215 0.162277,0.007 0.02813,0.0281 -0.02187,0.0481 -0.111125,0.0445 -0.09863,-0.004 -0.118694,-0.0241 -0.05115,-0.0511 z m 20.7429,-0.005 c 0.57311,-0.0147 1.48751,-0.0146 2.032,1e-4 0.54449,0.0147 0.0756,0.0267 -1.04202,0.0267 -1.1176,-5e-5 -1.56309,-0.0121 -0.98998,-0.0268 z m 8.16048,6e-5 c 0.59097,-0.0145 1.58157,-0.0146 2.20133,-9e-5 0.61976,0.0145 0.13623,0.0264 -1.0745,0.0264 -1.21073,5e-5 -1.71781,-0.0118 -1.12683,-0.0263 z m -5.54067,-2.95618 c 0.0582,-0.0235 0.15346,-0.0235 0.21167,0 0.0582,0.0235 0.0106,0.0427 -0.10584,0.0427 -0.11641,0 -0.16404,-0.0192 -0.10583,-0.0427 z m 1.02129,-0.002 c 0.0611,-0.0245 0.13414,-0.0214 0.16228,0.007 0.0281,0.0281 -0.0219,0.0481 -0.11113,0.0445 -0.0986,-0.004 -0.11869,-0.0241 -0.0511,-0.0512 z m 7.80521,-2.93747 c 0,-0.0176 0.0667,-0.0842 0.14817,-0.14816 0.13428,-0.10532 0.13728,-0.10232 0.032,0.032 -0.1106,0.14104 -0.18013,0.18589 -0.18013,0.1162 z m -4.21997,-3.52403 c 0,-0.11642 0.0192,-0.16404 0.0427,-0.10583 0.0235,0.0582 0.0235,0.15346 0,0.21166 -0.0235,0.0582 -0.0427,0.0106 -0.0427,-0.10583 z m 1.42597,-0.79397 c 0,-0.0176 0.0667,-0.0842 0.14817,-0.14816 0.13428,-0.10532 0.13728,-0.10232 0.032,0.032 -0.1106,0.14104 -0.18013,0.18589 -0.18013,0.1162 z m -1.49137,-1.74603 c 0,-0.58208 0.0135,-0.82021 0.0301,-0.52917 0.0165,0.29105 0.0165,0.7673 0,1.05834 -0.0165,0.29104 -0.0301,0.0529 -0.0301,-0.52917 z m 3.9467,-0.9633 c 0,-0.0176 0.0667,-0.0843 0.14817,-0.14817 0.13428,-0.10531 0.13728,-0.10232 0.032,0.032 -0.11061,0.14103 -0.18014,0.18588 -0.18014,0.1162 z m -14.02038,-1.2592 -0.16128,-0.1905 0.1905,0.16129 c 0.10477,0.0887 0.1905,0.17443 0.1905,0.1905 0,0.0678 -0.0681,0.0177 -0.21972,-0.16129 z m 10.13908,-0.3175 c 0,-0.11642 0.0192,-0.16404 0.0427,-0.10583 0.0235,0.0582 0.0235,0.15346 0,0.21166 -0.0235,0.0582 -0.0427,0.0106 -0.0427,-0.10583 z m 5.48997,-0.2013 c 0,-0.0176 0.0667,-0.0843 0.14817,-0.14817 0.13428,-0.10531 0.13728,-0.10232 0.032,0.032 -0.1106,0.14103 -0.18013,0.18588 -0.18013,0.1162 z m -15.24,-2.45533 c 0,-0.0176 0.0667,-0.0843 0.14817,-0.14817 0.13428,-0.10531 0.13728,-0.10232 0.032,0.032 -0.1106,0.14103 -0.18013,0.18588 -0.18013,0.1162 z m 17.69533,-0.254 c 0,-0.0176 0.0667,-0.0843 0.14817,-0.14817 0.13428,-0.10531 0.13728,-0.10232 0.032,0.032 -0.11061,0.14103 -0.18014,0.18588 -0.18014,0.1162 z m 1.60867,-1.778 c 0,-0.0176 0.0667,-0.0843 0.14817,-0.14817 0.13428,-0.10531 0.13728,-0.10232 0.032,0.032 -0.1106,0.14103 -0.18013,0.18588 -0.18013,0.1162 z m -14.224,-1.40737 c -0.0763,-0.0493 -0.0867,-0.0826 -0.0262,-0.0834 0.0555,-7.1e-4 0.12438,0.0368 0.15316,0.0834 0.065,0.10512 0.0357,0.10512 -0.127,0 z m 16.67933,-1.30197 c 0,-0.0176 0.0667,-0.0842 0.14817,-0.14816 0.13428,-0.10532 0.13728,-0.10232 0.032,0.032 -0.11061,0.14104 -0.18014,0.18589 -0.18014,0.1162 z m -8.89,-1.7037 c 0.15797,-0.16298 0.30627,-0.29633 0.32955,-0.29633 0.0233,0 -0.0869,0.13335 -0.24488,0.29633 -0.15797,0.16299 -0.30627,0.29634 -0.32955,0.29634 -0.0233,0 0.0869,-0.13335 0.24488,-0.29634 z m 10.49867,-0.0743 c 0,-0.0176 0.0667,-0.0842 0.14817,-0.14816 0.13428,-0.10532 0.13728,-0.10232 0.032,0.032 -0.1106,0.14104 -0.18013,0.18589 -0.18013,0.1162 z m 1.60867,-1.778 c 0,-0.0176 0.0667,-0.0843 0.14816,-0.14816 0.13429,-0.10532 0.13728,-0.10232 0.032,0.032 -0.11061,0.14104 -0.18013,0.18589 -0.18013,0.1162 z m -1.28588,-1.29587 c 0.0611,-0.0245 0.13414,-0.0215 0.16228,0.007 0.0281,0.0281 -0.0219,0.0481 -0.11113,0.0445 -0.0986,-0.004 -0.11869,-0.0241 -0.0511,-0.0512 z"
         id="path4" /><path
         style="fill:#3e84c6"
         d="m 95.578085,169.57697 c 0.617008,-0.0145 1.626658,-0.0145 2.243667,0 0.617008,0.0145 0.112183,0.0263 -1.121834,0.0263 -1.234016,0 -1.738841,-0.0118 -1.121833,-0.0263 z m 14.960535,-0.0444 c -0.0227,-0.0592 -0.0303,-0.98314 -0.0168,-2.05316 l 0.0245,-1.94551 0.0195,2.00378 c 0.0147,1.50884 0.0456,2.01433 0.12533,2.04649 0.0829,0.0334 0.0823,0.0442 -0.003,0.0494 -0.0597,0.004 -0.12708,-0.0418 -0.14981,-0.10098 z m 4.40273,1.6e-4 c -0.0227,-0.0591 -0.031,-1.02115 -0.0184,-2.13783 l 0.0229,-2.03033 0.0422,2.1379 c 0.0232,1.17584 0.0315,2.13787 0.0184,2.13783 -0.0131,-3e-5 -0.0424,-0.0484 -0.0651,-0.10757 z m 5.53205,0.0447 c 0.29287,-0.0166 0.75007,-0.0165 1.016,3e-4 0.26594,0.0168 0.0263,0.0303 -0.53248,0.0302 -0.5588,-1.7e-4 -0.77638,-0.0139 -0.48352,-0.0305 z m 4.35702,-5e-4 c 0.59372,-0.0145 1.56527,-0.0145 2.159,0 0.59372,0.0146 0.10795,0.0265 -1.0795,0.0265 -1.18745,0 -1.67323,-0.0119 -1.0795,-0.0265 z m -7.63448,-2.35679 c 0.004,-0.0986 0.0241,-0.11869 0.0512,-0.0512 0.0245,0.0611 0.0215,0.13414 -0.007,0.16228 -0.0281,0.0281 -0.0481,-0.0219 -0.0445,-0.11113 z m -24.96685,-0.33161 c 0.0017,-0.1397 0.0207,-0.1866 0.04217,-0.10422 0.02147,0.0824 0.02005,0.19668 -0.0031,0.254 -0.02319,0.0573 -0.04076,-0.0101 -0.03903,-0.14978 z m 14.224,0 c 0.002,-0.1397 0.0207,-0.1866 0.0422,-0.10422 0.0215,0.0824 0.02,0.19668 -0.003,0.254 -0.0232,0.0573 -0.0408,-0.0101 -0.039,-0.14978 z m 1.42951,-0.007 c 0.004,-0.0986 0.0241,-0.1187 0.0512,-0.0512 0.0244,0.0611 0.0214,0.13415 -0.007,0.16228 -0.0281,0.0281 -0.0481,-0.0219 -0.0445,-0.11112 z m -25.296692,-0.60638 c 0.409745,-0.0156 1.057445,-0.0155 1.439334,1.7e-4 0.381888,0.0157 0.04664,0.0284 -0.744991,0.0283 -0.791633,-9e-5 -1.104087,-0.0129 -0.694343,-0.0284 z m 43.514512,1.6e-4 c 0.36089,-0.0159 0.95144,-0.0159 1.31233,0 0.36089,0.0159 0.0656,0.0289 -0.65616,0.0289 -0.72179,0 -1.01706,-0.013 -0.65617,-0.0289 z m -7.70467,-4.99573 c 0.73343,-0.0141 1.93358,-0.0141 2.667,0 0.73343,0.0141 0.13335,0.0256 -1.3335,0.0256 -1.46685,0 -2.06692,-0.0115 -1.3335,-0.0256 z m -20.23372,-0.08 c 0.08238,-0.0215 0.196678,-0.02 0.254,0.003 0.05732,0.0232 -0.01008,0.0408 -0.149778,0.039 -0.1397,-0.002 -0.1866,-0.0207 -0.104222,-0.0422 z m 29.35656,-0.61245 c 0,-0.24543 -0.0388,-0.34259 -0.14817,-0.37118 -0.13886,-0.0363 -0.13869,-0.0393 0.003,-0.0485 0.0829,-0.005 0.17275,0.0473 0.19955,0.11718 0.0268,0.0699 0.11134,0.13001 0.18785,0.13369 0.0878,0.004 0.1001,0.0224 0.0333,0.0494 -0.0582,0.0235 -0.10583,0.13478 -0.10583,0.24732 0,0.11254 -0.0381,0.20461 -0.0847,0.20461 -0.0466,0 -0.0847,-0.1496 -0.0847,-0.33246 z m 0.68328,0.0996 c 0.003,-0.12806 0.0387,-0.30904 0.0787,-0.40217 0.0548,-0.12741 0.0742,-0.0698 0.0787,0.23283 0.003,0.2212 -0.0322,0.40217 -0.0787,0.40217 -0.0466,0 -0.082,-0.10477 -0.0787,-0.23283 z m -18.09559,-1.50284 c 3e-4,-0.37253 0.0152,-0.5144 0.0331,-0.31526 0.0179,0.19914 0.0176,0.50394 -5.5e-4,0.67734 -0.0182,0.17339 -0.0328,0.0105 -0.0325,-0.36208 z m -19.549194,-2.24366 c 0,-1.51342 0.01148,-2.13254 0.02551,-1.37584 0.01403,0.75671 0.01403,1.99496 0,2.75167 -0.01403,0.75671 -0.02551,0.13758 -0.02551,-1.37583 z m 28.109504,2.60158 c -0.0227,-0.0593 -0.0303,-0.96414 -0.0168,-2.01083 l 0.0245,-1.90309 0.0195,1.96723 0.0195,1.96722 2.4765,0.0238 2.4765,0.0238 -2.47916,0.0198 c -1.9433,0.0155 -2.48809,-0.003 -2.5205,-0.0879 z m -25.232382,-0.52725 0.006,-0.508 0.804334,-0.005 0.804333,-0.005 -0.779208,0.0296 -0.779207,0.0296 -0.03117,0.48371 -0.03117,0.48371 z m 32.928632,-0.127 c 0,-0.39582 0.0146,-0.55774 0.0324,-0.35983 0.0178,0.19791 0.0178,0.52176 0,0.71966 -0.0178,0.19791 -0.0324,0.036 -0.0324,-0.35983 z m -40.346797,-0.3965 c 0.06112,-0.0245 0.134144,-0.0215 0.162278,0.007 0.02813,0.0281 -0.02187,0.0481 -0.111125,0.0445 -0.09863,-0.004 -0.118694,-0.0241 -0.05115,-0.0511 z m 7.408111,-2.18583 c 4.75e-4,-0.2794 0.01628,-0.38349 0.03512,-0.23132 0.01884,0.15218 0.01845,0.38078 -8.64e-4,0.508 -0.01932,0.12723 -0.03474,0.003 -0.03426,-0.27668 z m -8.390774,-0.52837 c 0.312288,-0.0162 0.845688,-0.0164 1.185334,-2.4e-4 0.339645,0.0161 0.08414,0.0294 -0.567796,0.0295 -0.651933,1.3e-4 -0.929825,-0.0131 -0.617538,-0.0293 z m 0.0037,-1.6939 c 0.593725,-0.0145 1.565275,-0.0145 2.159,0 0.593725,0.0146 0.10795,0.0265 -1.0795,0.0265 -1.18745,0 -1.673225,-0.0119 -1.0795,-0.0265 z m 8.212666,-9e-5 c 0.779992,-0.014 2.056342,-0.014 2.836334,0 0.779992,0.014 0.141817,0.0254 -1.418167,0.0254 -1.559983,0 -2.198158,-0.0114 -1.418167,-0.0254 z m 14.350994,-2.95973 c 0.10478,-0.0202 0.27623,-0.0202 0.381,0 0.10478,0.0202 0.019,0.0367 -0.1905,0.0367 -0.20955,0 -0.29527,-0.0165 -0.1905,-0.0367 z m 4.17652,-6.76297 c 0.004,-0.0986 0.0241,-0.11869 0.0511,-0.0511 0.0245,0.0611 0.0215,0.13414 -0.007,0.16228 -0.0281,0.0281 -0.0482,-0.0219 -0.0445,-0.11113 z m 0,-4.48733 c 0.004,-0.0986 0.0241,-0.1187 0.0511,-0.0512 0.0245,0.0611 0.0215,0.13414 -0.007,0.16227 -0.0281,0.0281 -0.0482,-0.0219 -0.0445,-0.11112 z m 14.20144,-12.53912 c 0.0611,-0.0245 0.13414,-0.0215 0.16228,0.007 0.0281,0.0281 -0.0219,0.0481 -0.11113,0.0445 -0.0986,-0.004 -0.11869,-0.0241 -0.0511,-0.0512 z"
         id="path3" /><path
         style="fill:#2e7ac1"
         d="m 127.85725,160.71697 c 0,-0.0183 0.0591,-0.056 0.1314,-0.0837 0.0753,-0.0289 0.10933,-0.0147 0.0797,0.0333 -0.0497,0.0805 -0.21107,0.119 -0.21107,0.0504 z m -28.749658,-0.41122 -0.248674,-0.27517 0.275167,0.24868 c 0.256494,0.23179 0.314084,0.30165 0.248674,0.30165 -0.01457,0 -0.138396,-0.12382 -0.275167,-0.27516 z m -2.496898,-0.127 -0.291776,-0.3175 0.3175,0.29177 c 0.295522,0.27158 0.356429,0.34323 0.291776,0.34323 -0.01415,0 -0.157024,-0.14288 -0.3175,-0.3175 z m 4.142426,0.0847 c -0.10532,-0.13428 -0.10232,-0.13728 0.032,-0.032 0.14104,0.1106 0.18589,0.18013 0.11621,0.18013 -0.0176,0 -0.0843,-0.0667 -0.14817,-0.14817 z m -18.107869,-3.86313 c 0,-0.0176 0.06668,-0.0842 0.148167,-0.14817 0.134286,-0.10531 0.137281,-0.10231 0.03197,0.032 -0.110606,0.14103 -0.180133,0.18589 -0.180133,0.1162 z m 39.282889,-0.70887 -0.54789,-0.5715 0.5715,0.54789 c 0.31433,0.30134 0.5715,0.55852 0.5715,0.5715 0,0.0623 -0.0862,-0.017 -0.59511,-0.54789 z m 1.81745,-0.55033 -0.24867,-0.27517 0.27517,0.24868 c 0.15134,0.13677 0.27516,0.26059 0.27516,0.27516 0,0.0654 -0.0699,0.008 -0.30166,-0.24867 z m 5.678,-0.14817 c 0.0843,-0.0931 0.17229,-0.16933 0.19557,-0.16933 0.0233,0 -0.0266,0.0762 -0.11091,0.16933 -0.0843,0.0931 -0.17229,0.16934 -0.19558,0.16934 -0.0233,0 0.0266,-0.0762 0.11092,-0.16934 z m -2.32834,-0.032 c 0,-0.0176 0.0667,-0.0843 0.14817,-0.14817 0.13429,-0.10531 0.13728,-0.10232 0.032,0.032 -0.11061,0.14103 -0.18014,0.18588 -0.18014,0.1162 z m -13.29266,-11.76867 c 0,-0.0176 0.0667,-0.0843 0.14816,-0.14817 0.13429,-0.10531 0.13728,-0.10232 0.032,0.032 -0.11061,0.14103 -0.18013,0.18588 -0.18013,0.1162 z m 1.60866,-1.778 c 0,-0.0176 0.0667,-0.0843 0.14817,-0.14817 0.13428,-0.10531 0.13728,-0.10232 0.032,0.032 -0.11061,0.14103 -0.18014,0.18588 -0.18014,0.1162 z m 2.45534,-2.70933 c 0,-0.0176 0.0667,-0.0843 0.14816,-0.14817 0.13429,-0.10531 0.13728,-0.10232 0.032,0.032 -0.11061,0.14103 -0.18013,0.18588 -0.18013,0.1162 z m -16.21367,-1.40737 c 0.18188,-0.18627 0.34975,-0.33867 0.37303,-0.33867 0.0233,0 -0.10648,0.1524 -0.28836,0.33867 -0.18189,0.18627 -0.34975,0.33867 -0.37304,0.33867 -0.0233,0 0.10648,-0.1524 0.28837,-0.33867 z m 17.82233,-0.37063 c 0,-0.0176 0.0667,-0.0843 0.14817,-0.14817 0.13428,-0.10531 0.13728,-0.10232 0.032,0.032 -0.11061,0.14103 -0.18014,0.18588 -0.18014,0.1162 z m 1.60867,-1.778 c 0,-0.0176 0.0667,-0.0843 0.14817,-0.14817 0.13428,-0.10531 0.13728,-0.10232 0.032,0.032 -0.1106,0.14103 -0.18013,0.18588 -0.18013,0.1162 z m 2.45533,-2.70934 c 0,-0.0176 0.0667,-0.0842 0.14817,-0.14816 0.13428,-0.10532 0.13728,-0.10232 0.032,0.032 -0.11061,0.14104 -0.18014,0.18589 -0.18014,0.1162 z m 1.60867,-1.778 c 0,-0.0176 0.0667,-0.0842 0.14817,-0.14816 0.13428,-0.10532 0.13728,-0.10232 0.032,0.032 -0.1106,0.14104 -0.18013,0.18589 -0.18013,0.1162 z m 2.45533,-2.70933 c 0,-0.0176 0.0667,-0.0843 0.14817,-0.14817 0.13429,-0.10531 0.13728,-0.10232 0.032,0.032 -0.11061,0.14103 -0.18014,0.18588 -0.18014,0.1162 z"
         id="path2" /><path
         style="fill:#005cb3"
         d="m 80.443918,166.98362 c 0,-2.10929 0.02146,-2.58979 0.119315,-2.67099 0.08618,-0.0715 0.73875,-0.092 2.3495,-0.0739 2.523389,0.0285 2.675958,0.0617 3.124885,0.68146 0.642458,0.88689 0.264393,2.11044 -0.771506,2.49686 l -0.416504,0.15537 0.760488,0.75697 c 0.418269,0.41633 0.760489,0.78323 0.760489,0.81532 0,0.12496 -0.584306,0.41084 -0.839698,0.41084 -0.414061,0 -0.654643,-0.16947 -1.614123,-1.13703 l -0.887487,-0.89497 h -0.560589 -0.56059 l -0.05389,0.63753 c -0.02964,0.35064 -0.109752,0.74556 -0.178027,0.87758 -0.143775,0.27804 -0.591967,0.51689 -0.969891,0.51689 h -0.262371 z m 4.417167,-0.78549 c 0.176873,-0.16007 0.202855,-0.45533 0.05323,-0.60495 -0.07119,-0.0712 -0.539985,-0.1016 -1.566333,-0.1016 h -1.464734 v 0.42333 0.42334 h 1.4115 c 1.194601,0 1.435293,-0.0215 1.566334,-0.14012 z m 3.630929,3.22653 c -1.109269,-0.30808 -1.713553,-1.19974 -1.72574,-2.54646 -0.0055,-0.61146 0.02424,-0.74959 0.268532,-1.24582 0.316156,-0.6422 0.710385,-1.0057 1.322763,-1.21963 0.343889,-0.12014 0.711649,-0.14879 1.907682,-0.14862 1.417794,2.1e-4 1.501742,0.01 1.947334,0.21958 0.901007,0.42442 1.354309,1.12679 1.420111,2.2004 0.07461,1.21736 -0.391684,2.13704 -1.312879,2.58939 -0.471307,0.23144 -0.538129,0.24043 -1.927566,0.25946 -1.075072,0.0147 -1.555977,-0.0127 -1.900237,-0.1083 z m 3.270046,-1.35836 c 0.345058,-0.25562 0.487209,-0.59978 0.486438,-1.17772 -8.14e-4,-0.60993 -0.181736,-0.99478 -0.566513,-1.20507 -0.226512,-0.12379 -0.488096,-0.1496 -1.516358,-0.1496 -1.123451,0 -1.26555,0.0168 -1.481667,0.17536 -0.512155,0.37569 -0.700504,1.31374 -0.393632,1.96042 0.244269,0.51476 0.617924,0.62451 2.032399,0.59695 1.063468,-0.0207 1.227736,-0.0436 1.439333,-0.20034 z m 2.538969,1.43284 c -0.03104,-0.0311 -0.05644,-1.18843 -0.05644,-2.57197 0,-2.07298 0.02121,-2.53312 0.120557,-2.61557 0.08804,-0.0731 0.748464,-0.093 2.448254,-0.0739 l 2.327697,0.0262 0.366913,0.25514 c 0.65976,0.45876 0.90585,1.25171 0.61446,1.97996 -0.122756,0.30681 -0.12207,0.35088 0.009,0.55033 0.51075,0.77951 0.20224,1.90867 -0.6387,2.33769 -0.306898,0.15657 -0.501186,0.16855 -2.73265,0.16855 -1.321244,0 -2.427662,-0.0254 -2.458707,-0.0564 z m 4.614723,-1.26901 c 0.192124,-0.17387 0.196833,-0.35047 0.01471,-0.55172 -0.126048,-0.13928 -0.296134,-0.15483 -1.693334,-0.15483 h -1.553211 v 0.42333 0.42334 h 1.5385 c 1.312776,0 1.561217,-0.0206 1.693334,-0.14012 z m -0.1161,-2.07815 c 0.05588,-0.0559 0.1016,-0.18161 0.1016,-0.2794 0,-0.35228 -0.128892,-0.381 -1.710267,-0.381 h -1.507067 v 0.381 0.381 h 1.507067 c 1.059274,0 1.537255,-0.0302 1.608667,-0.1016 z m 4.058448,3.31555 c -0.80283,-0.1994 -1.2776,-0.6028 -1.64019,-1.39362 -0.19309,-0.42113 -0.233,-0.6256 -0.23339,-1.19571 -4.1e-4,-0.6051 0.0325,-0.75476 0.27429,-1.24582 0.31615,-0.6422 0.71038,-1.0057 1.32276,-1.21963 0.34389,-0.12014 0.71165,-0.14879 1.90768,-0.14862 1.41779,2.1e-4 1.50174,0.01 1.94734,0.21958 0.907,0.42725 1.36013,1.12652 1.42194,2.19436 0.0711,1.22792 -0.36988,2.10832 -1.2924,2.5803 -0.49124,0.25133 -0.51829,0.25511 -1.94369,0.27161 -0.79504,0.009 -1.58899,-0.0189 -1.76434,-0.0624 z m 3.09443,-1.37363 c 0.39001,-0.25581 0.51692,-0.53738 0.5193,-1.1522 0.003,-0.66544 -0.16563,-1.03946 -0.56584,-1.25819 -0.22652,-0.12379 -0.4881,-0.1496 -1.51636,-0.1496 -1.12345,0 -1.26555,0.0168 -1.48167,0.17536 -0.40127,0.29435 -0.55097,0.67763 -0.51104,1.30833 0.0691,1.09027 0.39946,1.28325 2.13863,1.24904 0.96632,-0.019 1.23198,-0.0514 1.41698,-0.17274 z m 4.63272,-0.57032 v -2.032 h -1.18533 -1.18533 v -0.28984 c 0,-0.37696 0.33575,-0.77852 0.74627,-0.89254 0.18158,-0.0504 1.40222,-0.0869 2.9194,-0.0872 l 2.60733,-4.7e-4 -0.0539,0.3175 c -0.12395,0.72977 -0.50404,0.94036 -1.71058,0.94772 l -0.78317,0.005 v 1.56905 c 0,1.76698 -0.062,2.04171 -0.52407,2.32345 -0.15415,0.094 -0.40409,0.17101 -0.55543,0.17119 l -0.27517,3.1e-4 z m 4.40267,-0.20472 c 0,-1.85363 0.023,-2.30359 0.12843,-2.50738 0.14456,-0.27954 0.44021,-0.45526 0.90874,-0.54009 l 0.3175,-0.0575 -0.001,2.26867 c -9e-4,1.63205 -0.0306,2.32577 -0.10584,2.47217 -0.15527,0.30214 -0.49791,0.52258 -0.89508,0.57585 l -0.3525,0.0473 z m 3.96414,2.12115 c -1.02938,-0.28376 -1.68402,-1.23431 -1.69886,-2.46676 -0.0179,-1.48667 0.71972,-2.42128 2.10069,-2.66177 0.28393,-0.0494 1.24956,-0.0899 2.14586,-0.0899 h 1.62962 l -0.0592,0.27517 c -0.0873,0.40531 -0.26959,0.72192 -0.48424,0.84101 -0.1193,0.0662 -0.72345,0.12228 -1.62896,0.15125 -1.23918,0.0396 -1.48054,0.0699 -1.73567,0.21769 -0.44406,0.2572 -0.61065,0.64254 -0.5681,1.31402 0.0721,1.13848 0.34008,1.26486 2.68149,1.26486 0.92764,0 1.70558,0.0307 1.72875,0.0682 0.0882,0.14277 -0.11426,0.72977 -0.32428,0.93999 -0.21893,0.21913 -0.22197,0.21953 -1.80508,0.23749 -1.08525,0.0123 -1.71083,-0.0165 -1.98197,-0.0912 z m 4.84119,-0.0584 c 0,-0.3264 0.25861,-0.74029 0.54851,-0.87786 0.22642,-0.10744 0.60451,-0.13354 1.93474,-0.13354 1.75612,0 1.91942,-0.036 1.91942,-0.42334 0,-0.37724 -0.18146,-0.42322 -1.67822,-0.42519 -1.1866,-0.002 -1.46676,-0.0267 -1.75428,-0.15728 -1.22621,-0.55699 -1.27461,-2.30036 -0.0812,-2.92365 0.31493,-0.16448 0.49826,-0.17864 2.61518,-0.20199 l 2.27651,-0.0251 -0.0477,0.35554 c -0.061,0.45506 -0.35334,0.75079 -0.83386,0.84361 -0.20321,0.0393 -1.03813,0.073 -1.85537,0.0751 -1.56128,0.004 -1.6891,0.0333 -1.6891,0.3885 0,0.40004 0.18733,0.44879 1.83442,0.47745 l 1.53707,0.0267 0.32509,0.26298 c 0.47544,0.3846 0.66093,0.75039 0.66093,1.30335 0,0.55303 -0.18553,0.91883 -0.66104,1.30336 l -0.32519,0.26298 -2.36297,0.0249 -2.36298,0.0249 z m -43.331794,-10.3882 c 0.02768,-2.1018 0.04331,-2.29835 0.217208,-2.7305 0.37336,-0.92784 1.140847,-1.6632 2.050092,-1.96425 0.190512,-0.0631 1.238166,-0.11021 2.91327,-0.13105 l 2.615776,-0.0325 -0.0545,0.39758 c -0.02997,0.21867 -0.131478,0.52215 -0.225568,0.67439 -0.27277,0.44135 -0.662978,0.54778 -2.011034,0.54853 -2.088397,0.001 -3.014408,0.19768 -3.350854,0.71117 -0.07696,0.11746 -0.139933,0.253 -0.139933,0.30121 0,0.0585 0.858711,0.0876 2.582333,0.0876 h 2.582334 l -0.0019,0.27517 c -0.0035,0.51282 -0.27568,0.94998 -0.729372,1.17131 -0.39274,0.19159 -0.508603,0.20237 -2.507268,0.23333 l -2.0955,0.0325 v 0.67921 c 0,0.37356 -0.04468,0.82833 -0.09929,1.0106 -0.133548,0.44574 -0.547635,0.79254 -1.083539,0.90747 -0.759961,0.16299 -0.695819,0.37331 -0.662303,-2.17172 z m 8.251573,2.20839 c -0.08601,-0.086 -0.06332,-5.52681 0.02462,-5.906 0.150352,-0.64827 0.598932,-1.01047 1.384887,-1.11819 l 0.396713,-0.0544 v 2.9119 c 0,1.64901 -0.036,3.03742 -0.083,3.2013 -0.04565,0.15917 -0.186985,0.39794 -0.31408,0.5306 -0.302481,0.31572 -1.239185,0.60473 -1.409143,0.43477 z m 2.865822,-0.0128 c -0.02398,-0.024 -0.0436,-1.57268 -0.0436,-3.44156 0,-2.52996 0.02595,-3.42391 0.1016,-3.49955 0.07523,-0.0752 0.885911,-0.1016 3.122999,-0.1016 h 3.021398 l 0.452621,0.23645 c 1.458142,0.76174 1.580316,2.80084 0.222522,3.71392 -0.218677,0.14705 -0.551191,0.29332 -0.73892,0.32503 l -0.341327,0.0577 1.016554,1.06347 c 0.559104,0.58491 1.016554,1.08736 1.016554,1.11655 0,0.0292 -0.160027,0.15684 -0.355615,0.28366 -0.406709,0.26371 -1.019517,0.31191 -1.408466,0.11078 -0.127419,-0.0659 -0.782091,-0.6768 -1.454826,-1.35758 l -1.223156,-1.23779 -0.763469,0.0241 -0.763469,0.0241 -0.04653,0.90958 c -0.05112,0.99925 -0.151724,1.23424 -0.654502,1.52869 -0.261692,0.15326 -1.079228,0.32525 -1.160369,0.24411 z m 5.883067,-4.50271 c 0.230099,-0.2301 0.220634,-0.6318 -0.01884,-0.79953 -0.156939,-0.10993 -0.508258,-0.13181 -2.116666,-0.13181 h -1.928495 v 0.55034 0.55033 h 1.947334 c 1.834444,0 1.957149,-0.01 2.116667,-0.16933 z m 5.282112,4.49101 c -0.79755,-0.12348 -1.28476,-0.33835 -1.76738,-0.77944 -1.769955,-1.61764 -1.400154,-4.8846 0.66341,-5.86082 0.681,-0.32217 1.32904,-0.38941 3.75936,-0.39011 l 2.2225,-6.4e-4 -0.002,0.27516 c -0.003,0.48687 -0.28416,0.96434 -0.69028,1.17349 -0.33298,0.17147 -0.53132,0.1935 -2.18653,0.24291 -2.0069,0.0599 -2.24966,0.1139 -2.64978,0.58942 -0.12589,0.14961 -0.22888,0.30719 -0.22888,0.35018 0,0.0461 1.04382,0.0782 2.54,0.0782 h 2.54 v 0.27839 c 0,0.44661 -0.33155,0.99869 -0.71967,1.19837 -0.30827,0.1586 -0.51916,0.17684 -2.3495,0.20321 -1.10596,0.0159 -2.01083,0.0606 -2.01083,0.0993 0,0.16554 0.45058,0.58477 0.78285,0.72838 0.31392,0.13569 0.65627,0.1594 2.66731,0.18471 l 2.30717,0.0291 v 0.27234 c 0,0.40634 -0.33492,0.99737 -0.67733,1.19527 -0.26856,0.15522 -0.45906,0.1726 -2.032,0.18546 -0.95462,0.008 -1.93047,-0.016 -2.16856,-0.0528 z m 5.53352,0.0311 c -0.11795,-0.11795 -0.0687,-3.76143 0.059,-4.36384 0.21576,-1.01792 0.72554,-1.76615 1.52085,-2.23224 0.65747,-0.3853 1.30514,-0.46291 3.87638,-0.46452 l 2.34418,-10e-4 -0.0464,0.3175 c -0.0639,0.43812 -0.28348,0.86968 -0.53613,1.05394 -0.31046,0.22641 -1.05834,0.32085 -2.54534,0.3214 -1.57858,5.9e-4 -2.04887,0.10743 -2.44157,0.55468 -0.14408,0.16411 -0.26196,0.33459 -0.26196,0.37887 0,0.0487 1.02988,0.0893 2.6035,0.10288 l 2.6035,0.0224 -0.0283,0.33867 c -0.0423,0.50677 -0.2598,0.81986 -0.73514,1.05833 -0.41054,0.20596 -0.47843,0.21242 -2.51742,0.23935 l -2.0955,0.0277 -0.002,0.77666 c -0.002,0.97771 -0.17184,1.40872 -0.64993,1.65262 -0.36189,0.18462 -1.05021,0.3148 -1.14791,0.2171 z m 8.57768,-0.11073 c -0.0583,-0.109 -0.0893,-1.33252 -0.0893,-3.52755 v -3.36067 l 0.40904,0.0393 c 0.51202,0.0492 1.00892,0.29115 1.23649,0.60205 0.16345,0.2233 0.17755,0.38554 0.21714,2.49767 l 0.0423,2.25886 2.52945,0.0224 2.52945,0.0224 -0.0573,0.35813 c -0.0707,0.44205 -0.27057,0.79381 -0.58387,1.02747 -0.23058,0.17197 -0.34183,0.17903 -3.19153,0.20246 -2.86441,0.0236 -2.95528,0.0193 -3.04192,-0.1426 z m 7.61536,-1.3475 v -1.50816 l -0.26207,-0.24867 c -0.14414,-0.13678 -0.91071,-0.92507 -1.70348,-1.75177 -1.58555,-1.6534 -1.55898,-1.59642 -0.90099,-1.9321 0.38907,-0.19849 0.75755,-0.20762 1.13576,-0.0282 0.15646,0.0743 0.80828,0.66486 1.44848,1.31246 l 1.16401,1.17746 1.23131,-1.21683 c 1.29654,-1.28131 1.59775,-1.47382 2.16259,-1.38216 0.33501,0.0544 0.88655,0.39636 0.888,0.55062 5.8e-4,0.061 -0.7419,0.8645 -1.64995,1.7856 l -1.651,1.67471 v 0.88197 c 0,1.02851 -0.0799,1.37087 -0.39708,1.70196 -0.2272,0.23715 -0.8837,0.49122 -1.26928,0.49122 h -0.1963 z m 2.73354,0.78849 c 6.4e-4,-0.23283 0.0171,-0.31803 0.0365,-0.18933 0.0195,0.12869 0.019,0.31919 -10e-4,0.42333 -0.0201,0.10413 -0.036,-0.001 -0.0354,-0.234 z m 0.45557,-0.18344 c -0.0311,-0.031 -0.0564,-0.0958 -0.0564,-0.14394 0,-0.053 0.0394,-0.048 0.10019,0.0127 0.0551,0.0551 0.0805,0.11988 0.0564,0.14394 -0.0241,0.0241 -0.0691,0.0183 -0.10019,-0.0127 z m 0.45155,-0.0182 c 0,-0.0466 0.0381,-0.10822 0.0847,-0.137 0.0466,-0.0288 0.0847,-0.0142 0.0847,0.0323 0,0.0466 -0.0381,0.10822 -0.0847,0.137 -0.0466,0.0288 -0.0847,0.0142 -0.0847,-0.0323 z m -22.30966,-9.44388 c -1.10183,-0.2297 -2.86391,-0.8069 -4.30123,-1.40895 -1.58314,-0.66313 -3.994029,-1.85231 -3.905644,-1.92648 0.04338,-0.0364 0.307469,-0.15585 0.586869,-0.26546 0.91766,-0.35998 1.670465,-0.85515 2.375965,-1.56282 0.75452,-0.75684 1.05516,-1.28719 1.06711,-1.88243 0.007,-0.36802 0.0155,-0.37959 0.22963,-0.32646 0.6537,0.16221 14.28748,4.30466 14.34603,4.35885 0.116,0.10737 -0.50553,0.55321 -1.35548,0.97233 -1.24848,0.61565 -3.58943,1.48263 -5.49186,2.03393 -0.97622,0.2829 -2.21772,0.28552 -3.55139,0.007 z m 6.00821,-6.79643 c -0.0845,-1.45257 0.01,-4.7468 0.1706,-5.95235 0.5704,-4.2806 1.8826,-7.10382 3.89144,-8.37252 0.70454,-0.44496 0.92655,-0.53214 2.48818,-0.97712 3.08705,-0.87963 5.83995,-1.35678 8.42936,-1.461 0.98645,-0.0397 1.33639,-0.0285 1.31234,0.0419 -0.0538,0.15736 -16.00951,17.7515 -16.12381,17.77943 -0.0771,0.0189 -0.12184,-0.26251 -0.16811,-1.05833 z m -2.91788,-0.52415 c -1.73106,-0.61365 -2.62786,-0.98346 -4.02167,-1.65841 -3.02947,-1.46703 -4.30798,-2.81242 -3.73167,-3.92686 0.17925,-0.34664 1.67354,-1.74855 2.63883,-2.47569 1.3558,-1.02131 3.2498,-2.13884 3.38901,-1.99963 0.0315,0.0315 0.70046,2.22011 1.48663,4.86364 0.78617,2.64353 1.48333,4.98739 1.54924,5.20858 0.15276,0.51266 0.16904,0.51281 -1.31037,-0.0116 z"
         id="path1" /></g></g></svg>
