<svg width="404" height="770" viewBox="0 0 404 770" fill="none" xmlns="http://www.w3.org/2000/svg">
<path d="M397.001 353.038L229.906 18.842C223.856 6.75502 213.547 0.0854418 201.997 0.660167C190.439 0.0518668 180.132 6.75502 174.092 18.844L6.99722 353.036C-1.36691 369.766 -1.36691 400.239 6.99722 416.969L174.09 751.161C179.895 762.774 189.637 769.378 200.632 769.378C201.085 769.378 201.539 769.368 201.995 769.345C213.539 769.919 223.856 763.252 229.904 751.161L396.997 416.969C405.365 400.239 405.365 369.764 397.001 353.038ZM365.203 401.07L201.999 727.482L38.7928 401.068C35.4886 394.462 35.4886 375.541 38.7928 368.935L201.999 42.5223L365.203 368.935C368.507 375.541 368.507 394.462 365.203 401.07ZM201.997 303.523C157.068 303.523 120.518 340.074 120.518 385.001C120.518 429.929 157.07 466.48 201.997 466.48C246.924 466.48 283.476 429.929 283.476 385.001C283.476 340.074 246.924 303.523 201.997 303.523ZM201.997 430.93C176.672 430.93 156.068 410.327 156.068 385.001C156.068 359.676 176.672 339.073 201.997 339.073C227.322 339.073 247.926 359.676 247.926 385.001C247.926 410.327 227.324 430.93 201.997 430.93Z" fill="#00B389"/>
</svg>
