<svg width="648" height="514" viewBox="0 0 648 514" fill="none" xmlns="http://www.w3.org/2000/svg">
<path d="M151.675 512.333C148.801 510.66 149.449 508.852 166.107 472.051C171.777 459.524 176.624 448.447 176.878 447.434C177.264 445.895 176.155 444.585 170.127 439.466C160.719 431.476 143.001 413.181 136.22 404.455C127.805 393.625 119.843 381.727 120.405 380.818C120.713 380.319 125.714 379.989 132.994 379.989H145.072L151.36 388.176C154.818 392.678 160.625 399.679 164.264 403.733C171.582 411.885 186.038 425.136 187.193 424.751C187.599 424.616 190.869 418.097 194.459 410.265L200.987 396.025L193.571 388.579C189.492 384.483 186.412 380.875 186.726 380.561C187.588 379.699 240.798 379.867 241.333 380.733C241.586 381.142 237.807 387.303 232.936 394.424C212.238 424.681 196.003 448.906 196.256 449.158C196.561 449.463 244.326 393.693 249.832 386.604C251.785 384.09 253.48 381.931 253.601 381.806C253.721 381.681 258.253 383.585 263.672 386.037C283.207 394.874 299.135 398.68 319.435 399.359C344.624 400.203 363.16 396.104 388.753 384.032L397.323 379.99H421.224C449.16 379.99 448.58 380.143 449.173 372.565C449.507 368.291 449.32 367.803 443.734 358.448C440.553 353.118 437.949 348.572 437.949 348.346C437.949 346.992 445.826 337.512 446.679 337.84C447.943 338.325 452.02 341.051 519.275 386.376C584.284 430.188 579.036 426.425 577.4 428.061C575.722 429.739 574.192 429.112 540.557 412.962C520.153 403.164 514.237 400.643 513.535 401.442C513.04 402.006 509.476 406.144 505.616 410.64C483.16 436.786 458.204 456.516 430.185 470.275C410.826 479.781 398.422 484.406 380.946 488.634C357.062 494.413 334.567 496.487 310.451 495.133C276.035 493.201 248.835 485.968 216.49 470.144L202.227 463.167L200.552 465.195C198.685 467.455 168.696 500.127 161.161 508.108C156.359 513.195 154.543 514.004 151.675 512.333ZM344.791 487.879C345.216 487.204 345.57 484.905 345.577 482.77L345.588 478.888H323.52H301.452V483.735C301.452 488.106 301.633 488.619 303.291 488.957C304.302 489.163 313.879 489.28 324.573 489.218C340.881 489.123 344.141 488.907 344.791 487.879ZM257.262 478.173C257.713 477.33 258.314 475.187 258.599 473.41L259.115 470.179L249.429 466.68C244.102 464.756 235.185 461.015 229.614 458.366C224.043 455.717 219.215 453.55 218.885 453.55C218.256 453.55 214.815 461.042 214.815 462.411C214.815 464.257 250.69 479.493 255.449 479.669C255.995 479.688 256.811 479.016 257.262 478.173ZM399.265 477.19C408.179 474.084 428.81 465.32 430.932 463.739C432.313 462.71 432.388 462.211 431.569 459.476C431.058 457.773 430.12 455.668 429.484 454.798C428.366 453.268 428.014 453.365 418.631 457.776C413.297 460.283 404.704 463.917 399.534 465.851C394.365 467.785 389.797 469.659 389.385 470.015C388.538 470.745 390.426 479.705 391.426 479.705C391.768 479.705 395.296 478.574 399.265 477.19ZM350.055 471.889C355.883 471.231 360.954 470.389 361.325 470.018C361.695 469.648 359.976 463.124 357.504 455.522L353.009 441.699H325.801C300.606 441.699 297.927 441.56 289.602 439.827C276.263 437.05 259.966 431.968 249.673 427.375C244.662 425.138 240.156 423.309 239.66 423.309C238.632 423.309 219.433 444.19 219.078 445.693C218.829 446.749 235.539 455.127 246.138 459.261C266.178 467.076 283.615 470.741 313.713 473.464C319.664 474.003 338.629 473.181 350.055 471.889ZM382.118 465.34C400.149 459.879 408.095 456.747 421.603 449.773C437.434 441.6 447.754 434.903 461.244 424.049C474.435 413.435 492.711 394.322 492.711 391.142C492.711 390.235 468.286 377.537 466.541 377.537C466.09 377.537 461.536 381.723 456.419 386.84C432.003 411.256 403.651 428.137 372.562 436.767L368.067 438.015L368.271 448.848C368.571 464.666 369.065 468.262 370.938 468.262C371.779 468.262 376.81 466.947 382.118 465.34ZM178.979 433.833C180.752 432.429 182.092 430.825 181.957 430.267C181.823 429.71 174.88 422.228 166.529 413.641L151.346 398.029L147.935 401.504C146.058 403.416 144.523 405.344 144.523 405.788C144.523 407.018 173.481 436.386 174.695 436.386C175.278 436.386 177.206 435.237 178.979 433.833ZM477.774 431.612C484.946 425.429 500.797 408.866 501.937 406.364C502.718 404.649 502.444 404.049 499.552 401.157L496.283 397.889L480.142 413.985L464.002 430.082L467.08 433.234C468.772 434.968 470.625 436.386 471.197 436.386C471.768 436.386 474.728 434.238 477.774 431.612ZM0.237409 366.725C0.0198973 366.153 -0.0635163 316.952 0.0520617 257.388L0.2622 149.09H16.6091H32.9559V258.205V367.321L16.7944 367.542C4.31005 367.714 0.54292 367.527 0.237409 366.725ZM82.8724 366.706C82.708 366.144 82.0199 363.661 81.3432 361.189C79.8427 355.707 74.8439 339.529 69.7257 323.591C67.6324 317.073 65.6205 310.636 65.2548 309.288C64.889 307.939 63.4183 303.158 61.9865 298.662C57.3894 284.229 55.3123 277.507 54.1574 273.325C53.5367 271.077 52.6992 268.502 52.2963 267.603C51.8933 266.704 50.7791 263.368 49.8202 260.189C48.121 254.556 48.0771 253.127 48.0879 203.792C48.0944 175.953 48.3229 152.34 48.5965 151.319C48.9897 149.851 49.3296 149.658 50.22 150.397C50.8394 150.911 51.3462 151.733 51.3462 152.224C51.3462 152.714 52.8467 157.91 54.6807 163.771C56.5146 169.631 59.0497 177.736 60.3141 181.782C61.5786 185.828 64.6488 195.575 67.1369 203.442C69.625 211.309 72.8353 221.607 74.2708 226.327C75.7064 231.047 77.7464 237.668 78.8041 241.039C79.8619 244.411 82.6146 253.238 84.9213 260.656C87.2279 268.073 89.4025 274.877 89.7537 275.777C90.105 276.676 90.8497 279.066 91.4087 281.089C91.9677 283.112 92.904 286.239 93.4894 288.037C96.0275 295.834 106.247 328.201 109.36 338.303C113.708 352.411 114.688 355.571 116.63 361.74C117.504 364.516 118.008 366.998 117.749 367.257C117.49 367.516 109.604 367.728 100.225 367.728C87.2862 367.728 83.0991 367.481 82.8724 366.706ZM167.793 366.725C167.575 366.153 167.492 316.952 167.607 257.388L167.818 149.09H184.164H200.511V258.205V367.321L184.35 367.542C171.865 367.714 168.098 367.527 167.793 366.725ZM233.611 367.337C233.283 321.247 233.809 149.794 234.28 149.323C234.653 148.95 242.103 148.745 250.837 148.867L266.716 149.09V258.205V367.321L250.165 367.542C241.062 367.663 233.612 367.572 233.611 367.337ZM395.665 366.708C395.224 366.146 392.373 361.64 389.328 356.695C386.283 351.75 382.411 345.497 380.725 342.8C379.039 340.103 371.131 327.23 363.152 314.193C355.173 301.157 347.274 288.283 345.599 285.586C343.923 282.889 341.738 279.308 340.742 277.628L338.93 274.573L310.179 274.358L281.428 274.144V257.797V241.45L328.834 241.041L376.24 240.633L380.952 238.39C394.928 231.74 401.595 217.555 397.404 203.387C394.898 194.92 388.432 188.192 379.219 184.467C374.648 182.619 374.169 182.597 328.017 182.192L281.428 181.784V165.437V149.09L325.156 148.857C372.615 148.605 378.253 148.943 389.716 152.723C407.451 158.572 421.657 171.794 429.281 189.548C433.452 199.262 434.587 215.178 431.875 225.92C426.085 248.852 408.313 266.252 384.338 272.461L377.602 274.206L384.595 285.617C388.441 291.894 392.484 298.5 393.579 300.298C394.674 302.097 397.105 306.03 398.982 309.039C400.859 312.049 405.611 319.773 409.543 326.204C413.474 332.634 420.686 344.333 425.571 352.2C430.455 360.067 434.297 366.779 434.109 367.116C433.92 367.453 425.373 367.729 415.116 367.729C401.167 367.729 396.263 367.472 395.665 366.708ZM539.3 367.191C525.127 365.652 506.925 358.492 493.857 349.316C482.102 341.061 469.531 326.452 462.227 312.559C458.404 305.285 455.383 296.391 453.345 286.404C452.025 279.936 451.538 244.241 452.653 235.728C458.818 188.688 499.427 151.031 545.839 149.316L551.969 149.09V165.437V181.784L545.886 182.39C536.989 183.277 528.423 185.877 520.103 190.214C514.232 193.275 511.197 195.602 504.982 201.809C494.779 211.998 489.809 220.788 486.499 234.502C484.835 241.395 484.957 275.314 486.674 282.973C488.092 289.301 492.259 299.101 495.779 304.385C507.482 321.952 526.848 333.303 547.065 334.445L551.969 334.722V351.021V367.321L547.065 367.411C544.367 367.46 540.873 367.362 539.3 367.191ZM567.703 367.278C567.365 366.927 567.09 359.568 567.09 350.925C567.09 333.26 566.718 334.218 573.564 334.218C583.456 334.218 601.032 327.173 609.398 319.854L613.678 316.11V295.346V274.583L595.084 274.363L576.489 274.144V257.797V241.45H611.635H646.781L646.992 284.919L647.203 328.387L642.35 333.959C636.738 340.403 634.721 342.292 627.94 347.459C623.09 351.155 621.959 351.861 612.86 356.881C607.248 359.978 598.893 363.07 590.362 365.209C583.275 366.986 568.7 368.317 567.703 367.278ZM123.298 333.196C122.3 329.937 121.193 326.535 120.838 325.636C120.483 324.737 118.994 319.956 117.527 315.011C116.061 310.066 113.445 301.606 111.714 296.212C109.984 290.817 108.566 285.802 108.564 285.066C108.562 284.331 109.438 281.02 110.512 277.71C111.585 274.4 113.078 269.668 113.829 267.196C114.581 264.724 116.602 258.287 118.321 252.893C120.041 247.498 122.62 239.222 124.053 234.502C125.487 229.782 127.163 224.449 127.78 222.651C128.396 220.853 130.072 215.52 131.503 210.799C132.935 206.079 135.501 197.804 137.207 192.409C138.913 187.015 141.312 179.291 142.538 175.245C147.317 159.475 150.689 149.914 151.471 149.91C152.005 149.908 152.361 168.019 152.498 202.195C152.697 251.595 152.623 254.754 151.158 259.409C145.611 277.032 141.745 289.409 140.684 292.942C140.009 295.19 138.061 301.443 136.355 306.837C134.65 312.232 132.258 319.956 131.039 324.001C129.82 328.047 128.31 332.565 127.683 334.042C127.055 335.518 126.542 337.265 126.542 337.924C126.542 340.917 124.952 338.601 123.298 333.196ZM607.605 195.543C597.872 188.406 585.348 183.558 573.628 182.393L567.498 181.784L567.277 165.661L567.055 149.538L569.13 149.018C571.221 148.493 581.193 149.619 588.749 151.233C600.068 153.651 614.071 159.761 624.462 166.819C630.294 170.779 644.095 183.709 643.714 184.855C643.576 185.268 639.612 187.226 634.905 189.204C630.198 191.183 625.244 193.316 623.895 193.943C620.471 195.537 612.746 198.543 612.139 198.519C611.862 198.508 609.821 197.169 607.605 195.543ZM448.92 190.57C438.2 171.44 421.704 152.838 405.869 142.022C403.284 140.257 401.169 138.327 401.169 137.734C401.169 137.141 402.398 135.04 403.899 133.065C408.173 127.443 449.542 65.1896 449.219 64.8664C448.935 64.5828 400.365 121.546 394.801 128.687C393.238 130.693 391.508 132.334 390.957 132.334C390.406 132.334 386.869 130.909 383.097 129.168C362.462 119.638 335.185 114.779 313.454 116.762C293.537 118.58 279.667 122.423 261.493 131.16L250.549 136.421H218.835C201.393 136.421 186.927 136.106 186.689 135.721C185.988 134.586 207.26 114.303 214.815 108.903C230.642 97.5894 249.077 88.1727 267.498 81.992L279.453 77.9811L279.038 75.1204C278.81 73.547 278.201 66.7426 277.685 59.9995C277.169 53.2565 276.499 47.4684 276.196 47.1371C275.403 46.2679 258.984 50.8273 247.306 55.1601C235.309 59.6109 215.351 69.7943 204.379 77.0634C182.055 91.854 159.797 113.461 148.075 131.721C146.128 134.756 144.345 137.238 144.113 137.238C143.882 137.238 126.565 125.816 105.631 111.855C73.7968 90.6251 67.7291 86.2785 68.5484 85.2914C70.4065 83.0525 69.6327 82.76 107.98 100.199C122.27 106.698 134.26 111.898 134.624 111.754C134.988 111.61 138.048 108.182 141.425 104.136C153.998 89.0713 172.392 72.4975 189.801 60.5471C209.272 47.1809 226.186 38.8643 249.961 30.9669C275.632 22.4392 291.776 20.0576 324.339 19.9938C347.681 19.9481 353.752 20.5022 373.455 24.4768C391.199 28.056 411.091 35.0456 429.367 44.1222C436.56 47.6943 442.697 50.6132 443.006 50.6085C443.314 50.6036 453.302 39.9836 465.201 27.0079C477.1 14.0321 487.938 2.63016 489.287 1.6702C492.194 -0.399767 493.77 -0.528378 495.194 1.18815C497.549 4.02485 496.06 8.17702 482.108 37.6902C474.454 53.8815 468.211 67.3638 468.236 67.6509C468.263 67.9381 471.597 70.9315 475.65 74.3031C490.421 86.5907 510.528 108.874 521.9 125.56C526.928 132.936 526.928 134.156 521.903 135.119C520.458 135.396 516.333 136.913 512.737 138.491C506.198 141.359 506.198 141.359 504.972 139.518C501.693 134.594 491.537 121.33 485.968 114.696C477.635 104.771 459.202 87.8896 458.029 89.1088C457.862 89.2821 454.753 95.6284 451.12 103.212L444.513 116.999L455.596 128.503C461.692 134.829 469.174 143.337 472.223 147.409C481.08 159.235 480.983 157.253 473.106 165.573C465.75 173.341 459.7 181.198 454.799 189.344C453.109 192.154 451.585 194.452 451.411 194.452C451.238 194.452 450.117 192.705 448.92 190.57ZM167.222 100.737L183.195 84.6698L179.829 81.5298C177.978 79.8028 176.116 78.3898 175.692 78.3898C173.338 78.3898 144.523 107.115 144.523 109.461C144.523 110.292 150.126 116.805 150.841 116.805C151.065 116.805 158.436 109.575 167.222 100.737ZM499.575 113.621C501.846 111.296 502.545 110 502.169 108.814C501.625 107.101 476.481 81.5093 473.253 79.3828C471.458 78.2003 471.198 78.3067 467.84 81.603L464.312 85.0653L479.942 100.854C488.539 109.538 495.773 116.68 496.019 116.724C496.265 116.769 497.865 115.372 499.575 113.621ZM416.296 80.7489C421.687 74.8537 426.207 69.4041 426.339 68.6386C426.791 66.0351 401.462 54.9406 383.596 49.9164C362.398 43.9552 344.773 41.3465 325.565 41.3274C311.289 41.3131 287.083 43.416 285.692 44.7911C285.339 45.1394 287.55 51.9866 290.605 60.0071L296.159 74.5898L301.871 74.2421C314.511 73.4727 346.135 73.9463 352.128 74.9947C368.956 77.9383 390.175 84.2325 399.488 89.0428C401.986 90.333 404.584 91.4063 405.262 91.4279C405.94 91.4495 410.905 86.644 416.296 80.7489ZM229.989 56.4182C235.804 53.7742 244.564 50.1085 249.456 48.2722C254.349 46.436 258.537 44.7485 258.763 44.5223C258.989 44.2962 258.467 42.169 257.603 39.7952C255.652 34.4355 255.565 34.4369 241.269 40.0465C225.344 46.2952 214.812 51.4445 214.833 52.9711C214.858 54.8266 217.865 61.2256 218.711 61.2256C219.099 61.2256 224.175 59.0623 229.989 56.4182ZM431.266 57.6623C432.245 55.7026 433.045 53.6587 433.045 53.1205C433.045 51.1292 401.425 37.3072 394.18 36.1314C391.771 35.7406 391.538 35.9452 389.806 39.9693C388.801 42.3072 388.106 44.3478 388.262 44.504C388.418 44.6601 393.437 46.6339 399.415 48.8901C405.394 51.1463 414.027 54.8136 418.6 57.0396C423.173 59.2657 427.494 61.1182 428.201 61.1563C428.938 61.196 430.245 59.7059 431.266 57.6623ZM345.59 31.0725C345.59 26.5514 345.458 26.224 343.435 25.7163C340.562 24.9953 308.29 24.9791 304.465 25.6966C301.453 26.2616 301.453 26.2616 301.453 30.5298C301.453 32.8773 301.698 35.0432 301.998 35.3429C302.298 35.6426 312.228 35.8878 324.066 35.8878H345.59V31.0725Z" fill="black"/>
</svg>
