<?xml version="1.0" encoding="UTF-8" standalone="no"?>
<!-- Created with Inkscape (http://www.inkscape.org/) -->

<svg
   width="18.54772mm"
   height="12.351347mm"
   viewBox="0 0 18.54772 12.351347"
   version="1.1"
   id="svg520"
   xml:space="preserve"
   inkscape:version="1.4 (e7c3feb100, 2024-10-09)"
   sodipodi:docname="mrg_wordmark.svg"
   inkscape:export-filename="wordmark_w_compass.png"
   inkscape:export-xdpi="96"
   inkscape:export-ydpi="96"
   xmlns:inkscape="http://www.inkscape.org/namespaces/inkscape"
   xmlns:sodipodi="http://sodipodi.sourceforge.net/DTD/sodipodi-0.dtd"
   xmlns="http://www.w3.org/2000/svg"
   xmlns:svg="http://www.w3.org/2000/svg"><sodipodi:namedview
     id="namedview522"
     pagecolor="#ffffff"
     bordercolor="#000000"
     borderopacity="0.25"
     inkscape:showpageshadow="2"
     inkscape:pageopacity="0.0"
     inkscape:pagecheckerboard="0"
     inkscape:deskcolor="#d1d1d1"
     inkscape:document-units="mm"
     showgrid="false"
     inkscape:zoom="2.3786088"
     inkscape:cx="61.17021"
     inkscape:cy="78.19697"
     inkscape:window-width="1503"
     inkscape:window-height="933"
     inkscape:window-x="0"
     inkscape:window-y="0"
     inkscape:window-maximized="1"
     inkscape:current-layer="layer1" /><defs
     id="defs517" /><g
     inkscape:label="Layer 1"
     inkscape:groupmode="layer"
     id="layer1"
     transform="translate(-5.1725036,-4.4584765)"><path
       style="fill:#b5a166;fill-opacity:1;stroke-width:0.0234159"
       d="M 18.039562,9.9180753 C 17.73245,9.3700358 17.259851,8.8371 16.806191,8.5272395 c -0.07405,-0.05058 -0.134642,-0.1058608 -0.134642,-0.1228473 0,-0.016985 0.0352,-0.077182 0.07822,-0.1337687 0.122436,-0.161051 1.307611,-1.9445464 1.298352,-1.9538057 -0.0081,-0.00812 -1.399598,1.6237885 -1.558993,1.8283792 -0.04478,0.057474 -0.09434,0.1044974 -0.11013,0.1044974 -0.01579,0 -0.117122,-0.040826 -0.225173,-0.090724 -0.591181,-0.2730107 -1.372622,-0.4122051 -1.995186,-0.3553935 -0.5706,0.05207 -0.967971,0.1621735 -1.488622,0.4124686 l -0.313538,0.1507283 h -0.90856 c -0.499708,0 -0.914137,-0.00903 -0.920954,-0.020053 -0.02009,-0.032506 0.589331,-0.6135946 0.80577,-0.7683098 0.453422,-0.3241161 0.981569,-0.593894 1.509321,-0.7709628 l 0.342485,-0.1149086 -0.01188,-0.081956 C 13.166161,6.5655076 13.148681,6.370571 13.133891,6.1773899 13.119101,5.9842088 13.099911,5.8183864 13.091241,5.8088956 13.068511,5.7839936 12.598142,5.9146169 12.263562,6.0387455 11.91987,6.1662551 11.34811,6.457998 11.033776,6.6662492 10.394196,7.0899798 9.7565346,7.7089989 9.4207345,8.2321331 9.3649335,8.3190641 9.3138556,8.3901902 9.3072283,8.3901902 9.3005983,8.3901902 8.8044855,8.0629482 8.20475,7.6629865 7.2927395,7.0547727 7.1189075,6.9302502 7.1423777,6.9019705 c 0.053232,-0.064141 0.031066,-0.072522 1.1296562,0.4270869 0.4094107,0.1861881 0.7529118,0.335151 0.7633356,0.3310284 0.010425,-0.00412 0.098101,-0.10233 0.1948364,-0.2182385 0.3601967,-0.4315872 0.8871571,-0.9064065 1.3858981,-1.2487691 0.557831,-0.3829254 1.042407,-0.6211884 1.72351,-0.8474365 0.73547,-0.2443083 1.197955,-0.3125397 2.130844,-0.314368 0.668727,-0.00131 0.842664,0.014565 1.407136,0.128434 0.508317,0.1025401 1.078216,0.3027817 1.601804,0.5628152 0.20606,0.1023369 0.381884,0.1859584 0.390721,0.185826 0.0088,-1.41e-4 0.294978,-0.3043915 0.635869,-0.6761306 0.340891,-0.3717394 0.651402,-0.6983907 0.690024,-0.7258922 0.08328,-0.059302 0.128438,-0.062987 0.16925,-0.013812 0.06745,0.081268 0.0248,0.2002227 -0.37491,1.0457404 -0.219285,0.4638597 -0.39812,0.8501113 -0.397411,0.8583372 7.63e-4,0.00823 0.09629,0.093984 0.212401,0.1905748 0.423174,0.3520273 0.999198,0.9904081 1.32501,1.4684482 0.144033,0.211327 0.14404,0.2462554 7.1e-5,0.2738565 -0.0414,0.00793 -0.159564,0.051408 -0.262594,0.096604 C 19.680501,8.50825 19.680501,8.50825 19.645378,8.4555093 19.55143,8.3144383 19.26049,7.9344207 19.100946,7.7443884 18.862213,7.4600354 18.334138,6.976405 18.300525,7.0113353 c -0.0048,0.00497 -0.09385,0.1867762 -0.197946,0.4040264 l -0.189262,0.3950009 0.317508,0.3295538 c 0.17463,0.1812546 0.388979,0.42499 0.476331,0.5416342 0.253737,0.3388239 0.250976,0.2820188 0.02529,0.5203783 -0.210728,0.2225618 -0.384065,0.4476461 -0.524454,0.6810231 -0.04842,0.080492 -0.0921,0.146349 -0.09706,0.146349 -0.005,0 -0.03707,-0.050051 -0.07135,-0.1112254 z M 9.9692451,7.3444776 10.426876,6.8841622 10.330437,6.7942043 c -0.05304,-0.049477 -0.106385,-0.089958 -0.11854,-0.089958 -0.06743,0 -0.8929327,0.8229296 -0.8929327,0.8901524 0,0.023819 0.1605139,0.2103936 0.1810053,0.2103936 0.0064,0 0.2175781,-0.2071419 0.4692755,-0.4603147 z m 9.5215209,0.3691049 c 0.06504,-0.066612 0.08508,-0.1037534 0.0743,-0.137719 -0.01557,-0.049068 -0.735912,-0.7822466 -0.828402,-0.8431685 -0.05143,-0.033876 -0.05886,-0.030827 -0.155087,0.063608 l -0.101066,0.09919 0.447784,0.4523349 c 0.246282,0.2487838 0.45355,0.4533763 0.460594,0.4546499 0.007,0.00127 0.05289,-0.038729 0.101874,-0.088895 z m -2.385842,-0.941751 c 0.154446,-0.168888 0.283924,-0.3250131 0.28773,-0.3469451 0.01294,-0.074585 -0.712708,-0.3924296 -1.224546,-0.536367 -0.607292,-0.1707803 -1.112246,-0.2455165 -1.662527,-0.2460639 -0.408976,-3.998e-4 -1.102466,0.059835 -1.142316,0.09923 -0.01009,0.00998 0.05325,0.2061435 0.140757,0.4359202 l 0.159111,0.4177753 0.163649,-0.00996 c 0.362135,-0.022041 1.268101,-0.00847 1.439815,0.021562 0.482087,0.084329 1.089997,0.2646496 1.356797,0.4024594 0.07156,0.036963 0.145998,0.067713 0.165417,0.068332 0.01942,6.18e-4 0.161669,-0.1370549 0.316113,-0.3059429 z M 11.76746,6.0747889 c 0.166579,-0.075748 0.417547,-0.1807661 0.557708,-0.233373 0.14016,-0.052607 0.260138,-0.1009499 0.266617,-0.1074293 0.0065,-0.00648 -0.0085,-0.067422 -0.03322,-0.1354273 -0.05589,-0.1535477 -0.05838,-0.1535096 -0.467945,0.0072 -0.456229,0.1790196 -0.757973,0.3265409 -0.757372,0.3702753 7.27e-4,0.053159 0.08686,0.23648 0.111103,0.23648 0.01113,0 0.156534,-0.061976 0.323113,-0.137724 z m 5.766327,0.035643 c 0.02804,-0.056145 0.05098,-0.1146978 0.05098,-0.1301169 0,-0.05705 -0.905883,-0.4530316 -1.113458,-0.4867163 -0.06901,-0.011199 -0.07569,-0.00534 -0.125285,0.10995 -0.02881,0.066978 -0.04873,0.1254393 -0.04425,0.1299126 0.0045,0.00447 0.148263,0.061018 0.319536,0.1256559 0.171271,0.064637 0.418601,0.1697011 0.549622,0.2334748 0.131022,0.063774 0.254793,0.1168456 0.275048,0.1179371 0.02112,0.00113 0.05857,-0.041551 0.08781,-0.1000972 z M 15.07927,5.3486651 c 0,-0.1295236 -0.0038,-0.1389039 -0.06172,-0.1534489 -0.0823,-0.020656 -1.006856,-0.021118 -1.116448,-5.452e-4 -0.08629,0.016186 -0.08629,0.016186 -0.08629,0.1384652 0,0.067253 0.007,0.1293038 0.01561,0.1378892 0.0086,0.00859 0.293089,0.015611 0.632229,0.015611 h 0.616618 z"
       id="path330" /><path
       id="path312"
       style="fill:#000000;stroke-width:0.0234159"
       d="m 5.1853514,14.964694 c -0.00623,-0.01637 -0.00862,-1.425938 -0.00531,-3.132371 l 0.00602,-3.1026032 h 0.4683173 0.4683178 v 3.1260192 3.126019 l -0.4630077,0.0064 c -0.3576627,0.0049 -0.465587,-4.78e-4 -0.4743396,-0.02346 z m 2.3673914,-5.46e-4 c -0.00471,-0.0161 -0.024422,-0.08722 -0.04381,-0.158056 C 7.4659453,14.649029 7.3227349,14.185555 7.1761059,13.72896 7.1161364,13.54222 7.0584978,13.357819 7.0480198,13.319183 7.0375407,13.280546 6.9954074,13.143564 6.9543874,13.014776 6.8226864,12.601284 6.7631807,12.408703 6.7300933,12.288885 c -0.017781,-0.06439 -0.041776,-0.138154 -0.05332,-0.163912 -0.011544,-0.02576 -0.043465,-0.121339 -0.070936,-0.212404 -0.048681,-0.161379 -0.049939,-0.202306 -0.049627,-1.615695 1.839e-4,-0.7975679 0.00673,-1.474054 0.014568,-1.5033027 0.011264,-0.042044 0.021005,-0.047572 0.046512,-0.026403 0.017745,0.014728 0.032266,0.038272 0.032266,0.052322 0,0.014052 0.042988,0.1629146 0.095529,0.3308092 0.052541,0.1678946 0.125167,0.4000972 0.161392,0.5160061 0.036224,0.1159085 0.1241839,0.3951434 0.1954649,0.6205204 0.071281,0.225378 0.1632515,0.520418 0.2043783,0.655645 0.041126,0.135227 0.09957,0.324895 0.129873,0.421485 0.030303,0.09659 0.1091656,0.349482 0.1752485,0.561982 0.066082,0.212499 0.1283827,0.407435 0.1384445,0.433193 0.010061,0.02576 0.031397,0.09425 0.047413,0.152203 0.016015,0.05795 0.042839,0.14752 0.059609,0.199035 0.072714,0.223369 0.3654872,1.15066 0.454676,1.440077 0.1245538,0.404177 0.1526384,0.494712 0.2082843,0.671437 0.02504,0.07952 0.039459,0.150644 0.032048,0.158057 -0.00741,0.0074 -0.2333319,0.01348 -0.5020431,0.01348 -0.3706762,0 -0.4906316,-0.0071 -0.497127,-0.02927 z m 2.4328632,5.46e-4 c -0.00623,-0.01637 -0.00862,-1.425937 -0.00531,-3.13237 l 0.00602,-3.1026031 h 0.468317 0.468318 v 3.1260191 3.12602 l -0.463008,0.0064 c -0.357661,0.0049 -0.4655854,-4.36e-4 -0.474338,-0.02341 z m 1.885602,0.01755 c -0.0094,-1.320424 0.0057,-6.2323611 0.01917,-6.2458462 0.01069,-0.010686 0.224139,-0.016556 0.474344,-0.013052 l 0.454919,0.00638 v 3.1260192 3.12602 l -0.474172,0.0063 c -0.260794,0.0035 -0.47421,8.72e-4 -0.474258,-0.0059 z m 4.642646,-0.01805 c -0.01261,-0.0161 -0.09431,-0.145178 -0.181545,-0.286845 -0.08724,-0.141665 -0.198141,-0.320797 -0.246452,-0.398069 -0.04831,-0.07727 -0.274867,-0.446072 -0.503455,-0.819556 -0.228591,-0.373483 -0.454885,-0.742283 -0.502878,-0.819555 -0.04799,-0.07727 -0.110607,-0.179876 -0.139146,-0.228007 l -0.05189,-0.08751 -0.823684,-0.0061 -0.823684,-0.0061 V 11.844037 11.37572 l 1.358121,-0.01171 1.35812,-0.01171 0.134996,-0.06424 C 16.492744,11.097533 16.683748,10.691145 16.56367,10.285272 16.491907,10.0427 16.306658,9.8499507 16.042712,9.7432237 15.911771,9.6902773 15.898038,9.6896673 14.575829,9.6780687 L 13.241124,9.6663575 V 9.1980397 8.7297223 l 1.252749,-0.00666 c 1.359641,-0.00723 1.521168,0.00244 1.849576,0.1107456 0.50807,0.1675548 0.915044,0.5463547 1.13347,1.0550029 0.119505,0.2782932 0.15203,0.7342562 0.07433,1.0420072 -0.165875,0.656969 -0.675027,1.155449 -1.361884,1.333341 l -0.192969,0.04998 0.200337,0.326931 c 0.110184,0.179812 0.226,0.369079 0.257367,0.420594 0.03137,0.05152 0.101029,0.164203 0.154803,0.250417 0.05377,0.08621 0.189917,0.307494 0.30254,0.491733 0.112623,0.184239 0.319259,0.519381 0.45919,0.744759 0.139932,0.225378 0.250004,0.41768 0.244605,0.427339 -0.0054,0.0097 -0.250258,0.01756 -0.544132,0.01756 -0.399611,0 -0.540099,-0.0074 -0.557251,-0.02927 z m 4.114978,0.01384 c -0.406024,-0.04409 -0.927513,-0.249217 -1.301873,-0.512098 -0.336779,-0.23649 -0.696914,-0.655002 -0.90616,-1.053045 -0.109541,-0.208376 -0.196074,-0.463181 -0.254469,-0.749308 -0.03781,-0.185292 -0.05178,-1.207921 -0.01982,-1.451784 0.1766,-1.347635 1.340016,-2.4264836 2.669648,-2.4755957 l 0.175619,-0.00649 v 0.4683173 0.4683178 l -0.174258,0.017374 c -0.254895,0.025414 -0.500289,0.099882 -0.738652,0.2241534 -0.168197,0.087691 -0.255144,0.1543592 -0.433193,0.3321612 -0.292325,0.291919 -0.434697,0.543746 -0.529536,0.936636 -0.04767,0.197472 -0.04416,1.169205 0.005,1.388621 0.04063,0.181294 0.160024,0.462055 0.260868,0.613436 0.335256,0.50327 0.890074,0.828463 1.469262,0.861173 l 0.140495,0.0079 v 0.466957 0.466958 l -0.140495,0.0026 c -0.07727,0.0014 -0.177376,-0.0014 -0.222452,-0.0063 z m 0.813702,0.0025 c -0.0097,-0.01006 -0.01756,-0.220879 -0.01756,-0.468491 0,-0.506087 -0.01064,-0.478628 0.185497,-0.478628 0.283369,0 0.7869,-0.201842 1.02658,-0.411508 l 0.122629,-0.107273 v -0.594849 -0.59485 l -0.532712,-0.0063 -0.532711,-0.0063 v -0.468324 -0.468318 h 1.006883 1.006883 l 0.0061,1.245325 0.0061,1.245325 -0.139032,0.159628 c -0.160777,0.184592 -0.21857,0.238734 -0.412842,0.386762 -0.138942,0.105866 -0.171332,0.126105 -0.432001,0.269922 -0.160784,0.08871 -0.40014,0.177306 -0.644542,0.238578 -0.203051,0.0509 -0.620615,0.08903 -0.649185,0.05928 z M 8.7108747,14.004146 c -0.028591,-0.09337 -0.060296,-0.19084 -0.070458,-0.216597 -0.010163,-0.02576 -0.052848,-0.16274 -0.094857,-0.304407 -0.042009,-0.141665 -0.1169473,-0.38402 -0.1665305,-0.538564 -0.049583,-0.154546 -0.090199,-0.298233 -0.090257,-0.319305 -4.69e-5,-0.02107 0.025054,-0.115907 0.05581,-0.210743 0.030754,-0.09484 0.073522,-0.230383 0.095041,-0.301217 0.021518,-0.07083 0.07943,-0.255232 0.1286916,-0.409777 0.049262,-0.154545 0.1231581,-0.391631 0.1642148,-0.526857 0.041057,-0.135227 0.089098,-0.288015 0.106759,-0.33953 0.017661,-0.05152 0.065661,-0.204304 0.1066667,-0.339531 0.041005,-0.135226 0.1145411,-0.372312 0.1634118,-0.5268569 0.04887,-0.1545448 0.1175961,-0.3758246 0.1527238,-0.4917334 0.1369175,-0.451781 0.233502,-0.7257123 0.2559083,-0.7257999 0.015306,-7.02e-5 0.025505,0.5187848 0.029445,1.4978802 0.0057,1.415248 0.00356,1.505767 -0.038394,1.639112 -0.1589101,0.504885 -0.2696671,0.859468 -0.3000804,0.960694 -0.019348,0.06439 -0.075151,0.243525 -0.1240075,0.39807 -0.048857,0.154544 -0.1173947,0.375825 -0.1523061,0.491733 -0.034912,0.115908 -0.078182,0.245346 -0.096158,0.287639 -0.017974,0.04229 -0.032684,0.09234 -0.032684,0.111226 0,0.08574 -0.045532,0.01939 -0.092941,-0.135436 z M 22.585688,10.060552 C 22.30686,9.8560644 21.948053,9.7171935 21.612299,9.6838142 l -0.175619,-0.017458 -0.0063,-0.4618936 -0.0063,-0.461894 0.05942,-0.014914 c 0.05991,-0.015037 0.345618,0.017222 0.562084,0.063459 0.324279,0.069268 0.725422,0.2443337 1.023136,0.4465134 0.167055,0.1134474 0.562462,0.4838957 0.551525,0.5167094 -0.004,0.011846 -0.11751,0.067924 -0.252356,0.1246142 -0.134846,0.056691 -0.276787,0.1177851 -0.315423,0.1357654 -0.09808,0.04565 -0.319401,0.131784 -0.336799,0.131085 -0.0079,-3.14e-4 -0.06639,-0.03868 -0.129888,-0.08525 z" /><g
       aria-label="MARINE ROBOTICS GROUP"
       id="text7359"
       style="font-weight:bold;font-size:1.57673px;-inkscape-font-specification:'sans-serif Bold';text-align:center;text-anchor:middle;stroke-width:0.0328484"><path
         d="m 5.6636908,16.433348 0.2132589,-0.75449 h 0.2779295 v 1.119417 H 5.9631771 v -0.869203 l 0.0077,0.04927 -0.2140288,0.695208 H 5.5705344 l -0.2140288,-0.679811 0.0077,-0.06467 v 0.869203 H 5.1725036 V 15.678855 H 5.450433 Z"
         style="font-family:Bahnschrift;-inkscape-font-specification:'Bahnschrift Bold'"
         id="path371" /><path
         d="m 6.2780612,16.798275 0.4280576,-1.119417 h 0.1339604 l 0.4280576,1.119417 H 7.0410199 L 6.773099,16.033777 6.5051781,16.798275 Z m 0.20556,-0.179384 v -0.20325 h 0.5889641 v 0.20325 z"
         style="font-family:Bahnschrift;-inkscape-font-specification:'Bahnschrift Bold'"
         id="path373" /><path
         d="M 7.4906343,16.347891 V 16.14464 h 0.3895632 q 0.049273,0 0.078528,-0.03618 0.030026,-0.03618 0.030795,-0.09547 v 0 q 0,-0.05928 -0.030026,-0.09547 -0.029256,-0.03618 -0.079298,-0.03618 H 7.4906343 V 15.678088 H 7.897135 q 0.093156,0 0.1624463,0.04157 0.07006,0.04157 0.1085542,0.117023 0.038494,0.07545 0.038494,0.176305 v 0 q 0,0.100855 -0.039264,0.176304 -0.038494,0.07545 -0.1077843,0.117023 -0.06929,0.04157 -0.1624463,0.04157 z m -0.083918,0.450384 v -1.120187 h 0.2109493 v 1.120187 z m 0.5912738,0 -0.2717704,-0.485029 0.2255771,-0.03542 0.301796,0.520444 z"
         style="font-family:Bahnschrift;-inkscape-font-specification:'Bahnschrift Bold'"
         id="path375" /><path
         d="m 8.637767,15.678858 v 1.119417 H 8.4191189 v -1.119417 z"
         style="font-family:Bahnschrift;-inkscape-font-specification:'Bahnschrift Bold'"
         id="path377" /><path
         d="m 8.8687334,16.797505 v -1.118647 h 0.2579123 l 0.4165093,0.857655 -0.018477,0.02002 v -0.877672 h 0.2017106 v 1.118647 H 9.4669361 l -0.4149695,-0.844567 0.018477,-0.02002 v 0.864584 z"
         style="font-family:Bahnschrift;-inkscape-font-specification:'Bahnschrift Bold'"
         id="path379" /><path
         d="m 9.972752,16.798275 v -1.119417 h 0.210949 v 1.119417 z m 0.076219,0 v -0.20325 h 0.673652 v 0.20325 z m 0,-0.454234 v -0.20325 h 0.588964 v 0.20325 z m 0,-0.461932 v -0.203251 h 0.673652 v 0.203251 z"
         style="font-family:Bahnschrift;-inkscape-font-specification:'Bahnschrift Bold'"
         id="path381" /><path
         d="M 11.422451,16.347891 V 16.14464 h 0.389563 q 0.04927,0 0.07853,-0.03618 0.03003,-0.03618 0.0308,-0.09547 v 0 q 0,-0.05928 -0.03003,-0.09547 -0.02925,-0.03618 -0.0793,-0.03618 h -0.389563 v -0.203251 h 0.4065 q 0.09316,0 0.162447,0.04157 0.07006,0.04157 0.108554,0.117023 0.03849,0.07545 0.03849,0.176305 v 0 q 0,0.100855 -0.03926,0.176304 -0.03849,0.07545 -0.107784,0.117023 -0.06929,0.04157 -0.162447,0.04157 z m -0.08392,0.450384 v -1.120187 h 0.210949 v 1.120187 z m 0.591274,0 -0.271771,-0.485029 0.225577,-0.03542 0.301796,0.520444 z"
         style="font-family:Bahnschrift;-inkscape-font-specification:'Bahnschrift Bold'"
         id="path383" /><path
         d="m 12.721251,16.809823 q -0.123182,0 -0.215568,-0.05081 -0.09162,-0.05158 -0.14243,-0.144739 -0.05081,-0.09316 -0.05081,-0.217108 V 16.07997 q 0,-0.124722 0.05081,-0.217109 0.05081,-0.09316 0.14243,-0.143969 0.09239,-0.05158 0.215568,-0.05158 0.123182,0 0.214799,0.05158 0.09239,0.05081 0.143199,0.143969 0.05081,0.09239 0.05081,0.217109 v 0.317194 q 0,0.123951 -0.05081,0.217108 -0.05081,0.09316 -0.143199,0.144739 -0.09162,0.05081 -0.214799,0.05081 z m 0,-0.210949 q 0.08623,0 0.13781,-0.05389 0.05235,-0.05389 0.05235,-0.142429 v -0.327972 q 0,-0.08931 -0.05235,-0.14243 -0.05158,-0.05389 -0.13781,-0.05389 -0.08623,0 -0.13858,0.05389 -0.05158,0.05312 -0.05158,0.14243 v 0.327972 q 0,0.08854 0.05158,0.142429 0.05235,0.05389 0.13858,0.05389 z"
         style="font-family:Bahnschrift;-inkscape-font-specification:'Bahnschrift Bold'"
         id="path385" /><path
         d="m 13.430318,16.798275 v -0.20325 h 0.357228 q 0.07237,0 0.111634,-0.03465 0.04003,-0.03541 0.04003,-0.09855 v -0.0023 q 0,-0.0639 -0.04003,-0.09854 -0.03926,-0.03542 -0.111634,-0.03542 h -0.357228 v -0.20325 h 0.357228 q 0.06544,0 0.100855,-0.03311 0.03618,-0.0331 0.03618,-0.09316 v 0 q 0,-0.05466 -0.03618,-0.08392 -0.03542,-0.03003 -0.100855,-0.03003 h -0.357228 v -0.203251 h 0.364157 q 0.163216,0 0.252523,0.0793 0.09008,0.0793 0.09008,0.224037 v 0 q 0,0.09778 -0.05774,0.161676 -0.05697,0.06313 -0.161676,0.08084 0.111634,0.0154 0.172455,0.08546 0.06159,0.06929 0.06159,0.180924 v 0.0023 q 0,0.145509 -0.09008,0.225578 -0.09008,0.0793 -0.254063,0.0793 z m -0.09239,0 v -1.119417 h 0.210949 v 1.119417 z"
         style="font-family:Bahnschrift;-inkscape-font-specification:'Bahnschrift Bold'"
         id="path387" /><path
         d="m 14.71834,16.809823 q -0.123182,0 -0.215569,-0.05081 -0.09162,-0.05158 -0.142429,-0.144739 -0.05081,-0.09316 -0.05081,-0.217108 V 16.07997 q 0,-0.124722 0.05081,-0.217109 0.05081,-0.09316 0.142429,-0.143969 0.09239,-0.05158 0.215569,-0.05158 0.123182,0 0.214799,0.05158 0.09239,0.05081 0.143199,0.143969 0.05081,0.09239 0.05081,0.217109 v 0.317194 q 0,0.123951 -0.05081,0.217108 -0.05081,0.09316 -0.143199,0.144739 -0.09162,0.05081 -0.214799,0.05081 z m 0,-0.210949 q 0.08623,0 0.13781,-0.05389 0.05235,-0.05389 0.05235,-0.142429 v -0.327972 q 0,-0.08931 -0.05235,-0.14243 -0.05158,-0.05389 -0.13781,-0.05389 -0.08623,0 -0.13858,0.05389 -0.05158,0.05312 -0.05158,0.14243 v 0.327972 q 0,0.08854 0.05158,0.142429 0.05235,0.05389 0.13858,0.05389 z"
         style="font-family:Bahnschrift;-inkscape-font-specification:'Bahnschrift Bold'"
         id="path389" /><path
         d="m 15.501316,16.798275 v -1.0278 h 0.210949 v 1.0278 z M 15.19644,15.882109 v -0.203251 h 0.820701 v 0.203251 z"
         style="font-family:Bahnschrift;-inkscape-font-specification:'Bahnschrift Bold'"
         id="path391" /><path
         d="m 16.343573,15.678858 v 1.119417 h -0.218648 v -1.119417 z"
         style="font-family:Bahnschrift;-inkscape-font-specification:'Bahnschrift Bold'"
         id="path393" /><path
         d="m 16.956403,16.809823 q -0.128571,0 -0.219418,-0.0485 -0.09008,-0.04927 -0.137809,-0.142429 -0.04773,-0.09393 -0.04773,-0.226347 v -0.307185 q 0,-0.133191 0.04773,-0.226347 0.04773,-0.09316 0.137809,-0.142429 0.09085,-0.04927 0.219418,-0.04927 0.106245,0 0.188623,0.04542 0.08315,0.04542 0.13704,0.131651 0.05466,0.08623 0.07545,0.20941 v 0 h -0.218648 v 0 q -0.01232,-0.0562 -0.0385,-0.0947 -0.02541,-0.03926 -0.06236,-0.06005 -0.03618,-0.02079 -0.08161,-0.02079 -0.08854,0 -0.137809,0.05466 -0.0485,0.05389 -0.0485,0.152438 v 0.307185 q 0,0.09855 0.0485,0.152438 0.04927,0.05389 0.137809,0.05389 0.06929,0 0.117023,-0.04542 0.04773,-0.04619 0.06544,-0.130111 v 0 h 0.218648 v 0 q -0.02156,0.122412 -0.07622,0.209409 -0.05389,0.08623 -0.13627,0.131651 -0.08238,0.04542 -0.188623,0.04542 z"
         style="font-family:Bahnschrift;-inkscape-font-specification:'Bahnschrift Bold'"
         id="path395" /><path
         d="m 17.87103,16.809823 q -0.08007,0 -0.157057,-0.01617 -0.07622,-0.01617 -0.143199,-0.04696 -0.06698,-0.03157 -0.120872,-0.07545 v 0 l 0.09778,-0.173995 v 0 q 0.06467,0.05312 0.149358,0.08238 0.08469,0.02849 0.173994,0.02849 0.103165,0 0.160137,-0.03465 0.05697,-0.03541 0.05697,-0.09932 v -7.7e-4 q 0,-0.0485 -0.02849,-0.07391 -0.02849,-0.02618 -0.07545,-0.03849 -0.04619,-0.01232 -0.100855,-0.02079 -0.06544,-0.01001 -0.132421,-0.02464 -0.06698,-0.0154 -0.123182,-0.04773 -0.0562,-0.0331 -0.09085,-0.09393 -0.03387,-0.06082 -0.03387,-0.162446 v -7.7e-4 q 0,-0.163986 0.107784,-0.253293 0.107785,-0.09008 0.304876,-0.09008 0.09085,0 0.184773,0.03079 0.09393,0.03003 0.174764,0.08623 v 0 l -0.08931,0.178614 v 0 q -0.06467,-0.04542 -0.1355,-0.06929 -0.07006,-0.02464 -0.13473,-0.02464 -0.09701,0 -0.150128,0.03233 -0.05312,0.03157 -0.05312,0.08931 v 7.7e-4 q 0,0.05389 0.03157,0.08161 0.03157,0.02772 0.08238,0.04157 0.05081,0.01309 0.109324,0.02464 0.06467,0.01232 0.128571,0.0308 0.0639,0.01771 0.117023,0.05158 0.05312,0.03387 0.08469,0.09316 0.03157,0.05928 0.03157,0.153977 v 0.0015 q 0,0.161676 -0.111634,0.250983 -0.111633,0.08854 -0.314884,0.08854 z"
         style="font-family:Bahnschrift;-inkscape-font-specification:'Bahnschrift Bold'"
         id="path397" /><path
         d="m 19.321498,16.172356 h 0.388024 v 0.218648 q 0,0.126262 -0.05081,0.220958 -0.05081,0.09393 -0.142429,0.146279 -0.09085,0.05158 -0.214029,0.05158 -0.123952,0 -0.217108,-0.0485 -0.09239,-0.04927 -0.143969,-0.13781 -0.05081,-0.08931 -0.05081,-0.207869 V 16.08536 q 0,-0.126262 0.05081,-0.220188 0.05081,-0.09393 0.141659,-0.145509 0.09162,-0.05235 0.214799,-0.05235 0.101625,0 0.184773,0.04157 0.08392,0.04157 0.140889,0.116253 0.05697,0.07468 0.07699,0.174764 v 0 H 19.4724 v 0 q -0.01694,-0.05466 -0.06775,-0.08392 -0.05004,-0.03003 -0.107014,-0.03003 -0.08546,0 -0.13704,0.05466 -0.05158,0.05466 -0.05158,0.144739 v 0.330282 q 0,0.0793 0.05312,0.127801 0.05312,0.04773 0.140119,0.04773 0.08546,0 0.13704,-0.05158 0.05158,-0.05235 0.05158,-0.145509 v -0.01848 h -0.169376 z"
         style="font-family:Bahnschrift;-inkscape-font-specification:'Bahnschrift Bold'"
         id="path399" /><path
         d="M 20.001309,16.347891 V 16.14464 h 0.389564 q 0.04927,0 0.07853,-0.03618 0.03003,-0.03618 0.0308,-0.09547 v 0 q 0,-0.05928 -0.03003,-0.09547 -0.02926,-0.03618 -0.0793,-0.03618 h -0.389564 v -0.203251 h 0.406501 q 0.09316,0 0.162446,0.04157 0.07006,0.04157 0.108555,0.117023 0.03849,0.07545 0.03849,0.176305 v 0 q 0,0.100855 -0.03926,0.176304 -0.0385,0.07545 -0.107785,0.117023 -0.06929,0.04157 -0.162446,0.04157 z m -0.08392,0.450384 v -1.120187 h 0.210949 v 1.120187 z m 0.591273,0 -0.27177,-0.485029 0.225577,-0.03542 0.301796,0.520444 z"
         style="font-family:Bahnschrift;-inkscape-font-specification:'Bahnschrift Bold'"
         id="path401" /><path
         d="m 21.30011,16.809823 q -0.123182,0 -0.215569,-0.05081 -0.09162,-0.05158 -0.142429,-0.144739 -0.05081,-0.09316 -0.05081,-0.217108 V 16.07997 q 0,-0.124722 0.05081,-0.217109 0.05081,-0.09316 0.142429,-0.143969 0.09239,-0.05158 0.215569,-0.05158 0.123182,0 0.214799,0.05158 0.09239,0.05081 0.143199,0.143969 0.05081,0.09239 0.05081,0.217109 v 0.317194 q 0,0.123951 -0.05081,0.217108 -0.05081,0.09316 -0.143199,0.144739 -0.09162,0.05081 -0.214799,0.05081 z m 0,-0.210949 q 0.08623,0 0.13781,-0.05389 0.05235,-0.05389 0.05235,-0.142429 v -0.327972 q 0,-0.08931 -0.05235,-0.14243 -0.05158,-0.05389 -0.13781,-0.05389 -0.08623,0 -0.13858,0.05389 -0.05158,0.05312 -0.05158,0.14243 v 0.327972 q 0,0.08854 0.05158,0.142429 0.05235,0.05389 0.13858,0.05389 z"
         style="font-family:Bahnschrift;-inkscape-font-specification:'Bahnschrift Bold'"
         id="path403" /><path
         d="m 22.294035,16.809823 q -0.194782,0 -0.301796,-0.108554 -0.106245,-0.109324 -0.106245,-0.307955 v -0.714456 h 0.210949 v 0.719845 q 0,0.09624 0.05158,0.149358 0.05158,0.05312 0.145509,0.05312 0.0947,0 0.146278,-0.05312 0.05235,-0.05312 0.05235,-0.149358 v -0.719845 h 0.210949 v 0.714456 q 0,0.198631 -0.107014,0.307955 -0.107015,0.108554 -0.302566,0.108554 z"
         style="font-family:Bahnschrift;-inkscape-font-specification:'Bahnschrift Bold'"
         id="path405" /><path
         d="m 23.01542,16.364058 v -0.20325 h 0.357997 q 0.05697,0 0.09239,-0.03772 0.03542,-0.03849 0.03542,-0.100855 v 0 q 0,-0.0639 -0.03542,-0.101625 -0.03464,-0.03849 -0.09239,-0.03849 H 23.01542 v -0.203251 h 0.352608 q 0.106245,0 0.184773,0.04311 0.0793,0.04234 0.123182,0.119333 0.04388,0.07699 0.04388,0.180923 v 0 q 0,0.103165 -0.04388,0.180154 -0.04388,0.07699 -0.123182,0.119333 -0.0793,0.04234 -0.184773,0.04234 z m -0.09624,0.434217 v -1.119417 h 0.210949 v 1.119417 z"
         style="font-family:Bahnschrift;-inkscape-font-specification:'Bahnschrift Bold'"
         id="path407" /></g></g></svg>
