<?xml version="1.0" encoding="UTF-8" standalone="no"?>
<svg
   id="Layer_1"
   data-name="Layer 1"
   viewBox="0 0 1230.5616 249.99999"
   version="1.1"
   sodipodi:docname="ASDL-Logo_GT-Gold_ASDL-Navy_RGB.svg"
   inkscape:version="1.2 (dc2aedaf03, 2022-05-15)"
   width="1230.5615"
   height="250"
   xmlns:inkscape="http://www.inkscape.org/namespaces/inkscape"
   xmlns:sodipodi="http://sodipodi.sourceforge.net/DTD/sodipodi-0.dtd"
   xmlns="http://www.w3.org/2000/svg"
   xmlns:svg="http://www.w3.org/2000/svg">
  <sodipodi:namedview
     id="namedview233"
     pagecolor="#505050"
     bordercolor="#ffffff"
     borderopacity="1"
     inkscape:showpageshadow="0"
     inkscape:pageopacity="0"
     inkscape:pagecheckerboard="1"
     inkscape:deskcolor="#505050"
     showgrid="false"
     inkscape:zoom="0.97163004"
     inkscape:cx="583.55544"
     inkscape:cy="115.27021"
     inkscape:window-width="1920"
     inkscape:window-height="1017"
     inkscape:window-x="-8"
     inkscape:window-y="-8"
     inkscape:window-maximized="1"
     inkscape:current-layer="Layer_1" />
  <defs
     id="defs134">
    <style
       id="style132">.cls-1{fill:#143156;}.cls-2{fill:#b2a268;}</style>
  </defs>
  <g
     id="g8803"
     transform="matrix(0.98813526,0,0,0.98813526,0.00704231,0)">
    <path
       class="cls-1"
       d="m 567,53.63 a 0.7,0.7 0 0 1 0.3,0.6 v 5.14 a 0.4,0.4 0 0 1 -0.43,0.43 H 563 a 0.4,0.4 0 0 1 -0.43,-0.43 v -2.53 a 0.35,0.35 0 0 0 -0.17,-0.34 8.39,8.39 0 0 0 -4.5,-1.16 c -3.6,0 -5.23,1.54 -6,3.9 -0.35,1.07 -0.69,2.53 -0.69,6.68 0,4.15 0.21,5.53 0.56,6.6 0.81,2.36 2.4,3.82 6,3.82 a 8.93,8.93 0 0 0 4.76,-1 c 0.34,-0.22 0.43,-0.34 0.43,-0.69 v -5.7 c 0,-0.17 -0.09,-0.25 -0.26,-0.25 H 558 a 0.41,0.41 0 0 1 -0.43,-0.43 V 64.81 A 0.41,0.41 0 0 1 558,64.38 h 9.34 a 0.4,0.4 0 0 1 0.43,0.43 v 12.3 a 1,1 0 0 1 -0.56,1 16.24,16.24 0 0 1 -9.59,2.74 c -5.87,0 -9.34,-2.19 -10.84,-6.81 -0.6,-1.8 -0.73,-3.56 -0.73,-8.15 0,-4.59 0.21,-6.25 0.81,-8.05 1.5,-4.63 5.31,-7.07 11.19,-7.07 a 14.54,14.54 0 0 1 8.95,2.86 z"
       transform="translate(-21.13,-30.35)"
       id="path136" />
    <path
       class="cls-1"
       d="m 590.39,65 a 18.54,18.54 0 0 1 0.69,6.22 0.41,0.41 0 0 1 -0.47,0.42 h -12.73 a 0.23,0.23 0 0 0 -0.26,0.26 4.59,4.59 0 0 0 0.3,1.59 4.52,4.52 0 0 0 4.63,3.12 6.21,6.21 0 0 0 4.84,-2 c 0.22,-0.21 0.43,-0.25 0.64,-0.08 l 2.53,2.23 a 0.38,0.38 0 0 1 0.05,0.6 10.91,10.91 0 0 1 -8.49,3.51 c -4.37,0 -7.45,-2.14 -8.61,-5.74 a 16,16 0 0 1 -0.73,-5.06 16.42,16.42 0 0 1 0.69,-5.1 c 1.15,-3.6 4.32,-5.7 8.44,-5.7 4.12,0 7.32,2.2 8.48,5.73 z m -12.51,1 a 5.31,5.31 0 0 0 -0.26,1.76 c 0,0.17 0.09,0.25 0.26,0.25 H 586 c 0.17,0 0.26,-0.08 0.26,-0.25 A 5.31,5.31 0 0 0 586,66 a 4.41,4.41 0 0 0 -8.1,0 z"
       transform="translate(-21.13,-30.35)"
       id="path138" />
    <path
       class="cls-1"
       d="m 613,65 a 15.3,15.3 0 0 1 0.69,5.1 15.3,15.3 0 0 1 -0.69,5.1 c -1.16,3.6 -4.33,5.7 -8.48,5.7 -4.15,0 -7.37,-2.1 -8.53,-5.7 A 15.3,15.3 0 0 1 595.3,70.1 15.3,15.3 0 0 1 596,65 c 1.16,-3.6 4.33,-5.7 8.53,-5.7 4.2,0 7.28,2.08 8.47,5.7 z m -12.38,1.29 a 11.57,11.57 0 0 0 -0.43,3.81 11.42,11.42 0 0 0 0.43,3.81 3.86,3.86 0 0 0 3.9,2.7 3.81,3.81 0 0 0 3.85,-2.7 11.42,11.42 0 0 0 0.43,-3.81 11.57,11.57 0 0 0 -0.43,-3.81 3.77,3.77 0 0 0 -3.85,-2.7 3.82,3.82 0 0 0 -3.93,2.68 z"
       transform="translate(-21.13,-30.35)"
       id="path140" />
    <path
       class="cls-1"
       d="m 632,59.67 c 0.26,0 0.43,0.17 0.43,0.43 v 3.73 c 0,0.3 -0.17,0.51 -0.51,0.42 a 15.34,15.34 0 0 0 -2.53,-0.34 c -3,0 -4.63,1.63 -4.63,5.31 V 76 a 0.23,0.23 0 0 0 0.26,0.26 h 2 a 0.4,0.4 0 0 1 0.43,0.43 V 80 a 0.4,0.4 0 0 1 -0.43,0.43 H 617.9 A 0.4,0.4 0 0 1 617.47,80 v -3.36 a 0.4,0.4 0 0 1 0.43,-0.43 h 1.84 A 0.23,0.23 0 0 0 620,76 V 64.21 a 0.23,0.23 0 0 0 -0.26,-0.26 h -1.84 a 0.4,0.4 0 0 1 -0.43,-0.42 v -3.35 a 0.4,0.4 0 0 1 0.43,-0.42 h 6.47 a 0.4,0.4 0 0 1 0.42,0.42 v 2.15 h 0.05 a 5.85,5.85 0 0 1 5.16,-2.87 9.18,9.18 0 0 1 2,0.21 z"
       transform="translate(-21.13,-30.35)"
       id="path142" />
    <path
       class="cls-1"
       d="m 648.7,61.73 v 0 -1.55 a 0.41,0.41 0 0 1 0.43,-0.42 h 6.47 a 0.4,0.4 0 0 1 0.43,0.42 v 3.35 a 0.4,0.4 0 0 1 -0.43,0.42 h -1.8 a 0.23,0.23 0 0 0 -0.26,0.26 v 14.91 c 0,5.92 -3.3,9.47 -9.64,9.47 a 10.25,10.25 0 0 1 -7.5,-3.08 0.38,0.38 0 0 1 0.05,-0.6 L 639,82.38 a 0.39,0.39 0 0 1 0.64,0 6.33,6.33 0 0 0 4.5,1.93 c 3.17,0 4.62,-1.72 4.62,-4.93 v -1.93 0 c -0.94,1.46 -2.7,2.4 -5.35,2.4 a 6.91,6.91 0 0 1 -7,-5 15.59,15.59 0 0 1 -0.69,-5.27 15.31,15.31 0 0 1 0.69,-5.23 6.89,6.89 0 0 1 7,-5.06 c 2.59,-0.01 4.35,0.94 5.29,2.44 z m -7.7,4.45 a 9.8,9.8 0 0 0 -0.48,3.39 9.42,9.42 0 0 0 0.48,3.43 3.85,3.85 0 0 0 7.32,0 9.43,9.43 0 0 0 0.47,-3.38 9.81,9.81 0 0 0 -0.47,-3.39 3.87,3.87 0 0 0 -7.32,0 z"
       transform="translate(-21.13,-30.35)"
       id="path144" />
    <path
       class="cls-1"
       d="m 666.4,59.76 a 0.4,0.4 0 0 1 0.42,0.42 V 76 a 0.23,0.23 0 0 0 0.26,0.26 h 1.84 a 0.4,0.4 0 0 1 0.43,0.43 V 80 a 0.4,0.4 0 0 1 -0.43,0.43 h -9 A 0.4,0.4 0 0 1 659.49,80 v -3.36 a 0.4,0.4 0 0 1 0.43,-0.43 h 1.84 c 0.17,0 0.25,-0.09 0.25,-0.26 V 64.21 c 0,-0.17 -0.08,-0.26 -0.25,-0.26 h -1.84 a 0.4,0.4 0 0 1 -0.43,-0.42 v -3.35 a 0.4,0.4 0 0 1 0.43,-0.42 z m 0,-8.49 a 0.4,0.4 0 0 1 0.42,0.43 v 3.73 a 0.41,0.41 0 0 1 -0.42,0.43 h -3.95 a 0.41,0.41 0 0 1 -0.43,-0.43 V 51.7 a 0.41,0.41 0 0 1 0.43,-0.43 z"
       transform="translate(-21.13,-30.35)"
       id="path146" />
    <path
       class="cls-1"
       d="M 690,66.48 V 76 a 0.23,0.23 0 0 0 0.26,0.26 h 1.84 a 0.4,0.4 0 0 1 0.43,0.43 V 80 a 0.4,0.4 0 0 1 -0.43,0.43 h -6.13 A 0.4,0.4 0 0 1 685.54,80 v -1.5 0 c -1,1.41 -2.87,2.4 -5.74,2.4 -3.73,0 -6.9,-2 -6.9,-6.34 0,-4.5 3.17,-6.6 8.23,-6.6 h 4.11 a 0.23,0.23 0 0 0 0.26,-0.26 v -0.81 c 0,-2.36 -0.9,-3.6 -4.24,-3.6 a 11.29,11.29 0 0 0 -2.23,0.26 c -0.17,0 -0.22,0.12 -0.22,0.3 v 1.84 a 0.41,0.41 0 0 1 -0.42,0.43 h -3.73 a 0.41,0.41 0 0 1 -0.43,-0.43 V 61.3 a 0.56,0.56 0 0 1 0.34,-0.56 16.38,16.38 0 0 1 6.9,-1.46 c 6.22,0 8.53,2.15 8.53,7.2 z m -8.14,5.06 c -3,0 -4.41,0.9 -4.41,2.83 0,1.71 1.24,2.61 3.51,2.61 2.91,0 4.5,-1.16 4.5,-3.51 V 71.8 a 0.23,0.23 0 0 0 -0.26,-0.26 z"
       transform="translate(-21.13,-30.35)"
       id="path148" />
    <path
       class="cls-1"
       d="m 728.35,51.27 a 0.41,0.41 0 0 1 0.43,0.43 v 6.86 a 0.41,0.41 0 0 1 -0.43,0.42 h -3.69 a 0.41,0.41 0 0 1 -0.43,-0.42 V 56 a 0.22,0.22 0 0 0 -0.25,-0.25 h -4.37 c -0.17,0 -0.26,0.08 -0.26,0.25 v 20 a 0.23,0.23 0 0 0 0.26,0.26 h 2.23 a 0.4,0.4 0 0 1 0.42,0.43 V 80 a 0.4,0.4 0 0 1 -0.42,0.43 h -10 A 0.4,0.4 0 0 1 711.41,80 v -3.36 a 0.4,0.4 0 0 1 0.43,-0.43 H 714 c 0.17,0 0.25,-0.09 0.25,-0.26 V 56 A 0.22,0.22 0 0 0 714,55.75 h -4.37 c -0.17,0 -0.26,0.08 -0.26,0.25 v 2.58 A 0.4,0.4 0 0 1 709,59 h -3.7 a 0.4,0.4 0 0 1 -0.43,-0.42 V 51.7 a 0.4,0.4 0 0 1 0.43,-0.43 z"
       transform="translate(-21.13,-30.35)"
       id="path150" />
    <path
       class="cls-1"
       d="m 746.21,65 a 18.54,18.54 0 0 1 0.69,6.22 0.41,0.41 0 0 1 -0.47,0.42 H 733.7 a 0.23,0.23 0 0 0 -0.26,0.26 4.59,4.59 0 0 0 0.3,1.59 4.52,4.52 0 0 0 4.63,3.12 6.18,6.18 0 0 0 4.84,-2 0.45,0.45 0 0 1 0.65,-0.08 l 2.52,2.23 a 0.38,0.38 0 0 1 0,0.6 10.91,10.91 0 0 1 -8.49,3.51 c -4.37,0 -7.45,-2.14 -8.61,-5.74 a 16,16 0 0 1 -0.73,-5.06 16.42,16.42 0 0 1 0.69,-5.1 c 1.16,-3.6 4.33,-5.7 8.44,-5.7 4.11,0 7.38,2.2 8.53,5.73 z m -12.51,1 a 5.31,5.31 0 0 0 -0.26,1.76 c 0,0.17 0.09,0.25 0.26,0.25 h 8.1 c 0.17,0 0.26,-0.08 0.26,-0.25 A 5.31,5.31 0 0 0 741.8,66 a 4.41,4.41 0 0 0 -8.1,0 z"
       transform="translate(-21.13,-30.35)"
       id="path152" />
    <path
       class="cls-1"
       d="m 767.63,60.91 a 0.56,0.56 0 0 1 0.35,0.56 v 4.71 a 0.4,0.4 0 0 1 -0.43,0.43 h -3.64 a 0.4,0.4 0 0 1 -0.43,-0.43 V 64.3 c 0,-0.17 0,-0.22 -0.22,-0.3 a 7.08,7.08 0 0 0 -2.61,-0.43 c -2.18,0 -3.64,0.9 -4.24,2.7 a 12.22,12.22 0 0 0 -0.43,3.81 12.52,12.52 0 0 0 0.43,3.86 c 0.6,1.75 2.06,2.65 4.24,2.65 a 6.64,6.64 0 0 0 2.61,-0.38 c 0.18,-0.09 0.22,-0.13 0.22,-0.3 V 74 a 0.4,0.4 0 0 1 0.43,-0.43 h 3.64 A 0.4,0.4 0 0 1 768,74 v 4.76 a 0.54,0.54 0 0 1 -0.35,0.55 15.22,15.22 0 0 1 -7.11,1.59 c -4.5,0 -7.58,-1.89 -8.78,-5.57 a 17.12,17.12 0 0 1 -0.64,-5.23 16.25,16.25 0 0 1 0.64,-5.1 c 1.2,-3.68 4.41,-5.7 8.78,-5.7 a 14.82,14.82 0 0 1 7.09,1.61 z"
       transform="translate(-21.13,-30.35)"
       id="path154" />
    <path
       class="cls-1"
       d="m 779,51.27 a 0.4,0.4 0 0 1 0.43,0.43 v 10 0 a 6.29,6.29 0 0 1 5.36,-2.4 c 4.37,0 7.11,3.26 7.11,7.67 v 9 a 0.23,0.23 0 0 0 0.26,0.26 H 794 a 0.4,0.4 0 0 1 0.43,0.43 V 80 A 0.4,0.4 0 0 1 794,80.43 h -8.91 A 0.4,0.4 0 0 1 784.66,80 v -3.36 a 0.4,0.4 0 0 1 0.43,-0.43 h 1.84 a 0.23,0.23 0 0 0 0.26,-0.26 v -7.88 c 0,-2.66 -1.28,-4.5 -3.85,-4.5 -2.57,0 -3.86,1.84 -3.86,4.5 V 76 a 0.23,0.23 0 0 0 0.26,0.26 h 1.84 a 0.4,0.4 0 0 1 0.43,0.43 V 80 a 0.4,0.4 0 0 1 -0.43,0.43 h -9 A 0.4,0.4 0 0 1 772.15,80 v -3.36 a 0.4,0.4 0 0 1 0.43,-0.43 h 1.84 a 0.23,0.23 0 0 0 0.26,-0.26 V 55.73 a 0.23,0.23 0 0 0 -0.26,-0.26 h -1.84 a 0.4,0.4 0 0 1 -0.43,-0.43 V 51.7 a 0.4,0.4 0 0 1 0.43,-0.43 z"
       transform="translate(-21.13,-30.35)"
       id="path156" />
    <path
       class="cls-1"
       d="m 544,172.22 20.56,-59.13 h 9.43 l 20.57,59.13 H 584 l -4,-12.26 h -21.4 l -4,12.26 z m 17.39,-20.83 h 15.77 l -7.88,-23.91 z"
       transform="translate(-21.13,-30.35)"
       id="path158" />
    <path
       class="cls-1"
       d="m 633.15,165.7 c -3,5.23 -7.8,7.29 -15.34,7.29 -12.25,0 -18.77,-8 -18.77,-19.37 v -5.83 c 0,-12.59 6.17,-19.19 17.4,-19.19 11.74,0 17.31,7 17.31,19.71 V 153 h -25.62 v 0.17 c 0,6.69 2.57,11.91 9.34,11.91 5,0 7.11,-1.54 8.83,-4.2 z M 608.21,146 h 16.37 c -0.34,-6.25 -2.91,-9.42 -8.14,-9.42 -5.23,0 -7.8,3.59 -8.23,9.42 z"
       transform="translate(-21.13,-30.35)"
       id="path160" />
    <path
       class="cls-1"
       d="m 667.34,140.08 a 7.11,7.11 0 0 0 -6.17,-3.34 c -4.63,0 -7.88,3.43 -7.88,9.6 v 25.88 h -9.17 v -42.85 h 9 v 3.85 c 1.63,-2.48 4.55,-4.62 9.6,-4.62 5.49,0 9.26,2.14 11.91,6.34 z"
       transform="translate(-21.13,-30.35)"
       id="path162" />
    <path
       class="cls-1"
       d="m 714.47,153.45 c 0,11.4 -5.57,19.54 -18.17,19.54 -12,0 -18.25,-7.72 -18.25,-19.54 v -5.4 c 0,-12.6 6.68,-19.45 18.25,-19.45 11.57,0 18.17,6.85 18.17,19.45 z m -9.09,-0.26 v -5 c 0,-7.45 -3,-11.65 -9.08,-11.65 -6.08,0 -9.17,4.28 -9.17,11.65 v 5 c 0,6.69 2.23,11.91 9.17,11.91 6.51,0 9.08,-5.22 9.08,-11.91 z"
       transform="translate(-21.13,-30.35)"
       id="path164" />
    <path
       class="cls-1"
       d="m 747.71,140.59 c -2.05,-2.65 -4.2,-3.85 -9.34,-3.85 -3.85,0 -6.68,1.28 -6.68,4.37 0,3.6 3.17,4.71 8.14,5.31 9.51,1.12 15.68,4.46 15.68,13.54 0,7.88 -5.4,13 -16.45,13 -8.74,0 -13.71,-2.4 -17.23,-7.12 l 6.94,-5 c 2,2.66 4.55,4 10.2,4 4.72,0 7.46,-1.71 7.46,-4.71 0,-3.52 -2.23,-4.54 -8.91,-5.4 -8.15,-1 -15,-4.46 -15,-13.45 0,-7.63 5.57,-12.77 16,-12.77 7,0 12.6,1.8 15.94,7.11 z"
       transform="translate(-21.13,-30.35)"
       id="path166" />
    <path
       class="cls-1"
       d="m 801.78,153.62 c 0,11.14 -5.48,19.37 -16.88,19.37 -5,0 -8.23,-1.2 -10.37,-3.52 v 19 h -9.17 v -59.1 h 9.17 v 3.43 c 2.14,-2.66 5.57,-4.2 10.46,-4.2 10.28,0 16.79,6.94 16.79,19.19 z m -9.08,-0.43 v -5 c 0,-7.45 -3,-11.65 -9.08,-11.65 -6.08,0 -9,4.11 -9.09,11.14 v 5.48 c 0,6.69 2.14,11.91 9.09,11.91 6.51,0.03 9.08,-5.19 9.08,-11.88 z"
       transform="translate(-21.13,-30.35)"
       id="path168" />
    <path
       class="cls-1"
       d="m 825.17,146.94 h 9.26 v -3.6 c 0,-5.4 -2.06,-6.86 -8.49,-6.86 -4.62,0 -6.94,0.52 -9,3.86 l -6.6,-4.63 c 3.08,-5.06 7.71,-7.11 16.19,-7.11 11,0 16.89,3.42 16.89,14.82 v 28.8 h -9 v -3.95 c -2.06,3.35 -4.72,4.72 -9.94,4.72 -9.43,0 -15.26,-4.8 -15.26,-13.37 0.01,-9.17 6.78,-12.68 15.95,-12.68 z m 9.26,7 h -8.57 c -5.4,0 -7.63,1.89 -7.63,5.66 0,3.94 2.92,5.57 7.29,5.57 5.57,0 8.91,-1.72 8.91,-9.17 z"
       transform="translate(-21.13,-30.35)"
       id="path170" />
    <path
       class="cls-1"
       d="m 887,165.7 c -2.83,5.06 -7.88,7.29 -15.25,7.29 -12,0 -18.86,-7.72 -18.86,-19.37 v -5.83 c 0,-12.34 7,-19.19 19.2,-19.19 6.51,0 11.91,2.4 14.91,6.94 l -7,4.88 a 9.46,9.46 0 0 0 -8,-3.85 c -6.69,0 -9.94,4.28 -9.94,11.65 v 5 c 0,6.69 2.4,11.91 9.94,11.91 3.6,0 6.51,-1.28 8.14,-4.2 z"
       transform="translate(-21.13,-30.35)"
       id="path172" />
    <path
       class="cls-1"
       d="m 926.37,165.7 c -3,5.23 -7.8,7.29 -15.34,7.29 -12.25,0 -18.77,-8 -18.77,-19.37 v -5.83 c 0,-12.59 6.17,-19.19 17.4,-19.19 11.74,0 17.31,7 17.31,19.71 V 153 h -25.62 v 0.17 c 0,6.69 2.57,11.91 9.34,11.91 5,0 7.11,-1.54 8.82,-4.2 z M 901.43,146 h 16.37 c -0.34,-6.25 -2.91,-9.42 -8.14,-9.42 -5.23,0 -7.8,3.59 -8.23,9.42 z"
       transform="translate(-21.13,-30.35)"
       id="path174" />
    <path
       class="cls-1"
       d="m 992.69,127.4 c -2.91,-4 -6.08,-6.43 -12.77,-6.43 -6.08,0 -9.68,2.74 -9.68,7.71 0,5.66 4.46,7.89 12.68,9.69 11.91,2.57 18.08,7 18.08,17.65 0,8.83 -5.91,17 -20.13,17 -10.12,0 -17.23,-3.09 -22.11,-9.69 l 7.8,-5.4 c 3.51,4.2 7,6.43 13.79,6.43 8.14,0 10.71,-3.6 10.71,-7.88 0,-4.72 -2.65,-7.63 -12.94,-9.86 -11.39,-2.4 -17.82,-7.88 -17.82,-17.91 0,-8.91 5.83,-16.36 19.71,-16.36 9.43,0 16,3.17 20.22,9.68 z"
       transform="translate(-21.13,-30.35)"
       id="path176" />
    <path
       class="cls-1"
       d="m 1014.2,129.37 10.88,30.16 9.77,-30.16 h 9.43 l -15.09,44.56 c -3.68,11 -6.85,14.57 -18.85,14.57 v -8.4 c 6,0 8.4,-0.94 10.54,-7.37 l -16.37,-43.36 z"
       transform="translate(-21.13,-30.35)"
       id="path178" />
    <path
       class="cls-1"
       d="m 1074.78,140.59 c -2.06,-2.65 -4.2,-3.85 -9.34,-3.85 -3.86,0 -6.69,1.28 -6.69,4.37 0,3.6 3.17,4.71 8.15,5.31 9.51,1.12 15.68,4.46 15.68,13.54 0,7.88 -5.4,13 -16.46,13 -8.74,0 -13.71,-2.4 -17.22,-7.12 l 6.94,-5 c 2,2.66 4.54,4 10.2,4 4.71,0 7.45,-1.71 7.45,-4.71 0,-3.52 -2.22,-4.54 -8.91,-5.4 -8.14,-1 -15,-4.46 -15,-13.45 0,-7.63 5.57,-12.77 16,-12.77 7,0 12.6,1.8 15.94,7.11 z"
       transform="translate(-21.13,-30.35)"
       id="path180" />
    <path
       class="cls-1"
       d="m 1089,129.37 h 5.49 v -9.43 h 9.08 v 9.43 h 9.08 v 7.88 h -9.08 v 19.63 c 0,5 0.77,7.11 5.57,7.11 h 3.51 v 8.23 h -4.2 c -10.28,0 -14,-3.52 -14,-13.63 V 137.25 H 1089 Z"
       transform="translate(-21.13,-30.35)"
       id="path182" />
    <path
       class="cls-1"
       d="m 1154,165.7 c -3,5.23 -7.8,7.29 -15.34,7.29 -12.25,0 -18.77,-8 -18.77,-19.37 v -5.83 c 0,-12.59 6.17,-19.19 17.4,-19.19 11.74,0 17.31,7 17.31,19.71 V 153 H 1129 v 0.17 c 0,6.69 2.57,11.91 9.34,11.91 5.05,0 7.11,-1.54 8.82,-4.2 z M 1129.1,146 h 16.37 c -0.34,-6.25 -2.91,-9.42 -8.14,-9.42 -5.23,0 -7.8,3.59 -8.23,9.42 z"
       transform="translate(-21.13,-30.35)"
       id="path184" />
    <path
       class="cls-1"
       d="m 1165,129.37 h 9 v 3.85 c 1.72,-2.57 5,-4.62 10,-4.62 5.4,0 9.68,2.14 12.25,6.17 a 15.07,15.07 0 0 1 12.51,-6.17 c 9.26,0 14.83,5.65 14.83,16.79 v 26.83 h -9.17 v -25.8 c 0,-7 -2.91,-9.68 -7.63,-9.68 -4.54,0 -7.79,3.43 -8,9.17 v 26.31 h -9.08 v -25.8 c 0,-7.28 -3.17,-9.68 -7.54,-9.68 -4.71,0 -8.06,3.6 -8.06,9.6 v 25.88 H 1165 Z"
       transform="translate(-21.13,-30.35)"
       id="path186" />
    <path
       class="cls-1"
       d="m 1258.66,140.59 c -2.06,-2.65 -4.2,-3.85 -9.34,-3.85 -3.86,0 -6.68,1.28 -6.68,4.37 0,3.6 3.17,4.71 8.14,5.31 9.51,1.12 15.68,4.46 15.68,13.54 0,7.88 -5.4,13 -16.45,13 -8.74,0 -13.71,-2.4 -17.23,-7.12 l 6.94,-5 c 2,2.66 4.54,4 10.2,4 4.71,0 7.46,-1.71 7.46,-4.71 0,-3.52 -2.23,-4.54 -8.92,-5.4 -8.14,-1 -15,-4.46 -15,-13.45 0,-7.63 5.57,-12.77 16,-12.77 7,0 12.6,1.8 15.94,7.11 z"
       transform="translate(-21.13,-30.35)"
       id="path188" />
    <path
       class="cls-1"
       d="m 550.29,264 v -59.11 h 20 c 13.28,0 22.19,7.12 22.19,26.06 v 7 c 0,18.94 -8.91,26 -22.19,26 z m 32.22,-26 v -7 c 0,-12.17 -3.77,-17.4 -12.25,-17.4 h -10 v 41.9 h 10 c 8.48,-0.05 12.25,-5.36 12.25,-17.5 z"
       transform="translate(-21.13,-30.35)"
       id="path190" />
    <path
       class="cls-1"
       d="m 635.29,257.51 c -3,5.23 -7.79,7.28 -15.34,7.28 -12.25,0 -18.76,-8 -18.76,-19.36 v -5.83 c 0,-12.6 6.17,-19.2 17.39,-19.2 11.74,0 17.31,7 17.31,19.71 v 4.72 H 610.27 V 245 c 0,6.68 2.57,11.91 9.34,11.91 5.06,0 7.11,-1.54 8.83,-4.2 z M 610.36,237.8 h 16.36 c -0.34,-6.25 -2.91,-9.43 -8.14,-9.43 -5.23,0 -7.79,3.63 -8.22,9.43 z"
       transform="translate(-21.13,-30.35)"
       id="path192" />
    <path
       class="cls-1"
       d="m 670,232.4 c -2.06,-2.65 -4.2,-3.85 -9.34,-3.85 -3.86,0 -6.69,1.28 -6.69,4.37 0,3.59 3.17,4.71 8.14,5.31 9.51,1.11 15.68,4.45 15.68,13.54 0,7.88 -5.39,13 -16.45,13 -8.74,0 -13.71,-2.4 -17.22,-7.11 l 6.94,-5 c 2,2.66 4.54,4 10.2,4 4.71,0 7.45,-1.72 7.45,-4.71 0,-3.52 -2.23,-4.55 -8.91,-5.4 -8.14,-1 -15,-4.46 -15,-13.46 0,-7.62 5.57,-12.77 16,-12.77 7,0 12.59,1.8 15.94,7.12 z"
       transform="translate(-21.13,-30.35)"
       id="path194" />
    <path
       class="cls-1"
       d="m 688.5,204.89 h 10 v 9.34 h -10 z m 0.43,16.29 h 9.17 V 264 h -9.17 z"
       transform="translate(-21.13,-30.35)"
       id="path196" />
    <path
       class="cls-1"
       d="m 736.23,221.18 h 9.08 v 42 c 0,13.19 -7.54,17.65 -18.68,17.65 -7.71,0 -12.51,-2 -15.94,-7.46 l 6.43,-4.62 c 1.89,2.82 4.54,4.28 9.26,4.28 6.85,0 9.85,-2.91 9.85,-9.85 v -2 q -3.47,3.6 -10.28,3.6 c -11.4,0 -17.05,-8.14 -17.05,-19.36 v -5.82 c 0,-12.34 6.68,-19.2 17.05,-19.2 4.63,0 8,1.38 10.28,3.77 z m 0,23.82 v -5 c 0,-7.37 -3,-11.66 -9.08,-11.66 -6.08,0 -9.15,4.23 -9.15,11.66 v 5 c 0,6.68 2.57,11.91 9.17,11.91 6.83,0 9.06,-5.23 9.06,-11.91 z"
       transform="translate(-21.13,-30.35)"
       id="path198" />
    <path
       class="cls-1"
       d="m 756.71,221.18 h 9 V 225 c 1.88,-2.57 5,-4.63 10.62,-4.63 8.83,0 15.6,4.46 15.6,16.8 V 264 h -9.08 v -25.77 c 0,-7.54 -3.43,-9.68 -8.15,-9.68 -5.65,0 -8.82,3.85 -8.82,9.59 V 264 h -9.17 z"
       transform="translate(-21.13,-30.35)"
       id="path200" />
    <path
       class="cls-1"
       d="m 837.85,255.45 h 26.31 V 264 h -36.25 v -59.11 h 9.94 z"
       transform="translate(-21.13,-30.35)"
       id="path202" />
    <path
       class="cls-1"
       d="M 884.72,238.74 H 894 v -3.6 c 0,-5.39 -2.06,-6.85 -8.48,-6.85 -4.63,0 -7,0.51 -9,3.85 l -6.6,-4.62 c 3.08,-5.06 7.71,-7.12 16.2,-7.12 11,0 16.88,3.43 16.88,14.83 V 264 h -9 v -3.94 c -2.06,3.34 -4.71,4.71 -9.94,4.71 -9.43,0 -15.25,-4.79 -15.25,-13.36 -0.02,-9.15 6.75,-12.67 15.91,-12.67 z m 9.26,7 h -8.57 c -5.4,0 -7.63,1.89 -7.63,5.66 0,3.94 2.92,5.57 7.29,5.57 5.57,0 8.91,-1.72 8.91,-9.17 z"
       transform="translate(-21.13,-30.35)"
       id="path204" />
    <path
       class="cls-1"
       d="m 923.11,224.52 c 2.31,-2.83 5.74,-4.12 10.28,-4.12 10.46,0 17.06,6.86 17.06,19.46 v 5.4 c 0,11.39 -5.57,19.53 -17.06,19.53 -4.79,0 -8.14,-1.28 -10.28,-3.85 V 264 h -8.82 v -59.11 h 8.82 z M 941.28,245 v -5 c 0,-7.46 -2.92,-11.66 -9.09,-11.66 -5.91,0 -9,4.12 -9.08,11.14 V 245 c 0,6.68 2.4,11.91 9.08,11.91 6.68,0 9.09,-5.23 9.09,-11.91 z"
       transform="translate(-21.13,-30.35)"
       id="path206" />
    <path
       class="cls-1"
       d="m 994.58,245.26 c 0,11.39 -5.57,19.53 -18.17,19.53 -12,0 -18.25,-7.71 -18.25,-19.53 v -5.4 c 0,-12.6 6.68,-19.46 18.25,-19.46 11.57,0 18.17,6.86 18.17,19.46 z M 985.49,245 v -5 c 0,-7.46 -3,-11.66 -9.08,-11.66 -6.08,0 -9.17,4.29 -9.17,11.66 v 5 c 0,6.68 2.23,11.91 9.17,11.91 6.51,0 9.08,-5.23 9.08,-11.91 z"
       transform="translate(-21.13,-30.35)"
       id="path208" />
    <path
       class="cls-1"
       d="m 1027.31,231.89 a 7.11,7.11 0 0 0 -6.17,-3.34 c -4.63,0 -7.89,3.42 -7.89,9.59 V 264 h -9.16 v -42.82 h 9 V 225 c 1.63,-2.48 4.54,-4.63 9.6,-4.63 5.48,0 9.26,2.15 11.91,6.35 z"
       transform="translate(-21.13,-30.35)"
       id="path210" />
    <path
       class="cls-1"
       d="m 1053.19,238.74 h 9.25 v -3.6 c 0,-5.39 -2.06,-6.85 -8.48,-6.85 -4.63,0 -6.94,0.51 -9,3.85 l -6.6,-4.62 c 3.09,-5.06 7.71,-7.12 16.2,-7.12 11,0 16.88,3.43 16.88,14.83 V 264 h -9 v -3.94 c -2.06,3.34 -4.71,4.71 -9.94,4.71 -9.43,0 -15.25,-4.79 -15.25,-13.36 0,-9.15 6.75,-12.67 15.94,-12.67 z m 9.25,7 h -8.57 c -5.4,0 -7.63,1.89 -7.63,5.66 0,3.94 2.92,5.57 7.29,5.57 5.57,0 8.91,-1.72 8.91,-9.17 z"
       transform="translate(-21.13,-30.35)"
       id="path212" />
    <path
       class="cls-1"
       d="m 1079.32,221.18 h 5.48 v -9.43 h 9.09 v 9.43 h 9.11 v 7.88 h -9.08 v 19.62 c 0,5 0.77,7.12 5.57,7.12 h 3.51 v 8.2 h -4.2 c -10.28,0 -14,-3.51 -14,-13.62 v -21.32 h -5.48 z"
       transform="translate(-21.13,-30.35)"
       id="path214" />
    <path
       class="cls-1"
       d="m 1146.67,245.26 c 0,11.39 -5.57,19.53 -18.17,19.53 -12,0 -18.25,-7.71 -18.25,-19.53 v -5.4 c 0,-12.6 6.68,-19.46 18.25,-19.46 11.57,0 18.17,6.86 18.17,19.46 z m -9.08,-0.26 v -5 c 0,-7.46 -3,-11.66 -9.09,-11.66 -6.09,0 -9.17,4.29 -9.17,11.66 v 5 c 0,6.68 2.23,11.91 9.17,11.91 6.5,0 9.09,-5.23 9.09,-11.91 z"
       transform="translate(-21.13,-30.35)"
       id="path216" />
    <path
       class="cls-1"
       d="m 1179.4,231.89 a 7.11,7.11 0 0 0 -6.17,-3.34 c -4.63,0 -7.88,3.42 -7.88,9.59 V 264 h -9.17 v -42.82 h 9 V 225 c 1.62,-2.48 4.54,-4.63 9.59,-4.63 5.49,0 9.26,2.15 11.91,6.35 z"
       transform="translate(-21.13,-30.35)"
       id="path218" />
    <path
       class="cls-1"
       d="m 1197.48,221.18 10.88,30.16 9.77,-30.16 h 9.43 l -15.08,44.56 c -3.69,11 -6.86,14.56 -18.86,14.56 v -8.39 c 6,0 8.4,-1 10.54,-7.37 l -16.36,-43.36 z"
       transform="translate(-21.13,-30.35)"
       id="path220" />
    <rect
       class="cls-2"
       x="485.53"
       y="31.709999"
       width="4.5900002"
       height="251.63"
       transform="rotate(-0.08,-21253.087,15283.138)"
       id="rect222" />
    <path
       class="cls-2"
       d="m 379,268.79 v 0 a 7.28,7.28 0 1 0 7.16,7.26 7.21,7.21 0 0 0 -7.16,-7.26 z m 0,13.43 a 6.15,6.15 0 0 1 0,-12.29 v 0 a 6.15,6.15 0 0 1 0,12.29 z"
       transform="translate(-21.13,-30.35)"
       id="path224" />
    <path
       class="cls-2"
       d="m 380.28,276.31 v -0.06 a 2,2 0 0 0 1.58,-2 2,2 0 0 0 -0.74,-1.68 4.28,4.28 0 0 0 -2.51,-0.61 14.28,14.28 0 0 0 -2.3,0.19 v 8.1 h 1.3 v -3.49 h 0.9 a 1.52,1.52 0 0 1 1.74,1.43 5.79,5.79 0 0 0 0.55,2.06 h 1.35 a 6.6,6.6 0 0 1 -0.51,-2 c -0.17,-1.16 -0.64,-1.81 -1.36,-1.94 z m -1.74,-0.51 h -0.93 v -2.75 a 6.6,6.6 0 0 1 0.93,-0.06 c 1.45,0 2,0.71 2,1.42 -0.03,1 -0.93,1.39 -2,1.39 z"
       transform="translate(-21.13,-30.35)"
       id="path226" />
    <path
       class="cls-2"
       d="M 149.55,32.25 Z"
       transform="translate(-21.13,-30.35)"
       id="path228" />
    <path
       class="cls-2"
       d="m 183.05,111.56 v 63.28 H 217 l 3.57,-19 h 15.27 c -5.59,28.94 -34.37,49 -70.88,49 -2.49,0 -5,-0.09 -7.54,-0.29 -20.2,-1.56 -38.78,-8.07 -52.33,-18.33 C 90.17,174.91 82.32,159.78 82.4,142.46 a 64.58,64.58 0 0 1 22.26,-48.51 c 13.66,-12.11 31.9,-19.24 51.35,-20.08 1.22,0 2.46,-0.08 3.69,-0.08 22.81,0 47.29,9 65.48,24 0.93,0.76 1.14,0.92 1.37,1.08 a 16.28,16.28 0 0 1 1.3,1.05 l 0.53,0.44 h 39 V 32.23 h -39.5 V 51.75 C 211.25,41.09 182.8,30.36 149.59,30.35 H 149 A 136.83,136.83 0 0 0 52.5,70.87 c -20.56,20.91 -31.7,46.47 -31.37,72 0.36,27.43 13.58,53 37.22,72 22.65,18.13 53.31,28.54 84.15,28.54 3.81,0 7.67,-0.16 11.46,-0.46 30.54,-2.49 57.62,-9.45 76.75,-19.7 l -0.07,8.43 h 41.95 V 155.9 h 14.49 v 87.89 h -21.86 v 39.53 h 97.56 v -39.53 h -21.86 v -87.93 h 49.4 l 3.44,19 h 34.11 v -63.3 z m -33.5,-79.31 z"
       transform="translate(-21.13,-30.35)"
       id="path230" />
  </g>
</svg>
