<?xml version="1.0" encoding="UTF-8"?>
<!DOCTYPE svg PUBLIC "-//W3C//DTD SVG 1.1//EN" "http://www.w3.org/Graphics/SVG/1.1/DTD/svg11.dtd">
<svg version="1.1" xmlns="http://www.w3.org/2000/svg" xmlns:xlink="http://www.w3.org/1999/xlink" x="0" y="0" width="533" height="181.498" viewBox="0, 0, 533, 181.498">
  <g id="Layer_1">
    <path d="M7.238,180.665 L7.238,160.833 L0,160.833 L0,156.635 L19.543,156.635 L19.543,160.833 L12.269,160.833 L12.269,180.665 z" fill="#286AA6"/>
    <path d="M43.175,180.665 L43.175,156.635 L60.835,156.635 L60.835,160.833 L48.061,160.833 L48.061,165.972 L59.822,165.972 L59.822,170.206 L48.061,170.206 L48.061,176.394 L61.415,176.394 L61.415,180.665 z" fill="#286AA6"/>
    <path d="M106.039,172.414 C105.772,173.789 105.352,175.032 104.77,176.142 C104.192,177.251 103.462,178.204 102.581,179 C101.701,179.797 100.682,180.412 99.522,180.846 C98.365,181.28 97.087,181.497 95.686,181.497 C94.119,181.497 92.653,181.231 91.29,180.701 C89.927,180.171 88.751,179.375 87.762,178.312 C86.773,177.251 85.993,175.942 85.428,174.386 C84.86,172.83 84.578,171.015 84.578,168.939 C84.578,166.913 84.835,165.085 85.354,163.456 C85.873,161.828 86.615,160.452 87.581,159.331 C88.545,158.209 89.722,157.347 91.108,156.743 C92.496,156.141 94.046,155.838 95.759,155.838 C97.255,155.838 98.613,156.062 99.831,156.508 C101.05,156.954 102.1,157.569 102.979,158.353 C103.86,159.138 104.559,160.06 105.08,161.122 C105.597,162.185 105.917,163.318 106.039,164.524 L101.007,164.524 C100.669,163.148 100.018,162.081 99.054,161.321 C98.087,160.562 97.001,160.182 95.796,160.182 C93.697,160.182 92.152,160.935 91.164,162.443 C90.175,163.951 89.679,166.02 89.679,168.649 C89.679,171.328 90.169,173.409 91.145,174.893 C92.123,176.376 93.589,177.118 95.542,177.118 C97.039,177.118 98.24,176.715 99.143,175.906 C100.048,175.098 100.669,173.934 101.007,172.414 z" fill="#286AA6"/>
    <path d="M143.892,180.665 L143.892,169.88 L134.519,169.88 L134.519,180.665 L129.488,180.665 L129.488,156.635 L134.519,156.635 L134.519,165.683 L143.892,165.683 L143.892,156.635 L148.958,156.635 L148.958,180.665 z" fill="#286AA6"/>
    <path d="M188.117,180.665 L177.84,164.524 L177.84,180.665 L173.17,180.665 L173.17,156.635 L178.49,156.635 L188.045,172.088 L188.045,156.635 L192.75,156.635 L192.75,180.665 z" fill="#286AA6"/>
    <path d="M228.253,177.191 C229.144,177.191 229.989,177.029 230.786,176.703 C231.581,176.377 232.274,175.882 232.866,175.219 C233.458,174.555 233.921,173.705 234.261,172.668 C234.597,171.63 234.767,170.4 234.767,168.976 C234.767,166.129 234.212,163.97 233.103,162.498 C231.991,161.027 230.374,160.291 228.253,160.291 C226.128,160.291 224.501,161.027 223.366,162.498 C222.231,163.97 221.665,166.129 221.665,168.976 C221.665,171.823 222.239,173.904 223.384,175.219 C224.53,176.534 226.153,177.191 228.253,177.191 M228.253,181.498 C224.536,181.498 221.685,180.413 219.692,178.241 C217.702,176.069 216.708,172.945 216.708,168.868 C216.708,166.84 216.96,165.019 217.468,163.403 C217.974,161.787 218.722,160.417 219.712,159.296 C220.7,158.173 221.907,157.317 223.331,156.725 C224.753,156.134 226.394,155.838 228.253,155.838 C230.085,155.838 231.72,156.134 233.155,156.725 C234.591,157.317 235.792,158.179 236.757,159.313 C237.722,160.448 238.458,161.829 238.964,163.457 C239.472,165.086 239.724,166.925 239.724,168.976 C239.724,173.127 238.741,176.251 236.774,178.349 C234.808,180.449 231.968,181.498 228.253,181.498" fill="#286AA6"/>
    <path d="M263.718,180.665 L263.718,156.635 L268.749,156.635 L268.749,176.286 L280.655,176.286 L280.655,180.665 z" fill="#286AA6"/>
    <path d="M314.167,177.191 C315.06,177.191 315.905,177.029 316.7,176.703 C317.497,176.377 318.191,175.882 318.782,175.219 C319.372,174.555 319.837,173.705 320.175,172.668 C320.513,171.63 320.681,170.4 320.681,168.976 C320.681,166.129 320.126,163.97 319.017,162.498 C317.907,161.027 316.29,160.291 314.167,160.291 C312.044,160.291 310.415,161.027 309.282,162.498 C308.147,163.97 307.581,166.129 307.581,168.976 C307.581,171.823 308.153,173.904 309.3,175.219 C310.444,176.534 312.067,177.191 314.167,177.191 M314.167,181.498 C310.452,181.498 307.599,180.413 305.608,178.241 C303.618,176.069 302.622,172.945 302.622,168.868 C302.622,166.84 302.876,165.019 303.382,163.403 C303.89,161.787 304.636,160.417 305.626,159.296 C306.616,158.173 307.821,157.317 309.245,156.725 C310.669,156.134 312.31,155.838 314.167,155.838 C316.001,155.838 317.636,156.134 319.071,156.725 C320.507,157.317 321.706,158.179 322.673,159.313 C323.636,160.448 324.372,161.829 324.88,163.457 C325.386,165.086 325.64,166.925 325.64,168.976 C325.64,173.127 324.657,176.251 322.691,178.349 C320.724,180.449 317.882,181.498 314.167,181.498" fill="#286AA6"/>
    <path d="M367.548,180.665 L367.439,178.276 C366.861,179.29 365.931,180.08 364.653,180.646 C363.374,181.214 361.901,181.497 360.237,181.497 C358.573,181.497 357.071,181.142 355.732,180.43 C354.394,179.719 353.247,178.765 352.294,177.57 C351.341,176.376 350.611,175.001 350.105,173.445 C349.597,171.889 349.345,170.278 349.345,168.613 C349.345,166.852 349.597,165.193 350.105,163.638 C350.611,162.081 351.358,160.724 352.349,159.566 C353.337,158.408 354.568,157.497 356.04,156.834 C357.511,156.17 359.224,155.838 361.179,155.838 C362.603,155.838 363.935,156.044 365.177,156.453 C366.419,156.864 367.505,157.431 368.435,158.154 C369.362,158.878 370.111,159.741 370.679,160.742 C371.245,161.743 371.577,162.848 371.673,164.054 L366.607,164.054 C366.534,163.499 366.341,162.974 366.028,162.479 C365.714,161.985 365.316,161.557 364.833,161.194 C364.351,160.833 363.79,160.543 363.151,160.326 C362.511,160.108 361.855,160 361.179,160 C359.151,160 357.528,160.755 356.312,162.262 C355.093,163.77 354.483,165.96 354.483,168.831 C354.483,169.82 354.61,170.815 354.862,171.816 C355.116,172.818 355.515,173.723 356.058,174.53 C356.601,175.34 357.294,175.996 358.138,176.503 C358.983,177.01 359.983,177.263 361.142,177.263 C361.962,177.263 362.728,177.118 363.441,176.829 C364.151,176.539 364.773,176.142 365.304,175.635 C365.835,175.128 366.251,174.543 366.552,173.879 C366.855,173.216 367.005,172.511 367.005,171.762 L361.685,171.762 L361.685,167.745 L371.71,167.745 L371.71,180.665 z" fill="#286AA6"/>
    <path d="M398.853,156.635 L403.884,156.635 L403.884,180.665 L398.853,180.665 z" fill="#286AA6"/>
    <path d="M428.13,180.665 L428.13,156.635 L445.79,156.635 L445.79,160.833 L433.015,160.833 L433.015,165.972 L444.778,165.972 L444.778,170.206 L433.015,170.206 L433.015,176.394 L446.37,176.394 L446.37,180.665 z" fill="#286AA6"/>
    <path d="M483.429,163.728 C483.308,162.498 482.863,161.582 482.089,160.978 C481.318,160.375 480.159,160.073 478.617,160.073 C475.769,160.073 474.345,161.05 474.345,163.004 C474.345,163.705 474.64,164.289 475.232,164.76 C475.824,165.23 476.771,165.623 478.074,165.936 C479.616,166.298 480.956,166.636 482.089,166.95 C483.224,167.263 484.261,167.625 485.202,168.035 C485.734,168.252 486.234,168.524 486.704,168.849 C487.175,169.175 487.574,169.58 487.898,170.062 C488.224,170.544 488.484,171.123 488.677,171.799 C488.87,172.474 488.966,173.295 488.966,174.26 C488.966,175.417 488.724,176.444 488.241,177.336 C487.759,178.229 487.109,178.983 486.288,179.598 C485.468,180.213 484.503,180.684 483.394,181.009 C482.283,181.335 481.113,181.498 479.882,181.498 C476.384,181.498 473.753,180.822 471.993,179.471 C470.232,178.121 469.302,176.118 469.206,173.463 L474.056,173.463 C474.079,174.694 474.581,175.666 475.558,176.376 C476.534,177.089 477.759,177.445 479.232,177.445 C480.824,177.445 482.029,177.155 482.851,176.576 C483.669,175.996 484.081,175.213 484.081,174.223 C484.081,173.838 484.033,173.482 483.935,173.156 C483.839,172.83 483.652,172.535 483.374,172.269 C483.097,172.004 482.718,171.769 482.236,171.564 C481.751,171.359 481.124,171.171 480.353,171.002 C478.519,170.617 476.933,170.224 475.593,169.827 C474.255,169.428 473.152,168.934 472.283,168.342 C471.413,167.751 470.775,167.034 470.365,166.189 C469.954,165.345 469.749,164.271 469.749,162.968 C469.749,161.979 469.931,161.05 470.292,160.182 C470.654,159.313 471.208,158.559 471.956,157.919 C472.704,157.281 473.626,156.774 474.726,156.4 C475.824,156.026 477.12,155.838 478.617,155.838 C480.064,155.838 481.366,156.026 482.525,156.4 C483.683,156.774 484.677,157.304 485.509,157.992 C486.343,158.68 486.988,159.512 487.447,160.49 C487.904,161.466 488.158,162.546 488.206,163.728 z" fill="#286AA6"/>
    <path d="M464.699,89.888 C464.082,86.302 463.824,82.608 462.779,79.153 C460.111,70.342 454.732,64.042 445.08,62.887 C436.537,61.865 429.129,64.579 424.654,72.151 C417.877,83.611 417.619,95.707 424.324,107.202 C432.332,120.935 451.222,120.834 459.726,107.389 C463.078,102.085 464.353,96.182 464.699,89.888 M487.904,130.213 L465.562,130.213 C465.404,129.141 465.244,128.094 465.133,127.336 C459.728,128.67 454.502,130.461 449.133,131.183 C437.172,132.793 425.535,131.383 415.068,124.882 C401.039,116.169 395.523,102.997 396.668,86.975 C398.539,60.817 418.25,50.62 434.814,48.66 C446.424,47.286 457.496,48.648 468.222,54.219 C468.607,52.975 468.945,51.884 469.334,50.638 L487.904,50.638 z" fill="#233881"/>
    <path d="M117.472,19.867 L139.732,19.867 L139.732,60.832 C152.224,47.038 177.833,44.882 190.113,57.938 C195.677,63.856 198.089,71.249 198.24,79.111 C198.558,95.685 198.355,112.267 198.355,128.847 L198.351,130.178 L175.972,130.178 L175.972,126.733 C175.972,112.898 176.011,99.066 175.937,85.233 C175.923,82.814 175.681,80.339 175.122,77.988 C172.949,68.815 165.904,64.082 156.226,65.101 C147.027,66.07 139.876,73.35 139.812,82.165 C139.701,96.911 139.779,111.661 139.777,126.411 L139.777,130.181 L117.472,130.181 z" fill="#233881"/>
    <path d="M312.134,94.766 L260.394,94.766 L260.394,81.791 L287.984,81.791 C288.136,73.313 279.509,64.138 270.853,63.185 C258.952,61.875 250.114,67.513 246.62,78.936 C243.777,88.23 244.021,97.478 248.657,106.174 C255.956,119.871 277.111,120.672 287.032,108.778 C292.593,111.221 298.224,113.499 304.032,115.923 C300.183,120.958 295.462,124.46 290.046,126.9 C275.753,133.337 261.087,133.989 246.517,128.206 C227.595,120.698 219.714,103.675 222.068,84.453 C224.769,62.4 241.861,50.55 261.491,48.703 C273.323,47.59 284.612,49.07 294.904,55.448 C308.286,63.744 314.575,79.492 312.134,94.766" fill="#233881"/>
    <path d="M94.166,36.406 L58.726,36.406 L58.726,130.101 L36.069,130.101 L36.083,126.372 C36.073,97.687 36.076,65.053 36.073,36.365 L32.036,36.366 C21.669,36.363 11.3,36.365 0.653,36.365 L0.653,19.708 L94.166,19.708 z" fill="#233881"/>
    <path d="M366.023,50.634 L366.037,53.99 C366.045,78.174 365.99,105.963 366.111,130.145 L343.359,130.145 L343.359,50.858 C350.773,54.839 358.252,54.898 366.023,50.634" fill="#233881"/>
    <path d="M354.392,0.048 C365.361,0.063 373.468,8.299 373.441,19.4 C373.419,29.979 364.875,38.554 354.29,38.623 C343.915,38.691 334.664,29.584 334.912,19.135 C335.22,6.348 345.779,-0.656 354.392,0.048" fill="#286AA6"/>
    <path d="M512.579,13.17 C502.58,13.17 494.446,21.304 494.446,31.301 C494.446,41.299 502.58,49.432 512.579,49.432 C522.577,49.432 530.71,41.299 530.71,31.301 C530.71,21.304 522.577,13.17 512.579,13.17 M512.579,51.19 C501.611,51.19 492.688,42.268 492.688,31.301 C492.688,20.333 501.611,11.411 512.579,11.411 C523.545,11.411 532.469,20.333 532.469,31.301 C532.469,42.268 523.545,51.19 512.579,51.19" fill="#233881"/>
    <path d="M516.489,25.316 C516.489,24.315 516.265,23.469 515.819,22.778 C515.368,22.087 514.619,21.589 513.566,21.286 C513.235,21.195 512.864,21.128 512.449,21.09 C512.035,21.049 511.49,21.03 510.822,21.03 L507.955,21.03 L507.955,29.641 L511.274,29.641 C512.169,29.641 512.943,29.533 513.594,29.315 C514.248,29.099 514.79,28.796 515.224,28.406 C515.659,28.019 515.979,27.56 516.183,27.034 C516.387,26.508 516.489,25.935 516.489,25.316 M521.603,43.269 C521.603,43.376 521.584,43.468 521.545,43.547 C521.506,43.626 521.42,43.691 521.288,43.744 C521.156,43.797 520.972,43.835 520.734,43.862 C520.497,43.89 520.182,43.902 519.786,43.902 C519.445,43.902 519.164,43.89 518.947,43.862 C518.729,43.835 518.557,43.793 518.425,43.733 C518.291,43.675 518.191,43.593 518.119,43.487 C518.047,43.382 517.984,43.25 517.931,43.091 L515.579,37.068 C515.303,36.384 515.017,35.754 514.721,35.182 C514.424,34.609 514.072,34.115 513.666,33.7 C513.256,33.286 512.778,32.963 512.222,32.732 C511.67,32.502 511.005,32.388 510.226,32.388 L507.955,32.388 L507.955,43.269 C507.955,43.376 507.927,43.468 507.867,43.547 C507.807,43.626 507.716,43.688 507.589,43.733 C507.465,43.781 507.294,43.82 507.076,43.853 C506.859,43.886 506.587,43.902 506.26,43.902 C505.927,43.902 505.655,43.886 505.44,43.853 C505.22,43.82 505.046,43.781 504.914,43.733 C504.782,43.688 504.691,43.626 504.638,43.547 C504.584,43.468 504.561,43.376 504.561,43.269 L504.561,19.607 C504.561,19.093 504.694,18.735 504.964,18.531 C505.234,18.327 505.523,18.225 505.824,18.225 L511.253,18.225 C511.9,18.225 512.436,18.242 512.864,18.276 C513.295,18.307 513.676,18.344 514.019,18.383 C515.008,18.553 515.878,18.824 516.636,19.194 C517.394,19.561 518.029,20.029 518.543,20.595 C519.056,21.162 519.442,21.809 519.698,22.54 C519.955,23.27 520.083,24.078 520.083,24.961 C520.083,25.817 519.969,26.584 519.739,27.261 C519.51,27.94 519.176,28.54 518.74,29.058 C518.305,29.579 517.785,30.029 517.18,30.411 C516.575,30.794 515.896,31.116 515.145,31.38 C515.567,31.565 515.949,31.799 516.292,32.08 C516.633,32.363 516.955,32.702 517.252,33.098 C517.546,33.492 517.825,33.948 518.089,34.461 C518.353,34.975 518.615,35.553 518.879,36.199 L521.17,41.829 C521.355,42.302 521.473,42.634 521.524,42.826 C521.58,43.016 521.603,43.164 521.603,43.269" fill="#233881"/>
  </g>
</svg>
