<?xml version="1.0" encoding="UTF-8" standalone="no"?>
<svg
   viewBox="0 0 349.65 82.5"
   class="robonation-logo-desktop"
   version="1.1"
   id="svg12"
   sodipodi:docname="logo_robonation.svg"
   xml:space="preserve"
   inkscape:version="1.4.3 (0d15f75042, 2025-12-25)"
   xmlns:inkscape="http://www.inkscape.org/namespaces/inkscape"
   xmlns:sodipodi="http://sodipodi.sourceforge.net/DTD/sodipodi-0.dtd"
   xmlns="http://www.w3.org/2000/svg"
   xmlns:svg="http://www.w3.org/2000/svg"
   xmlns:rdf="http://www.w3.org/1999/02/22-rdf-syntax-ns#"
   xmlns:cc="http://creativecommons.org/ns#"
   xmlns:dc="http://purl.org/dc/elements/1.1/"><defs
     id="defs12" /><sodipodi:namedview
     id="namedview12"
     pagecolor="#ffffff"
     bordercolor="#000000"
     borderopacity="0.25"
     inkscape:showpageshadow="2"
     inkscape:pageopacity="0.0"
     inkscape:pagecheckerboard="0"
     inkscape:deskcolor="#d1d1d1"
     inkscape:zoom="2.004862"
     inkscape:cx="182.5562"
     inkscape:cy="27.433309"
     inkscape:window-width="1503"
     inkscape:window-height="933"
     inkscape:window-x="0"
     inkscape:window-y="0"
     inkscape:window-maximized="1"
     inkscape:current-layer="svg12" /><title
     id="title1">RoboNation Logo</title><g
     class="group-1"
     id="g4"
     style="fill:#f7941d;fill-opacity:1"><path
       class="cls-1"
       d="M117.46,35.46c-3.42,0-5.79.47-7.1,1.43a3.81,3.81,0,0,0-1.43,3.28V58.09h-5.51V40.21q0-10.22,14-10.21Z"
       id="path1"
       style="fill:#f7941d;fill-opacity:1" /><path
       class="cls-1"
       d="M146.24,44.07q0,14-13.09,14T120,44.07Q120,30,133.15,30T146.24,44.07Zm-5.51,0c0-2.87-.48-5-1.43-6.22-1.17-1.6-3.22-2.39-6.15-2.39s-5,.79-6.15,2.39c-1,1.27-1.43,3.35-1.43,6.22s.48,4.94,1.43,6.22q1.75,2.34,6.15,2.34t6.15-2.34Q140.73,48.37,140.73,44.07Z"
       id="path2"
       style="fill:#f7941d;fill-opacity:1" /><path
       class="cls-1"
       d="M176.72,44.07q0,14-13.15,14T150.48,44V18.92H156V30h7.58Q176.71,30,176.72,44.07Zm-5.52,0c0-2.87-.47-5-1.43-6.22-1.2-1.6-3.27-2.39-6.2-2.39H156v8.61q0,4.24,1.43,6.17,1.76,2.38,6.15,2.39t6.2-2.39C170.73,49,171.2,46.9,171.2,44.07Z"
       id="path3"
       style="fill:#f7941d;fill-opacity:1" /><path
       class="cls-1"
       d="M205.34,44.07q0,14-13.1,14t-13.14-14Q179.1,30,192.24,30T205.34,44.07Zm-5.52,0c0-2.87-.47-5-1.43-6.22-1.16-1.6-3.21-2.39-6.15-2.39s-5,.79-6.14,2.39c-1,1.27-1.43,3.35-1.43,6.22s.47,4.94,1.43,6.22q1.74,2.34,6.14,2.34t6.15-2.34C199.35,49,199.82,46.94,199.82,44.07Z"
       id="path4"
       style="fill:#f7941d;fill-opacity:1" /></g><g
     class="group-2"
     id="g10"
     style="fill:#0c5388;fill-opacity:1"><path
       class="cls-2"
       d="M235.65,58.09h-5.51V44q0-4.29-1.43-6.2-1.76-2.39-6.15-2.38t-6.2,2.38q-1.43,1.9-1.43,6.2V58.09h-5.51v-14Q209.42,30,222.56,30t13.09,14.07Z"
       id="path5"
       style="fill:#0c5388;fill-opacity:1" /><path
       class="cls-2"
       d="M262.52,49.66q0,8.43-11.39,8.43-6.52,0-9.38-3a7.66,7.66,0,0,1-2-5.41,7.66,7.66,0,0,1,2-5.41q2.85-3,9.38-3,3.87,0,5.14-1.06a2.16,2.16,0,0,0,.74-1.8,2.22,2.22,0,0,0-.74-1.85q-1.27-1.07-5.14-1.06c-2.55,0-4.24.35-5.09,1.06a2.19,2.19,0,0,0-.74,1.85h-5.51a7.54,7.54,0,0,1,2-5.37q2.85-3,9.38-3,11.39,0,11.39,8.37Zm-5.51,0V46a17.9,17.9,0,0,1-5.88.85c-2.55,0-4.24.34-5.09,1a2.75,2.75,0,0,0,0,3.75c.85.71,2.54,1.07,5.09,1.07s4.29-.36,5.14-1.07A2.26,2.26,0,0,0,257,49.69Z"
       id="path6"
       style="fill:#0c5388;fill-opacity:1" /><path
       class="cls-2"
       d="M280.7,58.14q-14,0-14-10.23v-29h5.51V30h8.53v5.46h-8.53V47.94a3.83,3.83,0,0,0,1.43,3.3c1.31,1,3.67,1.44,7.1,1.44Z"
       id="path7"
       style="fill:#0c5388;fill-opacity:1" /><path
       class="cls-2"
       d="M289.45,24.38h-5.52V18.92h5.52ZM283.93,30h5.52V58.09h-5.52Z"
       id="path8"
       style="fill:#0c5388;fill-opacity:1" /><path
       class="cls-2"
       d="M319.34,44.07q0,14-13.09,14t-13.15-14Q293.1,30,306.25,30T319.34,44.07Zm-5.51,0c0-2.87-.48-5-1.44-6.22-1.16-1.6-3.21-2.39-6.14-2.39s-5,.79-6.15,2.39c-1,1.27-1.43,3.35-1.43,6.22s.47,4.94,1.43,6.22q1.74,2.34,6.15,2.34t6.14-2.34Q313.83,48.37,313.83,44.07Z"
       id="path9"
       style="fill:#0c5388;fill-opacity:1" /><path
       class="cls-2"
       d="M349.65,58.09h-5.51V44q0-4.29-1.43-6.2-1.75-2.39-6.15-2.38t-6.2,2.38q-1.42,1.9-1.43,6.2V58.09h-5.51v-14Q323.42,30,336.56,30t13.09,14.07Z"
       id="path10"
       style="fill:#0c5388;fill-opacity:1" /></g><path
     class="cls-2 robot"
     d="M23.76,39.87h-5v6.4h4.75c2.65,0,3.3-.52,3.3-3.27S26.34,39.87,23.76,39.87ZM4,30V50.34a18.63,18.63,0,0,0,6.46,14.1L7.35,76.75l10.56-8.38A18.59,18.59,0,0,0,37.08,62.2V40.3a5.13,5.13,0,0,1,4.25-5V30Zm26.26,22v3.5h-3.6v-3.5c0-1.58-.65-2.68-2.37-2.7H18.76v6.2h-3.6V36.8h9.58c4.1.1,5.67,1.37,5.67,5.62,0,2.78-.15,4.8-3.32,5.28v.1C29.64,48,30.26,49.4,30.26,52.05Zm-6.5-12.18h-5v6.4h4.75c2.65,0,3.3-.52,3.3-3.27S26.34,39.87,23.76,39.87Zm0,0h-5v6.4h4.75c2.65,0,3.3-.52,3.3-3.27S26.34,39.87,23.76,39.87ZM22,10.13a17.73,17.73,0,0,0-12.5,5.14v12.9H36V17A17.72,17.72,0,0,0,22,10.13Zm-5.5,13.29a3.25,3.25,0,1,1,3.25-3.25A3.25,3.25,0,0,1,16.54,23.42Zm12.5,0a3.25,3.25,0,1,1,3.25-3.25A3.25,3.25,0,0,1,29,23.42ZM43.29,0a2.29,2.29,0,0,0-1,4.35L39.07,18.07a4.43,4.43,0,0,0-2-.48v9A4.48,4.48,0,0,0,40,18.66L43.27,4.58h0a2.3,2.3,0,0,0,0-4.59ZM6.51,18.07,3.29,4.35a2.27,2.27,0,1,0-1,.24h0L5.62,18.66A4.48,4.48,0,0,0,8.5,26.59v-9A4.43,4.43,0,0,0,6.51,18.07Z"
     id="path11"
     style="fill:#0c5388;fill-opacity:1" /><path
     class="cls-1 robot"
     d="M47.21,27.85a4.17,4.17,0,1,1,0-8.33Zm31.79,0a4.17,4.17,0,1,0,0-8.33ZM77.75,15.28V31.94a3.31,3.31,0,0,1-3.31,3.31H51.77a3.31,3.31,0,0,1-3.31-3.31V15.28A3.31,3.31,0,0,1,51.77,12H74.44A3.31,3.31,0,0,1,77.75,15.28ZM60.07,21.63A3.39,3.39,0,1,0,56.68,25,3.39,3.39,0,0,0,60.07,21.63Zm13,0A3.39,3.39,0,1,0,69.72,25,3.39,3.39,0,0,0,73.11,21.63Zm14.1,20.53v26a4.75,4.75,0,0,1-4.75,4.75h-3.8l2.42,9.63L68.94,72.87H44.33a4.75,4.75,0,0,1-4.75-4.75v-26a4.75,4.75,0,0,1,4.75-4.75H82.46A4.75,4.75,0,0,1,87.21,42.16ZM73.68,43.31H69.42l.35,18.55h-.12l-9.5-18.55h-7V65.5h4.26L57,47h.15L66.6,65.5h7.08Z"
     id="path12"
     style="fill:#f7941d;fill-opacity:1" /><metadata
     id="metadata12"><rdf:RDF><cc:Work
         rdf:about=""><dc:title>RoboNation Logo</dc:title></cc:Work></rdf:RDF></metadata></svg>
