<?xml version="1.0" encoding="UTF-8" standalone="no"?>
<svg
   id="Layer_1"
   data-name="Layer 1"
   viewBox="0 0 2125.1298 299.54998"
   version="1.1"
   width="2125.1299"
   height="299.54999"
   xmlns="http://www.w3.org/2000/svg"
   xmlns:svg="http://www.w3.org/2000/svg"
   xmlns:rdf="http://www.w3.org/1999/02/22-rdf-syntax-ns#"
   xmlns:cc="http://creativecommons.org/ns#"
   xmlns:dc="http://purl.org/dc/elements/1.1/">
  <defs
     id="defs1">
    <style
       id="style1">.cls-1{fill:#000;}.cls-2{fill:#ec1c24;}.cls-3{fill:#910d23;}.cls-4{fill:#be1e2d;}</style>
  </defs>
  <title
     id="title1">VectorNav_Logo_ForWeb_RGB</title>
  <path
     class="cls-1"
     d="m 686.69,137.82 15.6,-27 V 110.7 H 569.84 v 138.7 h 116.82 l 15.51,-26.85 v -0.28 h -102 v -29.16 h 62.1 l 15.68,-27.16 h -77.77 v -28.13 z"
     id="path1" />
  <path
     class="cls-1"
     d="m 765.59,180.42 v -0.4 c 0,-39.44 29.73,-71.74 72.34,-71.74 26.16,0 41.81,8.72 54.7,21.4 l -19.43,22.4 c -10.7,-9.71 -21.6,-15.66 -35.47,-15.66 -23.39,0 -40.23,19.42 -40.23,43.21 v 0.39 c 0,23.79 16.45,43.6 40.23,43.6 15.85,0 25.56,-6.34 36.46,-16.25 l 19.43,19.62 c -14.27,15.26 -30.13,24.78 -56.88,24.78 -40.83,0 -71.15,-31.5 -71.15,-71.35 z"
     id="path2" />
  <path
     class="cls-1"
     d="m 966.37,110.66 v 28.15 h 49.58 V 249.4 h 30.51 V 138.81 h 46.19 l 16.26,-28.15 z"
     id="path3" />
  <path
     class="cls-1"
     d="m 1153.13,180.42 v -0.4 c 0,-39.44 31.11,-71.74 73.92,-71.74 42.81,0 73.53,31.91 73.53,71.35 v 0.39 c 0,39.44 -31.12,71.75 -73.93,71.75 -42.81,0 -73.52,-31.91 -73.52,-71.35 z m 115.54,0 v -0.4 c 0,-23.78 -17.44,-43.6 -42,-43.6 -24.56,0 -41.61,19.42 -41.61,43.21 v 0.39 c 0,23.79 17.44,43.6 42,43.6 24.56,0 41.61,-19.42 41.61,-43.2 z"
     id="path4" />
  <path
     class="cls-1"
     d="m 1456.56,178.04 c 14.87,0 23.39,-7.93 23.39,-19.62 v -0.4 c 0,-13.08 -9.12,-19.81 -24,-19.81 h -52.17 v 111.18 h -30.51 V 110.66 h 85.26 c 17.64,0 31.32,5 40.43,14.07 7.73,7.73 11.89,18.63 11.89,31.71 v 0.4 c 0,22.39 -12.08,36.46 -29.72,43 l 33.89,49.55 h -35.68 l -47.47,-70.9"
     id="path5" />
  <path
     class="cls-1"
     d="m 1592.7,110.66 h 28.37 l 81.48,99.75 v -99.75 h 27.66 v 138.73 h -30.68 l -76.15,-89.73 v 89.73 h -30.68 z"
     id="path6" />
  <polygon
     class="cls-1"
     points="2011.1,306.39 1963.92,388.12 1930.99,388.12 2011.1,249.39 2091.2,388.12 2058.27,388.12 "
     id="polygon6"
     transform="translate(-138.73,-138.73)" />
  <polygon
     class="cls-1"
     points="2183.75,331.12 2230.93,249.39 2263.86,249.39 2183.75,388.12 2103.65,249.39 2136.58,249.39 "
     id="polygon7"
     transform="translate(-138.73,-138.73)" />
  <polygon
     class="cls-1"
     points="557.75,331.12 604.93,249.39 637.85,249.39 557.75,388.12 477.65,249.39 510.58,249.39 "
     id="polygon8"
     transform="translate(-138.73,-138.73)" />
  <polygon
     class="cls-2"
     points="311.66,249.74 311.66,138.73 375.75,249.74 "
     id="polygon9"
     transform="translate(-138.73,-138.73)" />
  <polygon
     class="cls-2"
     points="268.44,363.41 225.19,288.5 225.19,388.39 311.66,438.28 "
     id="polygon10"
     transform="translate(-138.73,-138.73)" />
  <polygon
     class="cls-2"
     points="441.39,363.41 398.14,288.5 398.14,388.39 484.61,438.28 "
     id="polygon11"
     transform="translate(-138.73,-138.73)" />
  <polygon
     class="cls-3"
     points="311.66,360.78 247.58,249.74 311.66,249.74 "
     id="polygon12"
     transform="translate(-138.73,-138.73)" />
  <polygon
     class="cls-3"
     points="225.19,388.39 138.73,438.28 225.19,438.28 311.66,438.28 "
     id="polygon13"
     transform="translate(-138.73,-138.73)" />
  <polygon
     class="cls-3"
     points="398.14,388.39 311.68,438.28 398.14,438.28 484.61,438.28 "
     id="polygon14"
     transform="translate(-138.73,-138.73)" />
  <polygon
     class="cls-4"
     points="311.66,249.74 247.58,249.74 311.66,138.73 "
     id="polygon15"
     transform="translate(-138.73,-138.73)" />
  <polygon
     class="cls-4"
     points="311.66,360.78 311.66,249.74 375.75,249.74 "
     id="polygon16"
     transform="translate(-138.73,-138.73)" />
  <polygon
     class="cls-4"
     points="181.95,363.41 138.73,438.28 225.19,388.39 225.19,288.5 "
     id="polygon17"
     transform="translate(-138.73,-138.73)" />
  <polygon
     class="cls-4"
     points="354.89,363.41 311.68,438.28 398.14,388.39 398.14,288.5 "
     id="polygon18"
     transform="translate(-138.73,-138.73)" />
  <metadata
     id="metadata1">
    <rdf:RDF>
      <cc:Work
         rdf:about="">
        <dc:title>VectorNav_Logo_ForWeb_RGB</dc:title>
      </cc:Work>
    </rdf:RDF>
  </metadata>
</svg>
