<?xml version="1.0" encoding="UTF-8" standalone="no"?>
<!-- Created with Inkscape (http://www.inkscape.org/) -->

<svg
   version="1.1"
   id="svg1"
   width="1336"
   height="342.66666"
   viewBox="0 0 1336 342.66666"
   sodipodi:docname="logo_waterlinked.svg"
   inkscape:version="1.4.3 (0d15f75042, 2025-12-25)"
   xmlns:inkscape="http://www.inkscape.org/namespaces/inkscape"
   xmlns:sodipodi="http://sodipodi.sourceforge.net/DTD/sodipodi-0.dtd"
   xmlns="http://www.w3.org/2000/svg"
   xmlns:svg="http://www.w3.org/2000/svg">
  <sodipodi:namedview
     id="namedview1"
     pagecolor="#ffffff"
     bordercolor="#000000"
     borderopacity="0.25"
     inkscape:showpageshadow="2"
     inkscape:pageopacity="0.0"
     inkscape:pagecheckerboard="0"
     inkscape:deskcolor="#d1d1d1"
     inkscape:zoom="1.0494012"
     inkscape:cx="668.47646"
     inkscape:cy="171.52639"
     inkscape:window-width="1503"
     inkscape:window-height="933"
     inkscape:window-x="0"
     inkscape:window-y="0"
     inkscape:window-maximized="1"
     inkscape:current-layer="g1" />
  <defs
     id="defs1" />
  <g
     id="g1">
    <g
       id="group-R5">
      <path
         id="path3"
         d="M 730.188,1757.89 H 994.824 L 1170.76,1113.3 h 4.43 l 161.15,644.59 h 260.2 l 159.67,-643.11 h 4.43 l 177.42,643.11 h 263.16 L 1871.53,708.211 h -226.2 l -174.46,688.939 h -2.95 L 1286.07,708.211 h -226.2 L 730.188,1757.89"
         style="fill:#1d3556;fill-opacity:1;fill-rule:nonzero;stroke:none"
         transform="matrix(0.13333333,0,0,-0.13333333,0,342.66667)" />
      <path
         id="path4"
         d="m 2636.64,946.238 c 29.57,31.532 44.36,72.442 44.36,122.712 0,49.27 -14.54,90.18 -43.62,122.7 -29.07,32.53 -65.3,48.79 -108.66,48.79 -45.34,0 -82.55,-15.77 -111.63,-47.31 -29.07,-31.54 -43.61,-72.93 -43.61,-124.18 0,-51.26 14.29,-92.411 42.88,-123.462 28.58,-31.039 66.03,-46.558 112.36,-46.558 42.38,0 78.36,15.761 107.92,47.308 z M 2234.51,798.391 c -64.07,68.988 -96.1,159.179 -96.1,270.559 0,109.39 31.3,199.34 93.88,269.8 62.59,70.48 141.19,105.71 235.81,105.71 81.81,0 148.34,-30.06 199.59,-90.18 l 2.95,1.48 v 75.4 h 232.12 V 708.211 h -220.29 v 75.391 l -2.95,1.488 c -47.31,-60.121 -113.84,-90.192 -199.59,-90.192 -99.55,0 -181.36,34.5 -245.42,103.493"
         style="fill:#1d3556;fill-opacity:1;fill-rule:nonzero;stroke:none"
         transform="matrix(0.13333333,0,0,-0.13333333,0,342.66667)" />
      <path
         id="path5"
         d="m 3137.86,756.262 c -38.44,40.898 -57.66,100.777 -57.66,179.617 v 309.001 h -81.31 v 186.28 h 81.31 v 232.11 l 232.11,23.66 v -255.77 h 174.46 V 1244.88 H 3312.31 V 978.762 c 0,-54.211 18.24,-81.313 54.7,-81.313 24.65,0 48.3,5.422 70.97,16.262 l 57.65,-170.02 c -58.14,-32.531 -125.66,-48.793 -202.54,-48.793 -65.05,0 -116.79,20.454 -155.23,61.364"
         style="fill:#1d3556;fill-opacity:1;fill-rule:nonzero;stroke:none"
         transform="matrix(0.13333333,0,0,-0.13333333,0,342.66667)" />
      <path
         id="path6"
         d="m 3815.75,1230.83 c -25.13,-20.21 -41.15,-48.54 -48.05,-85.01 h 270.55 c -7.88,35.48 -23.16,63.57 -45.83,84.27 -22.67,20.7 -51.25,31.05 -85.75,31.05 -35.48,0 -65.79,-10.1 -90.92,-30.31 z m 442.79,-222.5 h -492.31 c 6.9,-40.408 26.11,-71.459 57.65,-93.139 31.54,-21.679 69.98,-32.531 115.32,-32.531 67.02,1.969 123.2,28.09 168.54,78.36 L 4240.8,825 c -69.98,-86.73 -178.4,-130.102 -325.26,-130.102 -110.38,0 -201.06,34.743 -272.02,104.231 -70.97,69.492 -106.45,159.922 -106.45,271.291 0,109.4 34.74,199.1 104.23,269.08 69.48,69.97 158.92,104.96 268.33,104.96 102.5,0 187.02,-34.49 253.55,-103.49 66.53,-68.99 99.79,-156.71 99.79,-263.16 0,-16.75 -1.48,-39.91 -4.43,-69.48"
         style="fill:#1d3556;fill-opacity:1;fill-rule:nonzero;stroke:none"
         transform="matrix(0.13333333,0,0,-0.13333333,0,342.66667)" />
      <path
         id="path7"
         d="m 4385.7,1431.16 h 230.64 v -100.54 h 2.96 c 54.21,75.9 123.69,113.84 208.45,113.84 h 8.87 v -249.85 c -29.56,1.97 -47.8,2.96 -54.7,2.96 -53.22,0 -94.13,-15.04 -122.71,-45.09 -28.58,-30.07 -42.87,-69.74 -42.87,-119.02 V 708.211 H 4385.7 v 722.949"
         style="fill:#1d3556;fill-opacity:1;fill-rule:nonzero;stroke:none"
         transform="matrix(0.13333333,0,0,-0.13333333,0,342.66667)" />
      <path
         id="path8"
         d="m 4951.95,1757.89 h 252.81 V 928.488 H 5640.9 V 708.211 H 4951.95 V 1757.89"
         style="fill:#1d3556;fill-opacity:1;fill-rule:nonzero;stroke:none"
         transform="matrix(0.13333333,0,0,-0.13333333,0,342.66667)" />
      <path
         id="path9"
         d="m 6159.84,1431.16 h 230.64 v -84.28 h 2.96 c 56.18,65.06 128.62,97.58 217.32,97.58 172.48,0 258.73,-101.02 258.73,-303.07 V 708.211 h -230.63 v 376.999 c 0,57.16 -9.37,97.08 -28.1,119.75 -18.72,22.67 -47.8,34 -87.22,34 -41.4,0 -73.92,-14.04 -97.58,-42.13 -23.66,-28.09 -35.48,-69.74 -35.48,-124.93 V 708.211 h -230.64 v 722.949"
         style="fill:#1d3556;fill-opacity:1;fill-rule:nonzero;stroke:none"
         transform="matrix(0.13333333,0,0,-0.13333333,0,342.66667)" />
      <path
         id="path10"
         d="m 7000.31,1796.33 h 227.68 v -625.37 h 2.96 l 211.41,260.2 h 267.6 L 7466.02,1142.87 7717.35,708.211 H 7461.58 L 7300.43,992.07 7227.99,912.23 V 708.211 H 7000.31 V 1796.33"
         style="fill:#1d3556;fill-opacity:1;fill-rule:nonzero;stroke:none"
         transform="matrix(0.13333333,0,0,-0.13333333,0,342.66667)" />
      <path
         id="path11"
         d="m 7999.02,1230.83 c -25.13,-20.21 -41.15,-48.54 -48.04,-85.01 h 270.54 c -7.88,35.48 -23.16,63.57 -45.83,84.27 -22.66,20.7 -51.25,31.05 -85.75,31.05 -35.48,0 -65.79,-10.1 -90.92,-30.31 z m 442.79,-222.5 h -492.32 c 6.91,-40.408 26.13,-71.459 57.67,-93.139 31.53,-21.679 69.97,-32.531 115.31,-32.531 67.02,1.969 123.2,28.09 168.54,78.36 L 8424.07,825 c -69.98,-86.73 -178.4,-130.102 -325.25,-130.102 -110.39,0 -201.07,34.743 -272.03,104.231 -70.97,69.492 -106.45,159.922 -106.45,271.291 0,109.4 34.74,199.1 104.23,269.08 69.48,69.97 158.93,104.96 268.33,104.96 102.51,0 187.02,-34.49 253.56,-103.49 66.52,-68.99 99.79,-156.71 99.79,-263.16 0,-16.75 -1.48,-39.91 -4.44,-69.48"
         style="fill:#1d3556;fill-opacity:1;fill-rule:nonzero;stroke:none"
         transform="matrix(0.13333333,0,0,-0.13333333,0,342.66667)" />
      <path
         id="path12"
         d="m 9023.94,945.488 c 30.06,31.051 45.09,72.202 45.09,123.462 0,49.27 -14.78,90.18 -44.35,122.7 -29.57,32.53 -67.51,48.79 -113.84,48.79 -44.36,0 -81.31,-15.77 -110.88,-47.31 -29.57,-31.54 -44.35,-72.93 -44.35,-124.18 0,-50.27 14.54,-91.18 43.61,-122.712 29.07,-31.547 66.28,-47.308 111.62,-47.308 45.34,0 83.04,15.519 113.1,46.558 z M 8617.37,798.391 c -63.57,68.988 -95.36,159.179 -95.36,270.559 0,109.39 31.3,199.34 93.89,269.8 62.59,70.48 141.18,105.71 235.8,105.71 85.75,0 154.75,-30.06 206.98,-90.18 h 1.49 v 442.05 h 232.11 V 708.211 h -220.29 v 76.879 h -2.96 c -48.3,-60.121 -116.79,-90.192 -205.49,-90.192 -100.54,0 -182.59,34.5 -246.17,103.493"
         style="fill:#1d3556;fill-opacity:1;fill-rule:nonzero;stroke:none"
         transform="matrix(0.13333333,0,0,-0.13333333,0,342.66667)" />
      <path
         id="path13"
         d="m 6020,1656.33 c 0,-77.32 -62.68,-140 -140,-140 -77.32,0 -140,62.68 -140,140 0,77.32 62.68,140 140,140 77.32,0 140,-62.68 140,-140"
         style="fill:#2d9c6a;fill-opacity:1;fill-rule:nonzero;stroke:none"
         transform="matrix(0.13333333,0,0,-0.13333333,0,342.66667)" />
      <path
         id="path14"
         d="m 6020,848.211 c 0,-77.32 -62.68,-140 -140,-140 -77.32,0 -140,62.68 -140,140 0,77.32 62.68,140 140,140 77.32,0 140,-62.68 140,-140"
         style="fill:#2d9c6a;fill-opacity:1;fill-rule:nonzero;stroke:none"
         transform="matrix(0.13333333,0,0,-0.13333333,0,342.66667)" />
      <path
         id="path15"
         d="m 5880,1392.28 c -77.32,0 -140,-62.69 -140,-140 0,-77.33 62.68,-140 140,-140 77.32,0 140,62.67 140,140 0,77.31 -62.68,140 -140,140 z m 0,-30 c 60.65,0 110,-49.35 110,-110 0,-60.66 -49.35,-110 -110,-110 -60.65,0 -110,49.34 -110,110 0,60.65 49.35,110 110,110"
         style="fill:#1d3556;fill-opacity:1;fill-rule:nonzero;stroke:none"
         transform="matrix(0.13333333,0,0,-0.13333333,0,342.66667)" />
    </g>
  </g>
</svg>
