<?xml version="1.0" encoding="UTF-8" standalone="no"?>
<!-- Created with Inkscape (http://www.inkscape.org/) -->

<svg
   version="1.1"
   id="svg1"
   width="741.97333"
   height="155.72"
   viewBox="0 0 741.97333 155.72"
   xmlns="http://www.w3.org/2000/svg"
   xmlns:svg="http://www.w3.org/2000/svg">
  <defs
     id="defs1" />
  <g
     id="g1">
    <g
       id="group-R5">
      <path
         id="path2"
         d="m 4893.07,608.535 c 4.42,-1.18 13.04,-8.398 21.1,-15.058 L 5564.85,0 h -438.03 l -618.9,608.418 601.39,559.292 H 5532.2 L 4914.17,623.391 c -9.18,-7.95 -16.38,-14.153 -21.1,-14.856"
         style="fill:#1c63b7;fill-opacity:1;fill-rule:nonzero;stroke:none"
         transform="matrix(0.13333333,0,0,-0.13333333,0,155.72)" />
      <path
         id="path3"
         d="m 3052.75,245.832 c 0,0 210.05,-0.352 441.02,0 173.93,0.234 336.84,141.453 336.84,338.16 0,179.731 -143.58,343.465 -355.4,343.465 -271.99,0 -422.46,0.145 -422.46,0.145 v -681.77 m 450.33,921.878 c 378.8,0 624.09,-288.108 624.09,-583.718 C 4127.17,250.242 3826.66,0 3511.58,0 h -757.83 v 1167.92 l 749.33,-0.21"
         style="fill:#1c63b7;fill-opacity:1;fill-rule:nonzero;stroke:none"
         transform="matrix(0.13333333,0,0,-0.13333333,0,155.72)" />
      <path
         id="path4"
         d="M 1348.44,427.48 921.02,674.277 v 493.643 l 427.42,-740.44"
         style="fill:#1c63b7;fill-opacity:1;fill-rule:nonzero;stroke:none"
         transform="matrix(0.13333333,0,0,-0.13333333,0,155.72)" />
      <path
         id="path5"
         d="M 0,427.48 427.359,674.277 V 1167.92 L 0,427.48"
         style="fill:#1c63b7;fill-opacity:1;fill-rule:nonzero;stroke:none"
         transform="matrix(0.13333333,0,0,-0.13333333,0,155.72)" />
      <path
         id="path6"
         d="M 674.246,246.719 246.832,0 H 1101.72 L 674.246,246.719"
         style="fill:#1c63b7;fill-opacity:1;fill-rule:nonzero;stroke:none"
         transform="matrix(0.13333333,0,0,-0.13333333,0,155.72)" />
      <path
         id="path7"
         d="M 921.02,1167.92 H 427.359 L 674.246,921.09 921.02,1167.92"
         style="fill:#1c63b7;fill-opacity:1;fill-rule:nonzero;stroke:none"
         transform="matrix(0.13333333,0,0,-0.13333333,0,155.72)" />
      <path
         id="path8"
         d="M 921.02,674.277 674.246,246.719 1011.37,337.246 921.02,674.277"
         style="fill:#1c63b7;fill-opacity:1;fill-rule:nonzero;stroke:none"
         transform="matrix(0.13333333,0,0,-0.13333333,0,155.72)" />
      <path
         id="path9"
         d="M 427.359,674.277 H 921.02 L 674.246,921.09 427.359,674.277"
         style="fill:#1c63b7;fill-opacity:1;fill-rule:nonzero;stroke:none"
         transform="matrix(0.13333333,0,0,-0.13333333,0,155.72)" />
      <path
         id="path10"
         d="M 1011.37,337.246 1101.72,0 1348.44,427.48 1011.37,337.246"
         style="fill:#1c63b7;fill-opacity:1;fill-rule:nonzero;stroke:none"
         transform="matrix(0.13333333,0,0,-0.13333333,0,155.72)" />
      <path
         id="path11"
         d="m 427.359,674.277 246.774,-427.558 -337.004,90.527 90.23,337.031"
         style="fill:#1c63b7;fill-opacity:1;fill-rule:nonzero;stroke:none"
         transform="matrix(0.13333333,0,0,-0.13333333,0,155.72)" />
      <path
         id="path12"
         d="M 337.129,337.246 246.832,0 0,427.48 337.129,337.246"
         style="fill:#1c63b7;fill-opacity:1;fill-rule:nonzero;stroke:none"
         transform="matrix(0.13333333,0,0,-0.13333333,0,155.72)" />
      <path
         id="path13"
         d="M 2689.62,1167.92 H 1316.08 V 919.672 h 529.14 V 0 h 315.38 v 919.672 h 529.02 v 248.248"
         style="fill:#1c63b7;fill-opacity:1;fill-rule:nonzero;stroke:none"
         transform="matrix(0.13333333,0,0,-0.13333333,0,155.72)" />
      <path
         id="path14"
         d="m 4179.87,0 h 319.97 V 1167.69 H 4179.87 V 0"
         style="fill:#1c63b7;fill-opacity:1;fill-rule:nonzero;stroke:none"
         transform="matrix(0.13333333,0,0,-0.13333333,0,155.72)" />
    </g>
  </g>
</svg>
